<svg width="59" height="53" viewBox="0 0 59 53" fill="none" xmlns="http://www.w3.org/2000/svg">
<path d="M0.0351562 14.9609L1.40232 13.9844L1.80383 13.4443V12.5277H2.72037L2.47631 11.7028L4.50763 10.9238L4.13631 9.7781L5.10338 9.36566V8.86156C5.5311 8.76991 6.34071 8.45828 6.1574 7.94502C5.92827 7.30344 6.75315 7.12013 6.98229 6.34107C7.1656 5.71782 15.2823 4.15269 19.3178 3.44804C22.1624 2.45511 28.1114 0.564117 29.1503 0.943523C30.449 1.41778 32.768 0.943544 36.4784 0.469265C39.4467 0.0898415 43.7557 0.311172 45.5392 0.469265C47.179 3.83734 50.4318 11.2557 50.3255 13.9844C50.2191 16.7131 52.9401 24.7243 54.314 28.3888C55.1117 29.0979 57.0793 32.4571 58.5684 40.2214C58.0366 51.921 16.4958 52.7926 14.6382 52.0067C12.7807 51.2209 8.92276 38.5754 8.4941 37.3608C8.15117 36.3892 6.55269 33.0242 5.79631 31.4632L4.13631 24.8232L2.47631 20.1362L0.0351562 14.9609Z" fill="#D6BB76"/>
<path d="M2.58933 11.6679L10.7764 30.3416C11.7347 33.7304 13.743 40.3913 14.1096 39.9246C14.4763 39.458 12.5125 31.8416 11.4847 28.0917L6.23492 8.05078" stroke="#382E14" stroke-width="0.27084"/>
<path d="M1.84375 12.5527L10.3085 31.924L13.3373 41.5693C13.9256 43.2661 14.4192 45.2253 15.1023 45.6526C15.785 46.0796 15.7496 41.1123 15.5126 40.2829L7.04709 6.27734" stroke="#382E14" stroke-width="0.27084"/>
<path d="M1.22949 14.0781L7.73995 29.2741C8.53995 31.0519 10.2733 34.954 10.8066 36.3406C11.4733 38.0739 14.4065 50.4735 16.0065 49.2736C17.2865 48.3136 16.1774 43.9768 15.644 41.6213" stroke="#382E14" stroke-width="0.27084"/>
<path d="M4.37057 10.9649C7.58829 18.6752 13.1869 34.8997 13.1869 36.7939L5.00606 9.39062" stroke="#382E14" stroke-width="0.27084"/>
<path d="M16.6001 17.1361C24.0398 15.0962 39.8982 11.0309 43.8147 11.0885" stroke="#382E14" stroke-width="0.54168"/>
<path d="M35.2236 17.8047L44.8162 15.4527L47.0146 23.2179L38.3462 26.8049L35.2236 17.8047Z" fill="#382E14"/>
<path d="M30.2451 34.6777L21.1426 38.5109L24.0093 46.0551L33.1065 43.7643L30.2451 34.6777Z" fill="#382E14"/>
<path d="M17.02 25.1019C18.7537 24.3074 22.5677 22.7182 23.9547 22.7182C25.6885 22.7181 29.9144 21.2012 30.8896 21.2012C31.6698 21.2012 33.3095 21.2012 34.0319 21.2012" stroke="#382E14" stroke-width="0.54168"/>
<path d="M34.5204 36.1873C36.1128 35.1379 39.6403 32.9864 41.0111 32.7751C42.7247 32.511 46.6702 30.3681 47.634 30.2196C48.4051 30.1008 50.0257 29.851 50.7397 29.741" stroke="#382E14" stroke-width="0.54168"/>
<path d="M17.5273 27.4261C19.261 26.6316 23.075 25.0424 24.4621 25.0424C26.1959 25.0424 30.4217 23.5254 31.3969 23.5254C32.1771 23.5254 33.8169 23.5254 34.5392 23.5254" stroke="#382E14" stroke-width="0.54168"/>
<path d="M35.3754 38.408C36.9678 37.3586 40.4953 35.2071 41.8661 34.9959C43.5797 34.7317 47.5252 32.5888 48.489 32.4403C49.2601 32.3215 50.8807 32.0717 51.5947 31.9617" stroke="#382E14" stroke-width="0.54168"/>
<path d="M18.2119 30.1761C19.9456 29.3816 23.7596 27.7924 25.1466 27.7924C26.8804 27.7924 31.1063 26.2754 32.0815 26.2754C32.8617 26.2754 34.5014 26.2754 35.2238 26.2754" stroke="#382E14" stroke-width="0.54168"/>
<path d="M36.4711 41.0213C38.0635 39.9719 41.591 37.8204 42.9618 37.6091C44.6754 37.345 48.6209 35.2021 49.5847 35.0536C50.3558 34.9348 51.9764 34.685 52.6904 34.575" stroke="#382E14" stroke-width="0.54168"/>
</svg>
