<svg width="55" height="54" viewBox="0 0 55 54" fill="none" xmlns="http://www.w3.org/2000/svg">
<path d="M2.13708 4.02979C1.90825 1.05431 4.61668 1.74095 5.99951 2.4562C6.76877 4.60196 37.3071 0.310447 39.4718 0.310447C41.6365 0.310447 39.9028 0.739605 48.629 0.310447C55.61 -0.0328791 55.4479 1.5979 54.4942 2.4562C52.7299 4.84042 49.7735 10.6961 52.0623 15.0449C56.64 20.4809 52.6345 44.5137 52.0623 45.9442C51.4901 47.3747 53.4928 48.6622 54.4942 50.951C55.4956 53.2399 47.9138 51.8094 46.7694 52.5246C45.6249 53.2399 33.7516 53.8121 30.8905 53.9552C28.0295 54.0982 19.4463 49.6636 17.5866 50.951C15.727 52.2385 5.99951 52.6677 3.71054 52.5246C1.42158 52.3816 1.13553 50.808 0.992479 48.6622C0.849426 46.5164 4.42582 46.3734 2.13708 39.0777C-0.151658 31.782 4.13972 11.4685 4.42582 8.60749C4.71193 5.74644 2.42313 7.74914 2.13708 4.02979Z" fill="#529897"/>
<path d="M10.9577 8.66365C11.1092 8.19718 11.7692 8.19718 11.9207 8.66365C11.9885 8.87227 12.1829 9.01351 12.4023 9.01351C12.8927 9.01351 13.0967 9.64114 12.6999 9.92944C12.5224 10.0584 12.4481 10.2869 12.5159 10.4955C12.6675 10.962 12.1336 11.3499 11.7368 11.0616C11.5593 10.9327 11.319 10.9327 11.1416 11.0616C10.7448 11.3499 10.2109 10.962 10.3624 10.4955C10.4302 10.2869 10.356 10.0584 10.1785 9.92944C9.78171 9.64114 9.98564 9.01351 10.4761 9.01351C10.6955 9.01351 10.8899 8.87227 10.9577 8.66365Z" fill="#DBE2AE"/>
<path d="M30.5953 8.66365C30.7469 8.19718 31.4069 8.19718 31.5584 8.66365C31.6262 8.87227 31.8206 9.01351 32.04 9.01351C32.5304 9.01351 32.7344 9.64114 32.3376 9.92944C32.1601 10.0584 32.0858 10.2869 32.1536 10.4955C32.3052 10.962 31.7713 11.3499 31.3745 11.0616C31.197 10.9327 30.9567 10.9327 30.7793 11.0616C30.3825 11.3499 29.8486 10.962 30.0001 10.4955C30.0679 10.2869 29.9937 10.0584 29.8162 9.92944C29.4194 9.64114 29.6233 9.01351 30.1138 9.01351C30.3332 9.01351 30.5276 8.87227 30.5953 8.66365Z" fill="#DBE2AE"/>
<path d="M45.7697 6.01326C45.9212 5.54679 46.5812 5.54679 46.7327 6.01326C46.8005 6.22187 46.9949 6.36312 47.2143 6.36312C47.7047 6.36312 47.9087 6.99075 47.5119 7.27905C47.3344 7.40798 47.2602 7.63651 47.3279 7.84513C47.4795 8.3116 46.9456 8.6995 46.5488 8.41121C46.3713 8.28228 46.1311 8.28228 45.9536 8.41121C45.5568 8.6995 45.0229 8.3116 45.1745 7.84513C45.2422 7.63651 45.168 7.40798 44.9905 7.27905C44.5937 6.99075 44.7977 6.36312 45.2881 6.36312C45.5075 6.36312 45.7019 6.22187 45.7697 6.01326Z" fill="#DBE2AE"/>
<path d="M8.30726 17.5894C8.45883 17.123 9.11877 17.123 9.27033 17.5894C9.33811 17.798 9.53252 17.9393 9.75187 17.9393C10.2423 17.9393 10.4463 18.5669 10.0495 18.8552C9.87201 18.9842 9.79776 19.2127 9.86554 19.4213C10.0171 19.8878 9.48321 20.2757 9.0864 19.9874C8.90894 19.8584 8.66865 19.8584 8.49119 19.9874C8.09439 20.2757 7.56049 19.8878 7.71205 19.4213C7.77984 19.2127 7.70558 18.9842 7.52812 18.8552C7.13132 18.5669 7.33525 17.9393 7.82573 17.9393C8.04508 17.9393 8.23948 17.798 8.30726 17.5894Z" fill="#DBE2AE"/>
<path d="M27.9445 18.3687C28.096 17.9023 28.756 17.9023 28.9075 18.3687C28.9753 18.5773 29.1697 18.7186 29.3891 18.7186C29.8796 18.7186 30.0835 19.3462 29.6867 19.6345C29.5092 19.7634 29.435 19.992 29.5027 20.2006C29.6543 20.6671 29.1204 21.055 28.7236 20.7667C28.5462 20.6377 28.3059 20.6377 28.1284 20.7667C27.7316 21.055 27.1977 20.6671 27.3493 20.2006C27.417 19.992 27.3428 19.7634 27.1653 19.6345C26.7685 19.3462 26.9725 18.7186 27.4629 18.7186C27.6823 18.7186 27.8767 18.5773 27.9445 18.3687Z" fill="#DBE2AE"/>
<path d="M46.6881 15.7183C46.8397 15.2519 47.4996 15.2519 47.6512 15.7183C47.719 15.927 47.9134 16.0682 48.1327 16.0682C48.6232 16.0682 48.8271 16.6958 48.4303 16.9841C48.2529 17.1131 48.1786 17.3416 48.2464 17.5502C48.398 18.0167 47.8641 18.4046 47.4673 18.1163C47.2898 17.9874 47.0495 17.9874 46.8721 18.1163C46.4752 18.4046 45.9413 18.0167 46.0929 17.5502C46.1607 17.3416 46.0864 17.1131 45.909 16.9841C45.5122 16.6958 45.7161 16.0682 46.2066 16.0682C46.4259 16.0682 46.6203 15.927 46.6881 15.7183Z" fill="#DBE2AE"/>
<path d="M37.7633 13.066C37.9149 12.5995 38.5748 12.5995 38.7264 13.066C38.7942 13.2746 38.9886 13.4159 39.2079 13.4159C39.6984 13.4159 39.9023 14.0435 39.5055 14.3318C39.3281 14.4607 39.2538 14.6892 39.3216 14.8979C39.4732 15.3643 38.9393 15.7522 38.5425 15.4639C38.365 15.335 38.1247 15.335 37.9472 15.4639C37.5504 15.7522 37.0165 15.3643 37.1681 14.8979C37.2359 14.6892 37.1616 14.4607 36.9842 14.3318C36.5874 14.0435 36.7913 13.4159 37.2818 13.4159C37.5011 13.4159 37.6955 13.2746 37.7633 13.066Z" fill="#DBE2AE"/>
<path d="M19.4508 13.066C19.6024 12.5995 20.2623 12.5995 20.4139 13.066C20.4817 13.2746 20.6761 13.4159 20.8954 13.4159C21.3859 13.4159 21.5898 14.0435 21.193 14.3318C21.0156 14.4607 20.9413 14.6892 21.0091 14.8979C21.1607 15.3643 20.6268 15.7522 20.23 15.4639C20.0525 15.335 19.8122 15.335 19.6347 15.4639C19.2379 15.7522 18.704 15.3643 18.8556 14.8979C18.9234 14.6892 18.8491 14.4607 18.6717 14.3318C18.2749 14.0435 18.4788 13.4159 18.9693 13.4159C19.1886 13.4159 19.383 13.2746 19.4508 13.066Z" fill="#DBE2AE"/>
<path d="M16.2599 25.3961C16.4115 24.9296 17.0714 24.9296 17.223 25.3961C17.2908 25.6047 17.4852 25.7459 17.7045 25.7459C18.195 25.7459 18.3989 26.3736 18.0021 26.6619C17.8247 26.7908 17.7504 27.0193 17.8182 27.2279C17.9697 27.6944 17.4358 28.0823 17.039 27.794C16.8616 27.6651 16.6213 27.6651 16.4438 27.794C16.047 28.0823 15.5131 27.6944 15.6647 27.2279C15.7325 27.0193 15.6582 26.7908 15.4808 26.6619C15.084 26.3736 15.2879 25.7459 15.7784 25.7459C15.9977 25.7459 16.1921 25.6047 16.2599 25.3961Z" fill="#DBE2AE"/>
<path d="M39.171 25.3961C39.3226 24.9296 39.9825 24.9296 40.1341 25.3961C40.2019 25.6047 40.3963 25.7459 40.6156 25.7459C41.1061 25.7459 41.31 26.3736 40.9132 26.6619C40.7358 26.7908 40.6615 27.0193 40.7293 27.2279C40.8809 27.6944 40.347 28.0823 39.9502 27.794C39.7727 27.6651 39.5324 27.6651 39.355 27.794C38.9582 28.0823 38.4243 27.6944 38.5758 27.2279C38.6436 27.0193 38.5694 26.7908 38.3919 26.6619C37.9951 26.3736 38.199 25.7459 38.6895 25.7459C38.9088 25.7459 39.1032 25.6047 39.171 25.3961Z" fill="#DBE2AE"/>
<path d="M8.30726 33.2789C8.45883 32.8124 9.11877 32.8124 9.27033 33.2789C9.33811 33.4875 9.53252 33.6287 9.75187 33.6287C10.2423 33.6287 10.4463 34.2564 10.0495 34.5447C9.87201 34.6736 9.79776 34.9021 9.86554 35.1108C10.0171 35.5772 9.48321 35.9651 9.0864 35.6768C8.90894 35.5479 8.66865 35.5479 8.49119 35.6768C8.09439 35.9651 7.56049 35.5772 7.71205 35.1108C7.77984 34.9021 7.70558 34.6736 7.52812 34.5447C7.13132 34.2564 7.33525 33.6287 7.82573 33.6287C8.04508 33.6287 8.23948 33.4875 8.30726 33.2789Z" fill="#DBE2AE"/>
<path d="M27.4982 30.6969C27.6497 30.2304 28.3097 30.2304 28.4613 30.6969C28.529 30.9055 28.7234 31.0467 28.9428 31.0467C29.4333 31.0467 29.6372 31.6743 29.2404 31.9626C29.0629 32.0916 28.9887 32.3201 29.0565 32.5287C29.208 32.9952 28.6741 33.3831 28.2773 33.0948C28.0999 32.9659 27.8596 32.9659 27.6821 33.0948C27.2853 33.3831 26.7514 32.9952 26.903 32.5287C26.9708 32.3201 26.8965 32.0916 26.719 31.9626C26.3222 31.6743 26.5262 31.0467 27.0166 31.0467C27.236 31.0467 27.4304 30.9055 27.4982 30.6969Z" fill="#DBE2AE"/>
<path d="M46.6881 29.857C46.8397 29.3905 47.4996 29.3905 47.6512 29.857C47.719 30.0656 47.9134 30.2069 48.1327 30.2069C48.6232 30.2069 48.8271 30.8345 48.4303 31.1228C48.2529 31.2517 48.1786 31.4803 48.2464 31.6889C48.398 32.1554 47.8641 32.5433 47.4673 32.255C47.2898 32.126 47.0495 32.126 46.8721 32.255C46.4752 32.5433 45.9413 32.1554 46.0929 31.6889C46.1607 31.4803 46.0864 31.2517 45.909 31.1228C45.5122 30.8345 45.7161 30.2069 46.2066 30.2069C46.4259 30.2069 46.6203 30.0656 46.6881 29.857Z" fill="#DBE2AE"/>
<path d="M18.1261 38.6969C18.2777 38.2304 18.9376 38.2304 19.0892 38.6969C19.157 38.9055 19.3514 39.0467 19.5707 39.0467C20.0612 39.0467 20.2651 39.6743 19.8683 39.9626C19.6909 40.0916 19.6166 40.3201 19.6844 40.5287C19.836 40.9952 19.3021 41.3831 18.9052 41.0948C18.7278 40.9659 18.4875 40.9659 18.31 41.0948C17.9132 41.3831 17.3793 40.9952 17.5309 40.5287C17.5987 40.3201 17.5244 40.0916 17.347 39.9626C16.9502 39.6743 17.1541 39.0467 17.6446 39.0467C17.8639 39.0467 18.0583 38.9055 18.1261 38.6969Z" fill="#DBE2AE"/>
<path d="M37.7633 38.6969C37.9149 38.2304 38.5748 38.2304 38.7264 38.6969C38.7942 38.9055 38.9886 39.0467 39.2079 39.0467C39.6984 39.0467 39.9023 39.6743 39.5055 39.9626C39.3281 40.0916 39.2538 40.3201 39.3216 40.5287C39.4732 40.9952 38.9393 41.3831 38.5425 41.0948C38.365 40.9659 38.1247 40.9659 37.9472 41.0948C37.5504 41.3831 37.0165 40.9952 37.1681 40.5287C37.2359 40.3201 37.1616 40.0916 36.9842 39.9626C36.5874 39.6743 36.7913 39.0467 37.2818 39.0467C37.5011 39.0467 37.6955 38.9055 37.7633 38.6969Z" fill="#DBE2AE"/>
<path d="M8.30726 45.8707C8.45883 45.4042 9.11877 45.4042 9.27033 45.8707C9.33811 46.0793 9.53252 46.2205 9.75187 46.2205C10.2423 46.2205 10.4463 46.8482 10.0495 47.1365C9.87201 47.2654 9.79776 47.4939 9.86554 47.7025C10.0171 48.169 9.48321 48.5569 9.0864 48.2686C8.90894 48.1397 8.66865 48.1397 8.49119 48.2686C8.09439 48.5569 7.56049 48.169 7.71205 47.7025C7.77984 47.4939 7.70558 47.2654 7.52812 47.1365C7.13132 46.8482 7.33525 46.2205 7.82573 46.2205C8.04508 46.2205 8.23948 46.0793 8.30726 45.8707Z" fill="#DBE2AE"/>
<path d="M27.9445 45.8707C28.096 45.4042 28.756 45.4042 28.9075 45.8707C28.9753 46.0793 29.1697 46.2205 29.3891 46.2205C29.8796 46.2205 30.0835 46.8482 29.6867 47.1365C29.5092 47.2654 29.435 47.4939 29.5027 47.7025C29.6543 48.169 29.1204 48.5569 28.7236 48.2686C28.5462 48.1397 28.3059 48.1397 28.1284 48.2686C27.7316 48.5569 27.1977 48.169 27.3493 47.7025C27.417 47.4939 27.3428 47.2654 27.1653 47.1365C26.7685 46.8482 26.9725 46.2205 27.4629 46.2205C27.6823 46.2205 27.8767 46.0793 27.9445 45.8707Z" fill="#DBE2AE"/>
<path d="M46.6881 43.9976C46.8397 43.5312 47.4996 43.5312 47.6512 43.9976C47.719 44.2062 47.9134 44.3475 48.1327 44.3475C48.6232 44.3475 48.8271 44.9751 48.4303 45.2634C48.2529 45.3924 48.1786 45.6209 48.2464 45.8295C48.398 46.296 47.8641 46.6839 47.4673 46.3956C47.2898 46.2667 47.0495 46.2667 46.8721 46.3956C46.4752 46.6839 45.9413 46.296 46.0929 45.8295C46.1607 45.6209 46.0864 45.3924 45.909 45.2634C45.5122 44.9751 45.7161 44.3475 46.2066 44.3475C46.4259 44.3475 46.6203 44.2062 46.6881 43.9976Z" fill="#DBE2AE"/>
</svg>
