<svg width="184" height="107" viewBox="0 0 184 107" fill="none" xmlns="http://www.w3.org/2000/svg">
<g filter="url(#filter0_d_23_3339)">
<path d="M-7.27076 86.3473C-8.32212 76.8621 -6.96308 67.962 -2.48502 59.5011C-0.634295 56.0044 1.93766 53.0997 5.02387 50.6279C8.47641 47.8628 12.1529 46.9231 16.4442 46.0081C22.5413 44.7082 29.317 45.475 35.0648 47.9647C37.3063 48.9356 40.0053 50.1878 41.4918 52.2187C43.2251 54.587 43.9171 58.4204 44.6798 61.1963" stroke="#535353" stroke-width="1.09863" stroke-linecap="round"/>
</g>
<g filter="url(#filter1_dd_23_3339)">
<path fill-rule="evenodd" clip-rule="evenodd" d="M48.3304 29.1592L28.4102 66.7621L61.2749 93.7937L48.3304 29.1592ZM43.4354 53.669C41.5018 54.0562 40.2483 55.9376 40.6355 57.8712L43.1165 70.2595C43.5038 72.193 45.3851 73.4466 47.3187 73.0593C49.2523 72.6721 50.5058 70.7907 50.1186 68.8571L47.6376 56.4689C47.2503 54.5353 45.3689 53.2817 43.4354 53.669Z" fill="#696F49"/>
<path d="M48.3306 29.1592L155.894 7.61715C160.654 6.66395 165.285 9.7496 166.238 14.5092L175.731 61.9078C176.684 66.6674 173.598 71.2985 168.839 72.2517L61.2751 93.7937L48.3306 29.1592Z" fill="#696F49"/>
<rect x="58.5527" y="35.4441" width="100.911" height="49.5781" rx="2.19727" transform="rotate(-11.3249 58.5527 35.4441)" fill="#F7F1EA"/>
<path d="M82.0258 48.2073C82.0317 48.2367 82.0397 48.2767 82.0498 48.3272C82.0633 48.3726 82.073 48.421 82.0789 48.4724C82.0882 48.5186 82.0928 48.5637 82.0928 48.6074C82.0962 48.6462 82.0912 48.6756 82.0777 48.6958C82.0474 48.7413 82.0125 48.7745 81.973 48.7956C81.9326 48.8124 81.8896 48.8276 81.8442 48.8411C81.8021 48.8495 81.7588 48.8625 81.7142 48.8802C81.6729 48.8929 81.6338 48.916 81.5968 48.9497C81.6136 48.9901 81.638 49.0136 81.67 49.0204C81.7054 49.022 81.7407 49.0237 81.7761 49.0254C81.8148 49.022 81.8489 49.0283 81.8783 49.0443C81.9112 49.0552 81.9331 49.0881 81.944 49.1428C81.9617 49.2311 81.9617 49.3077 81.9441 49.3725C81.9298 49.4323 81.9083 49.4891 81.8797 49.543C81.8503 49.5926 81.8213 49.6444 81.7927 49.6983C81.7641 49.7522 81.7464 49.817 81.7397 49.8927C81.7296 49.9735 81.709 50.0345 81.6779 50.0758C81.6467 50.117 81.6101 50.1528 81.5681 50.1831C81.5294 50.2084 81.489 50.2362 81.4469 50.2665C81.4048 50.2968 81.3682 50.3435 81.3371 50.4066C81.3009 50.4664 81.2681 50.4992 81.2387 50.5051C81.226 50.5077 81.2109 50.5085 81.1932 50.5077C81.1755 50.5068 81.1541 50.5089 81.1288 50.514C81.1078 50.5182 81.0884 50.5308 81.0708 50.5519C81.0565 50.5679 81.0514 50.5864 81.0556 50.6074C81.0573 50.6159 81.0624 50.6192 81.0708 50.6175C81.0792 50.6159 81.0817 50.6175 81.0784 50.6226C81.0371 50.679 80.9576 50.7518 80.8398 50.8411C80.7212 50.9261 80.5832 51.0128 80.4258 51.1012C80.2676 51.1854 80.0997 51.265 79.9221 51.34C79.7479 51.4099 79.5788 51.4613 79.4147 51.4941C79.1285 51.5514 78.8428 51.5999 78.5575 51.6395C78.2772 51.6825 77.9919 51.7331 77.7016 51.7912L76.8621 51.9594C76.8495 51.9619 76.8331 51.9783 76.8129 52.0086C76.7969 52.0381 76.7742 52.0558 76.7447 52.0617C76.6984 52.0709 76.6361 52.0768 76.5579 52.0794C76.4838 52.0811 76.4081 52.0744 76.3306 52.0592C76.2532 52.0441 76.1829 52.021 76.1198 51.9899C76.06 51.9537 76.0242 51.9061 76.0124 51.8472C76.0082 51.8262 76.0069 51.8089 76.0086 51.7955C76.0095 51.7778 76.0099 51.758 76.0099 51.7361C76.0241 51.6107 76.059 51.5118 76.1146 51.4394C76.1693 51.3628 76.2303 51.2959 76.2976 51.2387C76.3683 51.1764 76.4389 51.1141 76.5096 51.0518C76.5845 50.9886 76.6451 50.9086 76.6914 50.8118C76.7418 50.7142 76.7738 50.5896 76.7872 50.4381C76.8006 50.2866 76.7833 50.091 76.7353 49.8511C76.6915 49.6323 76.6333 49.4185 76.5609 49.2098C76.4927 49.0003 76.4367 48.7861 76.3928 48.5673C76.3161 48.1625 76.2445 47.761 76.1779 47.3629C76.1155 46.964 76.046 46.5622 75.9693 46.1573L75.7771 45.1651C75.7561 45.0599 75.7274 44.9387 75.6912 44.8015C75.6592 44.6635 75.6116 44.5352 75.5484 44.4165C75.4886 44.2928 75.4099 44.1948 75.3123 44.1224C75.218 44.045 75.098 44.0143 74.9524 44.0304C74.8801 44.0405 74.7942 44.038 74.6949 44.0229C74.5956 44.0077 74.4984 43.9812 74.4032 43.9434C74.3115 43.9005 74.229 43.8492 74.1558 43.7894C74.0825 43.7297 74.0375 43.6578 74.0206 43.5736C74.0063 43.5021 74.0155 43.4389 74.0483 43.3842C74.0803 43.3253 74.1228 43.2752 74.1758 43.234C74.228 43.1885 74.2865 43.1527 74.3513 43.1266C74.4194 43.0954 74.483 43.074 74.5419 43.0622C74.6765 43.0352 74.812 43.0234 74.9484 43.0267C75.0839 43.0258 75.2211 43.0115 75.3599 42.9837C75.5325 42.9491 75.7033 42.9062 75.8725 42.8548C76.0458 42.8025 76.2167 42.7486 76.385 42.693C76.5525 42.6332 76.7208 42.5777 76.8899 42.5263C77.0633 42.474 77.2383 42.4302 77.4151 42.3948C77.5623 42.3653 77.7109 42.3422 77.8607 42.3253C78.0097 42.3042 78.1586 42.2831 78.3076 42.262C78.3396 42.2907 78.3892 42.3092 78.4566 42.3176C78.5239 42.326 78.595 42.3314 78.6699 42.3339C78.7491 42.3356 78.8256 42.3356 78.8997 42.3338C78.9729 42.3279 79.0293 42.3254 79.0689 42.3262C79.1741 42.327 79.265 42.3329 79.3416 42.3438C79.4215 42.3497 79.491 42.3686 79.5499 42.4006C79.6122 42.4275 79.6686 42.4687 79.7191 42.5243C79.7738 42.579 79.8281 42.6534 79.882 42.7477C79.8887 42.7595 79.9115 42.7746 79.9502 42.7931C79.9931 42.8108 80.0403 42.8276 80.0916 42.8436C80.1429 42.8595 80.1922 42.8759 80.2393 42.8928C80.2865 42.9096 80.3201 42.9247 80.3403 42.9382C80.406 42.9819 80.4775 43.0551 80.555 43.1578C80.6358 43.2554 80.712 43.3627 80.7836 43.4797C80.8552 43.5966 80.9179 43.7132 80.9718 43.8293C81.0257 43.9455 81.0602 44.0414 81.0754 44.1171C81.1066 44.2728 81.1146 44.4332 81.0995 44.5981C81.0886 44.7622 81.0748 44.9226 81.058 45.0791C81.0462 45.1734 81.0189 45.2664 80.976 45.3582C80.9373 45.4491 80.899 45.5421 80.8612 45.6372C80.8225 45.7281 80.7905 45.8198 80.7653 45.9124C80.7443 46.0042 80.743 46.0963 80.7616 46.1889C80.7877 46.3194 80.8412 46.4443 80.922 46.5638C81.0028 46.6833 81.09 46.7906 81.1834 46.8857C81.223 46.9303 81.2663 46.9719 81.3135 47.0106C81.3648 47.0485 81.4141 47.0868 81.4612 47.1255C81.5117 47.1591 81.5589 47.1978 81.6027 47.2416C81.6456 47.2811 81.6856 47.3278 81.7226 47.3817C81.8043 47.5054 81.8683 47.6392 81.9146 47.7831C81.9601 47.9228 81.9972 48.0642 82.0258 48.2073ZM80.0605 44.5896C80.0512 44.5433 80.034 44.4898 80.0087 44.4292C79.9834 44.3687 79.9561 44.3085 79.9266 44.2487C79.8963 44.1848 79.8664 44.1229 79.8369 44.0632C79.8066 43.9992 79.7822 43.9428 79.7636 43.894C79.7384 43.8334 79.7093 43.7867 79.6765 43.7539C79.6428 43.7169 79.6066 43.6891 79.5679 43.6706C79.5283 43.6479 79.485 43.6281 79.4378 43.6113C79.3899 43.5903 79.341 43.5651 79.2914 43.5356C79.1676 43.4641 79.0519 43.4107 78.9442 43.3754C78.8364 43.34 78.727 43.3182 78.6159 43.3098C78.5048 43.3014 78.3895 43.3048 78.27 43.32C78.1496 43.331 78.0179 43.3508 77.8749 43.3794C77.7823 43.398 77.6859 43.4195 77.5858 43.4439C77.4898 43.4675 77.404 43.4978 77.3283 43.5349C77.3131 43.5466 77.3047 43.5593 77.303 43.5727C77.3013 43.5862 77.2933 43.6009 77.279 43.6169C77.2689 43.6321 77.2462 43.6498 77.2109 43.67C77.1747 43.686 77.1166 43.702 77.0367 43.718C76.9146 43.7424 76.817 43.7795 76.7438 43.8292C76.6748 43.878 76.6235 43.9386 76.5898 44.011C76.5596 44.0783 76.5449 44.1579 76.5457 44.2496C76.5457 44.3371 76.5546 44.436 76.5723 44.5463C76.5959 44.686 76.6204 44.8299 76.6456 44.978C76.6751 45.1253 76.6983 45.2739 76.7152 45.4237C76.7312 45.5693 76.7363 45.7149 76.7305 45.8605C76.7288 46.0052 76.7074 46.1496 76.6662 46.2935C76.9136 46.3052 77.1628 46.3035 77.4136 46.2883C77.6644 46.273 77.9076 46.2418 78.1432 46.1946C78.3074 46.1618 78.4702 46.1226 78.6318 46.0771C78.7976 46.0308 78.9575 45.9769 79.1115 45.9154C79.1679 45.891 79.2411 45.8522 79.3311 45.7992C79.4254 45.7453 79.5137 45.6838 79.5962 45.6148C79.6829 45.5449 79.7556 45.4713 79.8145 45.3938C79.8776 45.3155 79.9066 45.2419 79.9016 45.1729C79.8999 45.1207 79.9074 45.071 79.9243 45.0239C79.9453 44.9759 79.9667 44.93 79.9886 44.8863C80.0139 44.8374 80.0349 44.7895 80.0517 44.7423C80.0685 44.6952 80.0715 44.6443 80.0605 44.5896ZM81.1132 48.7642C81.0913 48.6548 81.0547 48.5484 81.0033 48.4449C80.9561 48.3405 80.9132 48.2353 80.8744 48.1293C80.8416 48.0308 80.813 47.9534 80.7885 47.897C80.7683 47.8398 80.7414 47.7927 80.7077 47.7556C80.6774 47.7136 80.637 47.6757 80.5865 47.6421C80.536 47.6084 80.464 47.5659 80.3706 47.5146C80.331 47.4262 80.2969 47.3762 80.2683 47.3644C80.2439 47.3518 80.219 47.348 80.1938 47.353C80.1727 47.3573 80.15 47.364 80.1256 47.3733C80.1046 47.3775 80.0835 47.3817 80.0625 47.3859L79.9387 47.2269C79.8478 47.1882 79.7679 47.1604 79.6988 47.1436C79.634 47.126 79.5524 47.1226 79.4539 47.1336C79.3681 47.142 79.2805 47.142 79.1913 47.1336C79.1063 47.1244 79.0196 47.1286 78.9313 47.1463C78.8934 47.1539 78.8669 47.1745 78.8517 47.2082C78.8366 47.2419 78.8227 47.26 78.8101 47.2625C78.7849 47.2676 78.7546 47.2693 78.7192 47.2676C78.683 47.2617 78.6451 47.2583 78.6056 47.2575C78.5652 47.2525 78.5231 47.25 78.4793 47.25C78.4389 47.2449 78.4019 47.2458 78.3682 47.2525C78.1789 47.2905 77.9979 47.3486 77.8254 47.4269C77.6563 47.5002 77.4859 47.5781 77.3142 47.6606C77.2982 47.7557 77.2839 47.8592 77.2713 47.9712C77.263 48.0823 77.2571 48.195 77.2538 48.3095C77.2504 48.424 77.2513 48.5376 77.2564 48.6504C77.2606 48.7589 77.272 48.8595 77.2905 48.9521C77.2998 48.9984 77.3116 49.0354 77.3259 49.0632C77.3394 49.0867 77.3545 49.1078 77.3714 49.1263C77.3882 49.1448 77.403 49.1637 77.4156 49.1831C77.4282 49.2024 77.4375 49.2268 77.4434 49.2563C77.4771 49.4246 77.4914 49.5946 77.4864 49.7663C77.4848 49.933 77.5008 50.1004 77.5345 50.2688C77.5564 50.3782 77.5922 50.4804 77.6419 50.5755C77.6916 50.6706 77.7606 50.7531 77.849 50.8229C77.9332 50.806 78.0165 50.8069 78.099 50.8254C78.1806 50.8396 78.2635 50.8384 78.3477 50.8215C78.4066 50.8097 78.4605 50.7836 78.5093 50.7432C78.5623 50.7019 78.6056 50.6779 78.6393 50.6712C78.673 50.6645 78.7012 50.6741 78.7239 50.7002C78.7508 50.7255 78.7874 50.7334 78.8337 50.7242L78.859 50.7191C78.8674 50.6955 78.8872 50.6741 78.9183 50.6547C78.9486 50.6311 78.9844 50.613 79.0256 50.6004C79.0702 50.5827 79.1177 50.5688 79.1682 50.5587C79.2179 50.5444 79.2659 50.5326 79.3121 50.5233C79.4005 50.5056 79.4683 50.4942 79.5154 50.4892C79.5667 50.4833 79.624 50.474 79.6871 50.4614C79.8562 50.3881 80.0153 50.3081 80.1642 50.2214C80.2896 50.1481 80.4146 50.0618 80.5391 49.9625C80.6679 49.8623 80.7625 49.7558 80.8231 49.643C80.8567 49.5925 80.8925 49.5306 80.9303 49.4574C80.9724 49.3833 81.0077 49.3084 81.0363 49.2326C81.0683 49.1518 81.0918 49.0727 81.107 48.9953C81.1255 48.9128 81.1275 48.8358 81.1132 48.7642ZM89.5668 44.6224C89.5837 44.7066 89.5812 44.7815 89.5593 44.8471C89.5374 44.9128 89.5109 44.9772 89.4798 45.0403C89.4521 45.0984 89.4226 45.159 89.3915 45.2221C89.3646 45.2844 89.3524 45.3547 89.3549 45.433C89.3137 45.4237 89.2716 45.4212 89.2287 45.4254C89.19 45.4288 89.1496 45.4347 89.1075 45.4431C89.0065 45.4634 88.9072 45.492 88.8096 45.5291C88.7153 45.5611 88.6198 45.5868 88.523 45.6062C88.4094 45.6289 88.308 45.6142 88.2188 45.562C88.1329 45.5048 88.0567 45.4304 87.9902 45.3387C87.9279 45.2461 87.8769 45.1447 87.8374 45.0344C87.7969 44.92 87.7674 44.8165 87.7489 44.7239C87.7253 44.6061 87.7202 44.4824 87.7337 44.3527C87.6975 44.3469 87.6668 44.3464 87.6415 44.3515C87.5868 44.3625 87.5502 44.3873 87.5317 44.426C87.5174 44.4639 87.4892 44.487 87.4471 44.4955C87.4093 44.5031 87.3731 44.4972 87.3385 44.4778C87.3032 44.4543 87.2645 44.4467 87.2224 44.4551C87.1593 44.4678 87.0835 44.5048 86.9952 44.5663C86.9102 44.6227 86.8298 44.6913 86.7541 44.7721C86.6784 44.8529 86.6144 44.938 86.5623 45.0272C86.5135 45.1114 86.4958 45.1871 86.5093 45.2545C86.4226 45.2806 86.3435 45.3227 86.272 45.3808C86.2038 45.4338 86.1386 45.4906 86.0764 45.5512C86.0284 45.5959 85.9927 45.6577 85.9691 45.7369C85.9456 45.816 85.9254 45.901 85.9086 45.9919C85.8951 46.0777 85.88 46.1661 85.8632 46.257C85.8506 46.3471 85.8287 46.4237 85.7976 46.4868C85.7446 46.5937 85.7005 46.701 85.6651 46.8088C85.6332 46.9114 85.629 47.0217 85.6526 47.1395C85.6821 47.2868 85.7352 47.4316 85.8118 47.5738C85.8884 47.716 85.9423 47.8649 85.9735 48.0206C85.9937 48.1216 86.0055 48.2243 86.0089 48.3287C86.0165 48.4322 86.03 48.5323 86.0494 48.6291C86.073 48.747 86.113 48.8374 86.1694 48.9005C86.2258 48.9636 86.294 49.0091 86.374 49.0368C86.4531 49.0604 86.5402 49.0692 86.6353 49.0633C86.7304 49.0573 86.8263 49.0447 86.9231 49.0253C87.0283 49.0042 87.1289 48.9819 87.2248 48.9583C87.3241 48.9297 87.4159 48.9069 87.5 48.8901C87.5362 48.9178 87.5594 48.946 87.5695 48.9746C87.5796 49.0033 87.5838 49.0352 87.5821 49.0706C87.5838 49.1009 87.5817 49.1341 87.5759 49.1703C87.5733 49.2015 87.5763 49.2381 87.5847 49.2802C87.5881 49.297 87.5965 49.3172 87.61 49.3407C87.6731 49.3281 87.7249 49.3024 87.7652 49.2637C87.8056 49.225 87.83 49.1719 87.8384 49.1046C87.8696 49.1071 87.8973 49.1147 87.9218 49.1273C87.9504 49.1391 87.9681 49.1618 87.9748 49.1955C87.9799 49.2207 87.9786 49.2472 87.971 49.275C87.9626 49.2986 87.9521 49.3226 87.9395 49.347C87.9269 49.3714 87.9168 49.3975 87.9092 49.4253C87.9008 49.4488 87.8995 49.4753 87.9054 49.5048C87.9088 49.5216 87.9147 49.5401 87.9231 49.5603C87.9307 49.5763 87.94 49.5898 87.9509 49.6007C87.9366 49.6386 87.9118 49.6676 87.8765 49.6879C87.8411 49.7081 87.8045 49.722 87.7666 49.7295C87.6993 49.743 87.6404 49.7439 87.5899 49.7321C87.5436 49.7195 87.499 49.7044 87.4561 49.6867C87.4173 49.6682 87.3811 49.6514 87.3475 49.6362C87.3138 49.6211 87.2759 49.6177 87.2338 49.6262C87.217 49.6295 87.1926 49.6388 87.1606 49.654C87.1287 49.6691 87.0971 49.6864 87.066 49.7057C87.0348 49.7251 87.0087 49.7478 86.9877 49.7739C86.9658 49.7958 86.9566 49.8152 86.9599 49.832C86.9667 49.8657 86.9831 49.893 87.0092 49.9141C87.0395 49.9343 87.058 49.9612 87.0648 49.9948C87.0707 50.0243 87.0648 50.0495 87.0471 50.0706C87.0294 50.0916 87.0063 50.1072 86.9777 50.1173C86.9499 50.1316 86.9192 50.1422 86.8855 50.1489C86.8569 50.159 86.8321 50.1662 86.8111 50.1704C86.647 50.2033 86.479 50.2172 86.3074 50.2122C86.1407 50.2105 85.9753 50.2262 85.8112 50.259C85.7355 50.2742 85.6631 50.3062 85.5941 50.355C85.5251 50.4039 85.4485 50.4367 85.3644 50.4536C85.3181 50.4628 85.2802 50.4595 85.2507 50.4435C85.2263 50.4309 85.2032 50.4136 85.1813 50.3917C85.1594 50.3699 85.1358 50.3505 85.1106 50.3337C85.0862 50.3211 85.0529 50.319 85.0108 50.3274C84.9309 50.3434 84.8526 50.3678 84.776 50.4007C84.7037 50.4327 84.6292 50.4651 84.5526 50.498C84.4811 50.5342 84.4066 50.5666 84.3292 50.5952C84.2568 50.6272 84.1806 50.6512 84.1007 50.6672C84.0586 50.6757 84.0069 50.6795 83.9454 50.6786C83.8848 50.682 83.8246 50.6766 83.7649 50.6623C83.7051 50.648 83.6525 50.6257 83.6071 50.5954C83.5616 50.5651 83.5334 50.5226 83.5224 50.4679C83.5157 50.4343 83.5258 50.3863 83.5527 50.324C83.5838 50.2609 83.6196 50.199 83.66 50.1384C83.6995 50.0736 83.7407 50.0172 83.7836 49.9692C83.8265 49.9212 83.8606 49.8947 83.8859 49.8896C83.9532 49.8761 84.0188 49.8652 84.0828 49.8568C84.151 49.8475 84.2208 49.8357 84.2924 49.8213C84.406 49.7986 84.5162 49.759 84.6231 49.7026C84.7333 49.6411 84.828 49.5675 84.9071 49.4816C84.9904 49.3949 85.0514 49.2951 85.0901 49.1823C85.1288 49.0695 85.1355 48.95 85.1102 48.8238C85.0992 48.7691 85.0845 48.7173 85.066 48.6685C85.0466 48.6155 85.0314 48.5616 85.0205 48.5069C84.9986 48.3975 84.9893 48.2856 84.9926 48.1711C84.9959 48.0567 84.9866 47.9447 84.9647 47.8353C84.9352 47.688 84.8885 47.542 84.8245 47.3973C84.7639 47.2475 84.7179 47.0947 84.6868 46.9391C84.659 46.8002 84.6337 46.663 84.6109 46.5275C84.5915 46.387 84.5679 46.2473 84.5401 46.1084C84.5275 46.0453 84.5068 45.9531 84.4782 45.8319C84.4495 45.7107 84.4104 45.5917 84.3607 45.4747C84.3152 45.3569 84.2579 45.2567 84.1889 45.1743C84.1241 45.091 84.0496 45.0577 83.9654 45.0746C83.8728 45.0931 83.7824 45.1222 83.694 45.1618C83.6056 45.2013 83.5131 45.2308 83.4163 45.2502C83.3448 45.2645 83.2597 45.2772 83.1613 45.2882C83.062 45.2949 82.9652 45.2924 82.8709 45.2807C82.7758 45.2647 82.6908 45.2336 82.6159 45.1873C82.541 45.141 82.4938 45.0695 82.4744 44.9727C82.4534 44.8675 82.4512 44.7804 82.468 44.7114C82.484 44.6382 82.5118 44.5801 82.5513 44.5371C82.5951 44.4934 82.6472 44.4589 82.7078 44.4336C82.7726 44.4075 82.8429 44.3868 82.9186 44.3717C82.986 44.3582 83.0558 44.3464 83.1282 44.3363C83.2006 44.3261 83.2704 44.3143 83.3378 44.3009C83.4724 44.2739 83.6037 44.241 83.7316 44.2023C83.8629 44.1585 83.9959 44.1231 84.1305 44.0961C84.2231 44.0776 84.3165 44.0633 84.4108 44.0531C84.5051 44.043 84.5993 44.0438 84.6936 44.0556C84.7786 44.0648 84.8472 44.1014 84.8994 44.1654C84.9507 44.2251 84.9983 44.2878 85.0421 44.3534C85.0901 44.4182 85.141 44.4759 85.1949 44.5264C85.2479 44.5726 85.3207 44.5865 85.4133 44.568C85.4554 44.5595 85.4912 44.5414 85.5206 44.5136C85.5534 44.4808 85.5837 44.4463 85.6115 44.4101C85.6392 44.3739 85.6674 44.3398 85.696 44.3078C85.7246 44.2758 85.7613 44.251 85.8059 44.2333C85.8959 44.2021 85.9742 44.1558 86.0406 44.0944C86.1113 44.0321 86.1799 43.9702 86.2464 43.9087C86.3128 43.8473 86.3802 43.79 86.4483 43.737C86.5207 43.6831 86.6032 43.6469 86.6957 43.6284C86.7504 43.6174 86.8165 43.5976 86.8939 43.569C86.9756 43.5395 87.0542 43.5062 87.13 43.4692C87.2091 43.4271 87.281 43.382 87.3458 43.334C87.4148 43.2852 87.4662 43.2355 87.4998 43.185C87.6151 43.1707 87.7531 43.1715 87.9139 43.1874C88.0789 43.2025 88.2388 43.2362 88.3937 43.2883C88.5519 43.3354 88.6941 43.401 88.8204 43.4851C88.9467 43.5693 89.0313 43.6749 89.0743 43.802C89.1029 43.8794 89.1412 43.9505 89.1892 44.0153C89.2372 44.0801 89.2852 44.1449 89.3332 44.2097C89.3845 44.2694 89.4325 44.3342 89.4771 44.404C89.5209 44.4697 89.5508 44.5425 89.5668 44.6224ZM97.6913 46.639C97.7056 46.7105 97.7065 46.7804 97.6939 46.8485C97.6813 46.9167 97.6712 46.9866 97.6636 47.0581C97.6586 47.1204 97.6556 47.1713 97.6548 47.2109C97.6582 47.2496 97.6565 47.2849 97.6498 47.3169C97.6422 47.3447 97.6262 47.3742 97.6018 47.4053C97.5808 47.4314 97.5438 47.4651 97.4908 47.5063C97.378 47.5989 97.2573 47.6953 97.1285 47.7955C97.0031 47.8907 96.8689 47.9526 96.7258 47.9812C96.6038 48.0057 96.4826 48.0015 96.3623 47.9687C96.2453 47.9308 96.1337 47.8875 96.0277 47.8387C95.925 47.7849 95.8299 47.7361 95.7423 47.6924C95.659 47.6478 95.5921 47.6306 95.5416 47.6407C95.4869 47.6516 95.4414 47.676 95.4052 47.7139C95.3733 47.751 95.3396 47.7905 95.3043 47.8326C95.2731 47.8739 95.2353 47.9143 95.1907 47.9538C95.1503 47.9926 95.0943 48.0191 95.0228 48.0334C94.9639 48.0452 94.905 48.068 94.8461 48.1016C94.7872 48.1353 94.7291 48.1732 94.6719 48.2153C94.6138 48.2532 94.5541 48.2936 94.4927 48.3366C94.4346 48.3744 94.3799 48.4073 94.3286 48.4351C94.1493 48.5235 93.9637 48.5913 93.7719 48.6385C93.5842 48.6848 93.3936 48.7274 93.2 48.7661C93.1495 48.7762 93.0712 48.7897 92.9652 48.8066C92.86 48.8277 92.7506 48.8386 92.637 48.8395C92.5284 48.8437 92.4278 48.8332 92.3352 48.808C92.2469 48.7819 92.1951 48.731 92.1799 48.6553C92.1765 48.6385 92.1757 48.6233 92.1774 48.6098C92.1547 48.6494 92.1265 48.6835 92.0928 48.7121C92.0592 48.7408 92.0192 48.7597 91.9729 48.769C91.9056 48.7825 91.8142 48.7526 91.6989 48.6794C91.5836 48.6062 91.4695 48.5175 91.3567 48.4131C91.2439 48.3088 91.1442 48.204 91.0574 48.0988C90.9699 47.9895 90.9202 47.9053 90.9084 47.8464C90.8991 47.8001 90.9033 47.7555 90.921 47.7126C90.9429 47.6688 90.9492 47.6238 90.9399 47.5775C90.9281 47.5186 90.9087 47.4656 90.8818 47.4184C90.8582 47.3663 90.8405 47.3107 90.8287 47.2518C90.8135 47.1761 90.8123 47.0932 90.8249 47.0031C90.8366 46.9088 90.8551 46.8154 90.8803 46.7228C90.9047 46.626 90.932 46.533 90.9623 46.4438C90.9918 46.3504 91.0182 46.2641 91.0418 46.185C91.067 46.0924 91.1124 46.0132 91.1781 45.9476C91.2437 45.8819 91.3148 45.8217 91.3914 45.767C91.468 45.7123 91.5445 45.6575 91.6211 45.6028C91.6977 45.5481 91.7612 45.4828 91.8117 45.4071C91.8891 45.466 91.9783 45.4853 92.0793 45.4651C92.1845 45.444 92.2847 45.4086 92.3798 45.359C92.474 45.3051 92.5738 45.2676 92.679 45.2465C92.7631 45.2297 92.8447 45.2221 92.9239 45.2237C93.0072 45.2246 93.0909 45.2165 93.1751 45.1997C93.2677 45.1811 93.3329 45.1571 93.3707 45.1277C93.412 45.0932 93.4604 45.0397 93.5159 44.9673C93.5714 44.8949 93.6467 44.8339 93.7418 44.7842C93.8403 44.7295 93.9425 44.6827 94.0486 44.644C94.158 44.6002 94.2653 44.5568 94.3705 44.5139C94.4799 44.4701 94.5749 44.4204 94.6557 44.3648C94.7357 44.305 94.7963 44.236 94.8375 44.1577C94.8778 44.0752 94.8858 43.973 94.8614 43.8509C94.8344 43.7163 94.7662 43.5833 94.6568 43.4521C94.5507 43.3157 94.4244 43.1988 94.2779 43.1012C94.1306 42.9994 93.9753 42.9233 93.812 42.8728C93.6487 42.8224 93.4998 42.8106 93.3651 42.8376C93.3483 42.8409 93.3319 42.8464 93.3159 42.854C93.2999 42.8616 93.2856 42.8666 93.2729 42.8692C93.1753 42.9062 93.0642 42.9416 92.9397 42.9753C92.8143 43.0048 92.7003 43.0473 92.5976 43.1029C92.4941 43.1543 92.412 43.2254 92.3515 43.3163C92.2901 43.403 92.2737 43.5179 92.3023 43.661C92.3192 43.7451 92.3423 43.828 92.3718 43.9097C92.4047 43.9862 92.4295 44.0666 92.4464 44.1508C92.4717 44.277 92.4612 44.3885 92.4149 44.4853C92.3728 44.5813 92.3085 44.6642 92.2218 44.7341C92.1393 44.8031 92.0434 44.8595 91.934 44.9033C91.8238 44.9429 91.716 44.9732 91.6108 44.9943C91.4846 45.0196 91.3718 45.0247 91.2725 45.0096C91.1732 44.9944 91.0819 44.9318 90.9985 44.8215C90.9345 44.7424 90.8651 44.6579 90.7901 44.5678C90.7186 44.4727 90.6723 44.3726 90.6512 44.2674C90.6284 44.1538 90.6263 44.0448 90.6448 43.9404C90.6666 43.831 90.6935 43.7249 90.7255 43.6223C90.7566 43.5154 90.786 43.411 90.8138 43.3091C90.8449 43.2022 90.86 43.092 90.8592 42.9784C90.8852 42.9556 90.9218 42.9308 90.969 42.9038C91.0203 42.8761 91.0737 42.8479 91.1293 42.8192C91.189 42.7897 91.245 42.7632 91.2972 42.7396C91.3527 42.711 91.3981 42.6866 91.4335 42.6664C91.5286 42.6167 91.6186 42.5637 91.7036 42.5072C91.792 42.4458 91.8812 42.3885 91.9712 42.3355C92.0655 42.2816 92.1584 42.2323 92.2502 42.1877C92.3461 42.1422 92.4463 42.1069 92.5506 42.0816L92.745 42.0361C92.926 41.9998 93.1145 41.9796 93.3106 41.9753C93.5058 41.9669 93.7007 41.9782 93.8951 42.0093C94.0895 42.0404 94.2768 42.0904 94.4569 42.1593C94.6404 42.2233 94.8088 42.3099 94.962 42.4193C95.0748 42.5017 95.1746 42.6065 95.2613 42.7336C95.3514 42.8556 95.4284 42.989 95.4924 43.1337C95.5606 43.2776 95.6166 43.4261 95.6604 43.5793C95.7076 43.7274 95.7443 43.8667 95.7704 43.9971C95.8058 44.1739 95.8344 44.3498 95.8564 44.5248C95.8817 44.6948 95.912 44.8682 95.9474 45.0449C95.9811 45.2133 96.0232 45.3799 96.0738 45.5448C96.1277 45.7047 96.1841 45.8663 96.2431 46.0296C96.3012 46.1886 96.3555 46.3506 96.4061 46.5156C96.46 46.6755 96.5034 46.8375 96.5362 47.0016C96.5649 47.1009 96.5901 47.1615 96.612 47.1834C96.6373 47.2002 96.6604 47.2065 96.6815 47.2023C96.774 47.1838 96.8422 47.1417 96.8859 47.076C96.9331 47.0053 96.973 46.9316 97.0058 46.855C97.0378 46.7742 97.0752 46.6989 97.1181 46.629C97.161 46.5592 97.2246 46.5158 97.3087 46.4989C97.3466 46.4914 97.3849 46.4859 97.4236 46.4825C97.4665 46.4783 97.5065 46.4812 97.5435 46.4913C97.5797 46.4972 97.6113 46.5127 97.6382 46.538C97.6643 46.559 97.682 46.5927 97.6913 46.639ZM95.2999 45.4832C95.2948 45.4579 95.2839 45.4142 95.267 45.3519C95.2544 45.2888 95.2375 45.2265 95.2165 45.1651C95.1946 45.0994 95.168 45.0435 95.1369 44.9972C95.1099 44.9501 95.0775 44.9303 95.0397 44.9379C95.0313 44.9396 95.0216 44.9459 95.0106 44.9568C94.9989 44.9635 94.9888 44.9678 94.9803 44.9694C94.8381 45.0898 94.7161 45.1909 94.6143 45.2725C94.5116 45.35 94.4073 45.419 94.3013 45.4797C94.1986 45.5352 94.0854 45.582 93.9617 45.6199C93.838 45.6578 93.6815 45.6957 93.4921 45.7336C93.4669 45.7387 93.3995 45.7631 93.2901 45.8069C93.1807 45.8507 93.0616 45.9008 92.9329 45.9572C92.8033 46.0094 92.6825 46.0621 92.5706 46.1151C92.4578 46.164 92.3876 46.1956 92.3598 46.2099C92.3093 46.2419 92.2735 46.2709 92.2525 46.297C92.2357 46.3223 92.2235 46.3488 92.2159 46.3765C92.2084 46.4043 92.2012 46.4342 92.1945 46.4662C92.1869 46.494 92.1693 46.526 92.1415 46.5622C92.1061 46.6042 92.0653 46.6409 92.0191 46.672C91.977 46.7023 91.9391 46.7427 91.9055 46.7932C91.855 46.869 91.8129 46.965 91.7793 47.0811C91.7448 47.1931 91.7368 47.2953 91.7554 47.3879C91.7781 47.5015 91.8278 47.5966 91.9044 47.6732C91.981 47.7497 92.0741 47.8099 92.1835 47.8536C92.2929 47.8974 92.4133 47.9302 92.5446 47.952C92.6759 47.9739 92.8051 47.9852 92.9322 47.986C93.0635 47.986 93.1872 47.9809 93.3033 47.9708C93.4237 47.9598 93.5259 47.9459 93.6101 47.929C93.7111 47.9088 93.8297 47.8785 93.9661 47.838C94.1016 47.7934 94.2358 47.7424 94.3688 47.6852C94.5009 47.6237 94.6225 47.5534 94.7336 47.4742C94.8446 47.3951 94.9275 47.3063 94.9822 47.2078C95.0049 47.1682 95.02 47.1346 95.0276 47.1068C95.0343 47.0748 95.0415 47.0449 95.049 47.0171C95.06 46.9843 95.0709 46.9515 95.0818 46.9187C95.097 46.885 95.1222 46.8471 95.1576 46.805C95.2383 46.7057 95.2943 46.6026 95.3254 46.4957C95.3607 46.3879 95.3805 46.2789 95.3846 46.1687C95.3888 46.0584 95.3816 45.9461 95.3631 45.8316C95.3445 45.7171 95.3235 45.601 95.2999 45.4832ZM103.8 44.5556C103.811 44.6103 103.811 44.6671 103.801 44.726C103.794 44.7799 103.784 44.8367 103.77 44.8964C103.754 44.952 103.739 45.0076 103.724 45.0631C103.713 45.1178 103.709 45.1734 103.712 45.2298C103.713 45.3476 103.69 45.4595 103.641 45.5656C103.596 45.6666 103.539 45.7655 103.471 45.8623C103.402 45.9591 103.33 46.0547 103.252 46.1489C103.174 46.239 103.107 46.3291 103.05 46.4192C103 46.4949 102.939 46.54 102.867 46.5543C102.825 46.5627 102.784 46.5665 102.745 46.5657C102.705 46.5649 102.665 46.5687 102.622 46.5771C102.564 46.5889 102.517 46.6091 102.484 46.6377C102.454 46.6655 102.425 46.6954 102.396 46.7274C102.371 46.7543 102.338 46.7829 102.296 46.8132C102.258 46.8427 102.201 46.865 102.125 46.8802C102.07 46.8912 102.021 46.9164 101.976 46.956C101.932 46.9956 101.884 47.0204 101.834 47.0305C101.762 47.0448 101.674 47.0407 101.568 47.018C101.467 46.9944 101.36 46.994 101.246 47.0168C101.175 47.0311 101.104 47.0496 101.034 47.0724C100.964 47.0909 100.893 47.1073 100.821 47.1217C100.758 47.1343 100.693 47.1385 100.627 47.1343C100.564 47.1251 100.5 47.1159 100.437 47.1066C100.377 47.0923 100.316 47.0827 100.254 47.0776C100.191 47.0684 100.128 47.0701 100.065 47.0827C99.9386 47.108 99.8376 47.1611 99.7619 47.2419C99.6861 47.3227 99.6201 47.4081 99.5637 47.4982C99.5124 47.5917 99.4573 47.6771 99.3984 47.7545C99.3437 47.8311 99.2722 47.8783 99.1838 47.896C99.1039 47.912 99.0462 47.9082 99.0109 47.8847C98.9806 47.8645 98.9574 47.8363 98.9414 47.8001C98.9296 47.7631 98.917 47.7218 98.9035 47.6764C98.8909 47.6352 98.8644 47.6011 98.8239 47.5742C98.7473 47.5195 98.693 47.4669 98.6611 47.4164C98.6282 47.3617 98.6025 47.2881 98.584 47.1955C98.5435 46.9935 98.5212 46.7945 98.5169 46.5984C98.516 46.3972 98.4953 46.1956 98.4549 45.9937C98.4406 45.9221 98.4182 45.8544 98.3879 45.7904C98.3576 45.7265 98.3244 45.6697 98.2882 45.62C98.2562 45.5695 98.228 45.527 98.2035 45.4925C98.1791 45.458 98.1652 45.4324 98.1619 45.4155C98.1543 45.3777 98.1568 45.3356 98.1694 45.2893C98.182 45.243 98.1976 45.2005 98.2161 45.1618C98.2379 45.118 98.2615 45.0826 98.2867 45.0557C98.3154 45.0237 98.3402 45.0056 98.3612 45.0014C98.4033 44.993 98.4412 44.9963 98.4748 45.0115C98.5127 45.0258 98.5489 45.0426 98.5834 45.0619C98.6213 45.0762 98.6571 45.0909 98.6907 45.1061C98.7286 45.1204 98.7707 45.1229 98.817 45.1136C98.8254 45.1119 98.8317 45.1107 98.8359 45.1098C98.8393 45.1048 98.8452 45.1014 98.8536 45.0997C98.9319 45.1847 98.9993 45.2806 99.0557 45.3875C99.1112 45.4902 99.1668 45.5928 99.2224 45.6955C99.2813 45.7931 99.3462 45.8874 99.4169 45.9783C99.491 46.0641 99.584 46.1352 99.6959 46.1915C99.7254 46.2075 99.7595 46.2248 99.7982 46.2433C99.8369 46.2618 99.8757 46.2803 99.9144 46.2988C99.9573 46.3165 99.9973 46.3303 100.034 46.3404C100.076 46.3497 100.111 46.3513 100.14 46.3454C100.187 46.3362 100.23 46.3231 100.27 46.3063C100.315 46.2886 100.36 46.2751 100.407 46.2658C100.47 46.2532 100.506 46.2679 100.514 46.31C100.516 46.3184 100.515 46.3361 100.512 46.363L100.587 46.3478L100.631 46.339C100.791 46.307 100.947 46.256 101.1 46.1861C101.252 46.1162 101.41 46.0648 101.574 46.032C101.65 46.0168 101.728 46.0101 101.807 46.0117C101.889 46.0083 101.967 46.0235 102.039 46.0571C102.111 46.0032 102.169 45.9413 102.212 45.8715C102.255 45.8016 102.298 45.7338 102.342 45.6682C102.385 45.5983 102.436 45.5356 102.495 45.48C102.553 45.4203 102.634 45.3777 102.738 45.3525C102.754 45.323 102.759 45.2914 102.752 45.2578C102.75 45.2233 102.745 45.1913 102.739 45.1618C102.733 45.1282 102.729 45.0962 102.727 45.0659C102.729 45.0348 102.741 45.004 102.761 44.9737C102.795 44.9274 102.819 44.8832 102.833 44.8411C102.85 44.794 102.852 44.741 102.84 44.6821C102.818 44.5685 102.765 44.4696 102.682 44.3854C102.599 44.2971 102.499 44.223 102.382 44.1633C102.268 44.0985 102.14 44.0477 101.997 44.0107C101.857 43.9686 101.715 43.9379 101.571 43.9186C101.432 43.8985 101.299 43.8901 101.172 43.8935C101.045 43.8927 100.936 43.9015 100.843 43.9201C100.738 43.9411 100.635 43.9727 100.534 44.0148C100.436 44.0519 100.343 44.1033 100.256 44.1689C100.237 44.0764 100.204 44.0196 100.156 43.9985C100.108 43.9775 100.053 43.9666 99.992 43.9657C99.9306 43.9649 99.8662 43.9603 99.7989 43.9519C99.7349 43.9385 99.6781 43.8951 99.6284 43.8219C99.5754 43.9288 99.4984 44.0143 99.3975 44.0783C99.3007 44.1414 99.1976 44.1839 99.0882 44.2058C98.9788 44.2278 98.8736 44.2269 98.7726 44.2034C98.6716 44.1799 98.576 44.1399 98.486 44.0835C98.4001 44.0263 98.3248 43.9561 98.2599 43.8728C98.1993 43.7886 98.1564 43.6944 98.1311 43.59C98.1125 43.5193 98.0852 43.4592 98.049 43.4095C98.0128 43.3599 97.9749 43.3127 97.9353 43.2681C97.8957 43.2235 97.8579 43.1764 97.8217 43.1268C97.7897 43.0763 97.7661 43.0132 97.7509 42.9374C97.713 42.7481 97.6919 42.5991 97.6877 42.4905C97.6868 42.3769 97.6956 42.2898 97.7141 42.2292C97.7318 42.1644 97.7553 42.1181 97.7848 42.0903C97.8176 42.0575 97.8508 42.0267 97.8845 41.9981C97.9173 41.9653 97.9463 41.9245 97.9716 41.8756C97.9968 41.8268 98.0107 41.754 98.0132 41.6572C98.0131 41.5916 98.0237 41.5457 98.0447 41.5196C98.0657 41.4935 98.107 41.4699 98.1684 41.4489C98.2214 41.4295 98.2547 41.4097 98.2681 41.3895C98.2816 41.3693 98.2883 41.3483 98.2883 41.3264C98.2925 41.3037 98.2967 41.2809 98.3009 41.2582C98.3043 41.2313 98.3207 41.2039 98.3501 41.1761C98.4267 41.0995 98.5058 41.0465 98.5874 41.017C98.6724 40.9825 98.7612 40.9559 98.8538 40.9374C98.9085 40.9264 98.9615 40.918 99.0128 40.9121C99.0633 40.902 99.118 40.891 99.1769 40.8792C99.3537 40.8438 99.5245 40.8009 99.6895 40.7503C99.8544 40.6998 100.025 40.6568 100.202 40.6214C100.337 40.5945 100.462 40.5848 100.577 40.5923C100.696 40.5948 100.8 40.6044 100.891 40.6213C100.982 40.6381 101.06 40.6553 101.125 40.673C101.193 40.6856 101.246 40.6881 101.284 40.6805C101.355 40.6662 101.42 40.6401 101.478 40.6022C101.54 40.5592 101.606 40.5285 101.677 40.51C101.716 40.5327 101.759 40.5524 101.807 40.5693C101.857 40.581 101.905 40.5823 101.952 40.573C101.985 40.5663 102.009 40.5507 102.021 40.5263C102.034 40.5019 102.039 40.4724 102.036 40.4379C102.099 40.4429 102.161 40.461 102.224 40.4921C102.288 40.5233 102.346 40.5641 102.4 40.6145C102.457 40.66 102.505 40.7138 102.544 40.7761C102.582 40.8342 102.607 40.8927 102.618 40.9516C102.65 41.1073 102.668 41.2655 102.674 41.4262C102.683 41.5819 102.704 41.7376 102.735 41.8933C102.767 42.0532 102.818 42.1984 102.888 42.3288C102.838 42.3869 102.781 42.4421 102.717 42.4943C102.657 42.5414 102.61 42.6012 102.576 42.6736L102.568 42.6685C102.534 42.6492 102.49 42.6252 102.436 42.5966C102.385 42.5629 102.331 42.5322 102.273 42.5045C102.219 42.4759 102.166 42.4536 102.115 42.4376C102.063 42.4174 102.018 42.4111 101.98 42.4187L101.967 42.4212C101.944 42.4128 101.922 42.4019 101.902 42.3884C101.886 42.3741 101.875 42.3544 101.87 42.3291C101.862 42.287 101.867 42.2466 101.885 42.2079C101.904 42.1692 101.909 42.1288 101.9 42.0867C101.898 42.0741 101.873 42.0484 101.826 42.0097C101.779 41.971 101.725 41.9336 101.666 41.8974C101.609 41.8562 101.554 41.8213 101.5 41.7927C101.445 41.7598 101.407 41.7434 101.385 41.7434C101.341 41.7435 101.294 41.7376 101.244 41.7258C101.193 41.714 101.143 41.7023 101.092 41.6905C101.042 41.6787 100.994 41.6686 100.948 41.6602C100.907 41.651 100.874 41.6489 100.849 41.654C100.794 41.6649 100.741 41.6843 100.69 41.7121C100.637 41.7356 100.582 41.7554 100.524 41.7714L100.531 41.7702L100.24 41.7955C100.098 41.8065 99.9544 41.8002 99.8097 41.7767C99.6649 41.7532 99.521 41.7557 99.3779 41.7844C99.2517 41.8097 99.165 41.8577 99.1179 41.9284C99.0708 41.9991 99.0359 42.0761 99.0132 42.1594C98.9896 42.2385 98.9648 42.3113 98.9387 42.3778C98.9127 42.4443 98.8554 42.4864 98.7671 42.5041C98.7418 42.5092 98.7225 42.5109 98.709 42.5092C98.7781 42.6354 98.8387 42.7415 98.8909 42.8273C98.9473 42.9123 99.0083 42.9876 99.074 43.0532C99.1388 43.1146 99.2158 43.1714 99.3051 43.2236C99.3935 43.2715 99.5041 43.3216 99.6371 43.3737C99.6514 43.3796 99.6712 43.391 99.6965 43.4078C99.7259 43.4238 99.7558 43.4419 99.7861 43.4621C99.8156 43.4781 99.8425 43.4924 99.8669 43.505C99.8956 43.5168 99.9162 43.5214 99.9288 43.5188C100 43.5045 100.064 43.4742 100.121 43.4279C100.181 43.3808 100.247 43.35 100.319 43.3357C100.369 43.3256 100.418 43.3289 100.465 43.3458C100.516 43.3575 100.566 43.3583 100.617 43.3482C100.667 43.3381 100.714 43.32 100.757 43.2939C100.799 43.2636 100.847 43.243 100.902 43.232C100.923 43.2278 100.945 43.2257 100.966 43.2257C100.993 43.2248 101.017 43.2244 101.038 43.2244C101.171 43.2328 101.301 43.2243 101.427 43.1991C101.553 43.1696 101.681 43.1439 101.812 43.1219C101.905 43.1034 102.001 43.1017 102.1 43.1168C102.204 43.1311 102.305 43.1567 102.404 43.1937C102.503 43.2265 102.597 43.269 102.686 43.3212C102.775 43.3733 102.854 43.4297 102.923 43.4903C102.977 43.5408 103.034 43.5841 103.094 43.6203C103.154 43.6565 103.212 43.6952 103.268 43.7364C103.328 43.7726 103.382 43.8142 103.431 43.8613C103.48 43.9084 103.52 43.9661 103.551 44.0342C103.589 44.1142 103.635 44.2013 103.689 44.2955C103.747 44.3889 103.784 44.4756 103.8 44.5556ZM107.385 37.6073C107.409 37.7294 107.413 37.8598 107.397 37.9987C107.385 38.1325 107.352 38.2617 107.298 38.3863C107.243 38.5067 107.168 38.6136 107.073 38.707C106.981 38.7954 106.87 38.8527 106.74 38.8788C106.651 38.8965 106.54 38.9058 106.404 38.9067C106.268 38.9033 106.133 38.8886 106.001 38.8626C105.872 38.8315 105.755 38.7827 105.65 38.7162C105.549 38.6489 105.487 38.5585 105.465 38.4448C105.444 38.3438 105.434 38.2386 105.434 38.1292C105.438 38.0148 105.43 37.9024 105.413 37.7922C105.451 37.7627 105.485 37.7164 105.516 37.6533C105.547 37.5901 105.576 37.5274 105.603 37.4651C105.634 37.3978 105.663 37.3372 105.692 37.2833C105.724 37.2286 105.761 37.1949 105.803 37.1823L105.774 37.2012C105.827 37.1642 105.884 37.1309 105.944 37.1015C106.008 37.0711 106.074 37.0492 106.141 37.0358C106.229 37.0181 106.339 37.0201 106.47 37.042C106.605 37.0588 106.736 37.0916 106.864 37.1404C106.992 37.1891 107.106 37.2539 107.205 37.3347C107.305 37.4155 107.364 37.5063 107.385 37.6073ZM111.978 44.6772C111.992 44.7487 111.991 44.819 111.974 44.888C111.962 44.9562 111.935 45.0185 111.894 45.0749C111.857 45.1346 111.811 45.1856 111.753 45.2277C111.696 45.2697 111.63 45.2984 111.554 45.3135C111.525 45.3194 111.505 45.319 111.495 45.3123C111.485 45.3056 111.467 45.2938 111.442 45.277C111.37 45.2256 111.291 45.2021 111.204 45.2063C111.118 45.2148 111.028 45.2219 110.933 45.2279C110.843 45.2371 110.752 45.2313 110.66 45.2103C110.573 45.1926 110.494 45.1341 110.422 45.0348C110.374 44.97 110.328 44.9309 110.286 44.9175C110.244 44.904 110.183 44.9053 110.103 44.9213C109.918 44.9584 109.747 45.0232 109.591 45.1159C109.434 45.2085 109.282 45.3091 109.133 45.4177C108.983 45.5221 108.828 45.621 108.667 45.7145C108.51 45.8071 108.342 45.8716 108.161 45.9078C108.06 45.928 107.957 45.9377 107.851 45.9369C107.751 45.9395 107.651 45.929 107.55 45.9054C107.533 45.9307 107.511 45.9505 107.483 45.9648C107.459 45.9783 107.431 45.9884 107.397 45.9951C107.367 46.001 107.338 46.0048 107.307 46.0065C107.281 46.0073 107.258 46.0099 107.237 46.0141C107.232 46.0149 107.21 46.0259 107.171 46.0469C107.132 46.0722 107.109 46.0878 107.102 46.0937L107.152 46.1492C107.134 46.1921 107.085 46.2393 107.003 46.2906C106.922 46.3462 106.832 46.3971 106.732 46.4434C106.636 46.4889 106.541 46.5298 106.448 46.566C106.354 46.6022 106.282 46.6254 106.232 46.6355C106.097 46.6624 105.981 46.6616 105.883 46.633C105.791 46.6078 105.691 46.5489 105.585 46.4564C105.548 46.4202 105.501 46.3857 105.446 46.3529C105.396 46.3192 105.345 46.2856 105.295 46.2519C105.248 46.2132 105.204 46.1716 105.165 46.127C105.13 46.0815 105.106 46.0315 105.095 45.9768C105.083 45.9136 105.106 45.8543 105.165 45.7987C105.224 45.7432 105.297 45.6935 105.384 45.6497C105.471 45.6017 105.56 45.5642 105.651 45.5373C105.741 45.5061 105.811 45.4855 105.862 45.4754C105.963 45.4551 106.067 45.4496 106.173 45.4589C106.279 45.4639 106.383 45.4563 106.484 45.4361C106.577 45.4175 106.662 45.3872 106.742 45.3451C106.821 45.303 106.906 45.2727 106.999 45.2541C107.079 45.2381 107.158 45.2289 107.236 45.2263C107.318 45.2187 107.399 45.2069 107.479 45.1909C107.58 45.1707 107.673 45.1345 107.759 45.0822C107.848 45.025 107.929 44.9585 108.001 44.8827C107.994 44.6698 107.976 44.459 107.947 44.2502C107.922 44.0407 107.889 43.8307 107.847 43.6203C107.806 43.4141 107.748 43.2113 107.673 43.0118C107.598 42.8124 107.54 42.6117 107.499 42.4097C107.496 42.3929 107.499 42.3836 107.507 42.3819C107.515 42.376 107.523 42.3722 107.531 42.3705C107.543 42.3638 107.552 42.3575 107.56 42.3516C107.567 42.3415 107.568 42.3238 107.563 42.2986C107.545 42.2102 107.515 42.1265 107.473 42.0474C107.431 41.9683 107.401 41.8845 107.383 41.7962C107.361 41.6868 107.355 41.5765 107.363 41.4654C107.371 41.3543 107.365 41.2441 107.343 41.1346C107.327 41.0589 107.295 40.9865 107.247 40.9175C107.198 40.8485 107.14 40.79 107.074 40.7421C107.007 40.6941 106.935 40.6605 106.856 40.6412C106.777 40.6176 106.698 40.6138 106.618 40.6299C106.529 40.6476 106.443 40.6758 106.359 40.7145C106.279 40.7524 106.196 40.7953 106.109 40.8433C106.022 40.8871 105.932 40.9292 105.839 40.9697C105.751 41.0092 105.654 41.0396 105.549 41.0606C105.427 41.0851 105.305 41.1007 105.184 41.1074C105.063 41.1142 104.939 41.1193 104.813 41.1227C104.752 41.1261 104.683 41.1311 104.606 41.1379C104.532 41.1438 104.46 41.143 104.388 41.1354C104.317 41.1279 104.254 41.1077 104.199 41.0749C104.144 41.0421 104.109 40.9857 104.093 40.9057C104.063 40.7585 104.066 40.6419 104.102 40.556C104.14 40.4651 104.194 40.3931 104.262 40.3401C104.334 40.2862 104.418 40.2454 104.513 40.2176C104.608 40.1898 104.699 40.1628 104.786 40.1367C104.943 40.0921 105.099 40.0499 105.253 40.0103C105.41 39.9657 105.569 39.9274 105.729 39.8953C105.927 39.8557 106.123 39.8296 106.317 39.8169C106.515 39.7992 106.713 39.7705 106.91 39.7309C107.049 39.7031 107.186 39.6976 107.321 39.7144C107.455 39.7312 107.578 39.7745 107.688 39.8443C107.802 39.9091 107.899 40.0012 107.98 40.1207C108.061 40.2402 108.118 40.3862 108.153 40.5588C108.176 40.6724 108.173 40.7889 108.144 40.9085C108.119 41.0229 108.077 41.1298 108.018 41.2292C108.058 41.278 108.095 41.3099 108.129 41.3251C108.162 41.336 108.193 41.3474 108.221 41.3591C108.249 41.3667 108.274 41.3814 108.296 41.4033C108.317 41.421 108.334 41.4614 108.346 41.5245C108.353 41.5581 108.365 41.5973 108.383 41.6419C108.404 41.6814 108.438 41.6987 108.485 41.6936C108.531 41.9208 108.574 42.1464 108.614 42.3703C108.654 42.5899 108.696 42.8113 108.741 43.0343C108.779 43.2236 108.816 43.413 108.854 43.6024C108.897 43.7909 108.951 43.9769 109.019 44.1603C109.059 44.2748 109.111 44.3585 109.174 44.4115C109.237 44.4645 109.334 44.478 109.464 44.4518C109.654 44.4139 109.837 44.3575 110.015 44.2825C110.192 44.2034 110.375 44.1448 110.564 44.1069C110.673 44.085 110.782 44.0917 110.89 44.127C111.002 44.1615 111.108 44.2014 111.209 44.2469C111.314 44.2914 111.414 44.3327 111.51 44.3705C111.605 44.4084 111.69 44.4197 111.766 44.4045C111.8 44.3978 111.829 44.4049 111.855 44.426C111.881 44.4428 111.901 44.4672 111.916 44.4992C111.935 44.5261 111.947 44.5564 111.954 44.5901C111.965 44.6229 111.973 44.6519 111.978 44.6772ZM118.922 43.1945C118.952 43.3418 118.925 43.4676 118.84 43.572C118.761 43.6797 118.657 43.7685 118.526 43.8384C118.397 43.9125 118.257 43.9711 118.108 44.014C117.964 44.0561 117.839 44.0877 117.733 44.1088C117.595 44.1366 117.476 44.1472 117.379 44.1405C117.285 44.1329 117.202 44.1212 117.129 44.1052C117.056 44.0934 116.992 44.08 116.937 44.0648C116.881 44.0497 116.826 44.0476 116.771 44.0586C116.7 44.0729 116.631 44.0998 116.564 44.1394C116.502 44.1781 116.435 44.2047 116.364 44.219C116.313 44.2291 116.269 44.2291 116.232 44.219C116.2 44.2081 116.17 44.1921 116.144 44.1711C116.119 44.1543 116.094 44.1395 116.07 44.1269C116.049 44.1135 116.027 44.1093 116.001 44.1143C115.972 44.1202 115.951 44.1354 115.938 44.1598C115.926 44.1884 115.913 44.2195 115.898 44.2532C115.883 44.2869 115.856 44.3184 115.818 44.3479C115.786 44.3807 115.731 44.4047 115.655 44.4199C115.567 44.4376 115.479 44.4444 115.39 44.4402C115.303 44.4402 115.215 44.4491 115.127 44.4668C115.038 44.4845 114.953 44.5169 114.87 44.564C114.793 44.6146 114.716 44.6474 114.641 44.6626C114.607 44.6693 114.579 44.6618 114.557 44.6399C114.536 44.6222 114.515 44.6155 114.494 44.6197C114.423 44.634 114.35 44.666 114.277 44.7157C114.208 44.7645 114.133 44.7969 114.054 44.813C114.011 44.8214 113.968 44.8235 113.924 44.8193C113.884 44.8185 113.843 44.8223 113.801 44.8307C113.73 44.845 113.661 44.8762 113.597 44.9242C113.532 44.9722 113.447 45.0067 113.342 45.0278C113.304 45.0354 113.218 45.0459 113.085 45.0594C112.957 45.0763 112.824 45.0877 112.685 45.0936C112.546 45.0995 112.419 45.0966 112.303 45.0848C112.191 45.0765 112.132 45.0533 112.125 45.0155C112.103 44.9061 112.1 44.7929 112.116 44.6759C112.136 44.558 112.136 44.4486 112.116 44.3476L112.113 44.335C112.058 44.346 112.021 44.3228 112.001 44.2656C112.006 44.2471 112.016 44.2319 112.031 44.2201C112.049 44.2033 112.069 44.1907 112.089 44.1822C112.108 44.1696 112.125 44.1553 112.139 44.1393C112.154 44.1233 112.158 44.1027 112.153 44.0774L112.148 44.0522C112.32 44.0353 112.486 44.013 112.647 43.9852C112.812 43.9565 112.983 43.9245 113.159 43.8891C113.324 43.8562 113.504 43.8158 113.7 43.7677C113.899 43.7147 114.078 43.646 114.236 43.5618C114.399 43.4768 114.527 43.3724 114.62 43.2486C114.717 43.1198 114.747 42.9629 114.709 42.7777L114.701 42.7335L114.68 42.6325C114.567 42.1739 114.453 41.724 114.338 41.2831C114.227 40.837 114.125 40.3826 114.032 39.9197C114.008 39.7976 113.974 39.6819 113.93 39.5725C113.889 39.4581 113.857 39.3419 113.834 39.2241C113.804 39.0768 113.8 38.9245 113.821 38.7671C113.846 38.6089 113.905 38.4679 113.999 38.3441C113.99 38.3197 113.976 38.305 113.957 38.3C113.938 38.2907 113.915 38.2865 113.889 38.2874C113.863 38.2882 113.837 38.289 113.811 38.2899C113.789 38.2899 113.769 38.2874 113.75 38.2823C113.722 38.2748 113.7 38.2487 113.682 38.2041C113.664 38.1595 113.646 38.1107 113.626 38.0577C113.611 38.0038 113.594 37.9525 113.576 37.9036C113.561 37.8498 113.54 37.8102 113.513 37.785C113.501 37.6604 113.498 37.5363 113.504 37.4126C113.51 37.2888 113.5 37.166 113.476 37.0439C113.458 36.9556 113.432 36.8887 113.396 36.8432C113.365 36.7969 113.331 36.7599 113.295 36.7322C113.259 36.7044 113.226 36.6804 113.195 36.6602C113.169 36.635 113.151 36.6013 113.142 36.5592C113.136 36.5256 113.14 36.4919 113.155 36.4582L113.103 36.462C113.061 36.4705 113.032 36.4873 113.015 36.5126C112.998 36.5378 112.982 36.5652 112.966 36.5946C112.954 36.6233 112.94 36.6502 112.923 36.6754C112.906 36.7007 112.879 36.7171 112.841 36.7247C112.811 36.7306 112.776 36.731 112.736 36.726C112.669 36.7614 112.603 36.7854 112.54 36.798C112.393 36.8275 112.242 36.8381 112.087 36.8297C111.936 36.8163 111.786 36.8243 111.639 36.8538C111.559 36.8698 111.482 36.8896 111.408 36.9132C111.333 36.9326 111.258 36.9498 111.182 36.965C111.073 36.9869 110.961 36.9962 110.846 36.9929C110.732 36.9895 110.624 36.9542 110.523 36.8869L110.508 36.8112C110.463 36.5881 110.503 36.4051 110.628 36.262C110.756 36.118 110.928 36.0245 111.143 35.9816C111.29 35.9521 111.439 35.9419 111.589 35.9511C111.74 35.9604 111.889 35.9502 112.036 35.9207C112.116 35.9047 112.199 35.8794 112.284 35.8449C112.369 35.8104 112.455 35.7733 112.544 35.7337C112.632 35.6942 112.721 35.6567 112.81 35.6213C112.904 35.5851 112.997 35.5577 113.089 35.5392C113.232 35.5105 113.373 35.5151 113.512 35.553C113.65 35.5866 113.788 35.6181 113.925 35.6475L113.929 35.6993C113.936 35.7372 113.952 35.7713 113.975 35.8015C114.002 35.8268 114.032 35.8537 114.064 35.8823C114.095 35.9067 114.122 35.9341 114.146 35.9644C114.173 35.9896 114.19 36.0212 114.198 36.059C114.205 36.0969 114.207 36.136 114.202 36.1764C114.2 36.2118 114.203 36.2484 114.21 36.2863C114.229 36.3788 114.263 36.4638 114.314 36.5413C114.369 36.6178 114.406 36.7045 114.425 36.8013C114.445 36.9023 114.453 37.0037 114.447 37.1055C114.445 37.2065 114.454 37.3075 114.475 37.4085C114.499 37.5306 114.538 37.6496 114.592 37.7658C114.646 37.8819 114.685 38.001 114.71 38.123C114.73 38.224 114.733 38.3263 114.718 38.4298C114.708 38.5325 114.713 38.6322 114.732 38.729C114.747 38.8005 114.769 38.8704 114.801 38.9385C114.835 39.0017 114.872 39.0643 114.911 39.1266C114.949 39.1889 114.984 39.2541 115.015 39.3223C115.05 39.3854 115.075 39.4548 115.09 39.5306L115.115 39.6568C115.129 39.7241 115.135 39.7906 115.135 39.8563C115.139 39.9169 115.123 39.9791 115.088 40.0431C115.125 40.1189 115.163 40.2009 115.202 40.2893C115.246 40.3768 115.277 40.4626 115.293 40.5468C115.302 40.5889 115.307 40.636 115.309 40.6882C115.314 40.7353 115.313 40.7858 115.306 40.8397C115.303 40.8885 115.293 40.9365 115.276 40.9836C115.258 41.0265 115.235 41.064 115.206 41.096C115.293 41.2449 115.361 41.3998 115.411 41.5605C115.461 41.7213 115.506 41.8828 115.548 42.0453C115.562 42.0949 115.583 42.1585 115.612 42.2359C115.641 42.3133 115.669 42.3907 115.698 42.4681C115.726 42.5414 115.751 42.6108 115.772 42.6764C115.798 42.737 115.813 42.7799 115.818 42.8052C115.832 42.8767 115.834 42.9487 115.822 43.0211C115.81 43.0935 115.811 43.1654 115.826 43.2369C115.837 43.2917 115.861 43.348 115.899 43.4061C115.936 43.46 115.988 43.4801 116.055 43.4667C116.106 43.4565 116.146 43.4376 116.175 43.4098C116.208 43.377 116.243 43.3437 116.28 43.3101C116.316 43.2722 116.36 43.2372 116.41 43.2052C116.464 43.1682 116.539 43.14 116.636 43.1206C116.745 43.0987 116.852 43.0928 116.954 43.1028C117.057 43.1129 117.163 43.107 117.272 43.0851C117.352 43.0691 117.431 43.0467 117.508 43.0181C117.589 42.9844 117.666 42.9516 117.738 42.9196C117.814 42.8825 117.89 42.8476 117.967 42.8147C118.043 42.7819 118.124 42.757 118.208 42.7402C118.376 42.7065 118.527 42.7266 118.66 42.8007C118.797 42.8738 118.884 43.0051 118.922 43.1945ZM113.726 36.0617C113.705 36.0482 113.681 36.0356 113.652 36.0238C113.628 36.0112 113.601 36.0078 113.572 36.0137C113.55 36.018 113.534 36.0323 113.521 36.0567C113.512 36.076 113.509 36.0962 113.513 36.1173L113.56 36.1867C113.579 36.1918 113.592 36.1934 113.601 36.1917C113.634 36.185 113.659 36.169 113.676 36.1438C113.697 36.1134 113.713 36.0861 113.726 36.0617ZM114.456 37.7406C114.449 37.7069 114.432 37.6753 114.404 37.6459C114.379 37.6114 114.346 37.5984 114.304 37.6068C114.292 37.6093 114.277 37.6144 114.261 37.6219C114.249 37.6287 114.24 37.635 114.232 37.6409L114.287 37.9123C114.324 37.9224 114.351 37.9257 114.367 37.9224C114.409 37.9139 114.436 37.8912 114.446 37.8542C114.459 37.8121 114.462 37.7742 114.456 37.7406Z" fill="#535353"/>
<line opacity="0.3" x1="76.6683" y1="58.7636" x2="151.197" y2="43.8376" stroke="#535353" stroke-width="0.732422"/>
<path d="M79.8569 68.6971L79.723 68.028L81.5997 67.6521C82.057 67.5606 82.3852 67.4 82.5843 67.1705C82.7834 66.9409 82.8482 66.6522 82.7785 66.3044L82.7768 66.2959C82.7302 66.0631 82.6364 65.8791 82.4956 65.7439C82.3547 65.6087 82.167 65.5238 81.9324 65.489C81.7007 65.4537 81.4235 65.4684 81.1009 65.533L79.2957 65.8946L79.1651 65.2423L80.7557 64.9238C81.2157 64.8316 81.5445 64.6812 81.742 64.4724C81.9422 64.263 82.0103 63.9985 81.9463 63.6787L81.9446 63.6702C81.8828 63.3617 81.7298 63.1443 81.4857 63.0181C81.2439 62.8885 80.935 62.8614 80.5591 62.9367L78.7749 63.294L78.6409 62.625L80.585 62.2356C80.9581 62.1609 81.2902 62.1586 81.5815 62.2286C81.8755 62.2981 82.1168 62.4321 82.3054 62.6307C82.4962 62.8259 82.6225 63.0778 82.6843 63.3864L82.686 63.3948C82.7281 63.6052 82.72 63.8126 82.6617 64.0168C82.6063 64.2205 82.5126 64.4012 82.3808 64.5589C82.249 64.7166 82.0885 64.8334 81.8995 64.9092L81.9129 64.9765C82.1974 64.9545 82.4538 64.9892 82.6822 65.0806C82.9106 65.172 83.1006 65.312 83.2521 65.5005C83.4059 65.6856 83.5095 65.9114 83.5629 66.1779L83.5646 66.1863C83.6353 66.5398 83.6135 66.8607 83.4992 67.1492C83.387 67.4342 83.1918 67.6761 82.9136 67.8748C82.6348 68.0707 82.2793 68.2119 81.8473 68.2984L79.8569 68.6971ZM79.4782 68.7729L78.2622 62.7008L79.0196 62.5491L80.2357 68.6212L79.4782 68.7729ZM85.1422 67.6386L83.9261 61.5665L86.2447 61.1021C86.6346 61.024 86.9892 61.0318 87.3085 61.1254C87.6301 61.2157 87.8977 61.3794 88.1116 61.6167C88.3254 61.854 88.4689 62.155 88.5419 62.5197L88.5436 62.5281C88.6279 62.9489 88.5929 63.3352 88.4387 63.6871C88.2845 64.0389 88.0287 64.3134 87.6713 64.5104L89.5816 66.7495L88.6937 66.9273L86.9122 64.785C86.9066 64.7861 86.8996 64.7875 86.8912 64.7892C86.8828 64.7909 86.8758 64.7923 86.8701 64.7934L85.4184 65.0841L85.8996 67.4869L85.1422 67.6386ZM85.2836 64.4109L86.7774 64.1117C87.1673 64.0336 87.4476 63.8739 87.6181 63.6326C87.7908 63.3879 87.8401 63.0804 87.766 62.7101L87.7643 62.7017C87.6918 62.3398 87.5242 62.0786 87.2616 61.9182C86.999 61.7578 86.6713 61.717 86.2785 61.7956L84.8184 62.0881L85.2836 64.4109ZM90.2885 66.6079L91.3111 60.0875L91.8918 59.9712L92.0882 60.9516L91.8483 60.9997L91.0838 66.4486L90.2885 66.6079ZM90.9546 64.6669L91.0613 63.9759L93.8049 63.4264L94.1695 64.0231L90.9546 64.6669ZM94.7195 65.7205L91.9156 60.9862L91.7193 60.0057L92.0601 59.9375L95.5148 65.5612L94.7195 65.7205Z" fill="#535353" fill-opacity="0.7"/>
<line opacity="0.3" x1="79.4173" y1="72.491" x2="153.946" y2="57.5651" stroke="#535353" stroke-width="0.732422"/>
</g>
<g filter="url(#filter2_d_23_3339)">
<path d="M44.6798 61.1966C47.3985 71.091 44.2775 81.036 35.4934 86.5526C30.5394 89.6637 25.2675 92.1474 20.0133 94.6968C14.8708 97.192 9.22137 99.2894 4.91541 103.186C-0.0657225 107.693 0.0699881 114.17 0.748169 120.288" stroke="#535353" stroke-width="1.09863" stroke-linecap="round"/>
</g>
<defs>
<filter id="filter0_d_23_3339" x="-8.88916" y="44.8345" width="54.8511" height="44.2594" filterUnits="userSpaceOnUse" color-interpolation-filters="sRGB">
<feFlood flood-opacity="0" result="BackgroundImageFix"/>
<feColorMatrix in="SourceAlpha" type="matrix" values="0 0 0 0 0 0 0 0 0 0 0 0 0 0 0 0 0 0 127 0" result="hardAlpha"/>
<feOffset dy="1.46484"/>
<feGaussianBlur stdDeviation="0.366211"/>
<feComposite in2="hardAlpha" operator="out"/>
<feColorMatrix type="matrix" values="0 0 0 0 0 0 0 0 0 0 0 0 0 0 0 0 0 0 0.16 0"/>
<feBlend mode="normal" in2="BackgroundImageFix" result="effect1_dropShadow_23_3339"/>
<feBlend mode="normal" in="SourceGraphic" in2="effect1_dropShadow_23_3339" result="shape"/>
</filter>
<filter id="filter1_dd_23_3339" x="16.0786" y="0.031857" width="167.238" height="104.907" filterUnits="userSpaceOnUse" color-interpolation-filters="sRGB">
<feFlood flood-opacity="0" result="BackgroundImageFix"/>
<feColorMatrix in="SourceAlpha" type="matrix" values="0 0 0 0 0 0 0 0 0 0 0 0 0 0 0 0 0 0 127 0" result="hardAlpha"/>
<feOffset dy="1.46484"/>
<feGaussianBlur stdDeviation="0.732422"/>
<feComposite in2="hardAlpha" operator="out"/>
<feColorMatrix type="matrix" values="0 0 0 0 0 0 0 0 0 0 0 0 0 0 0 0 0 0 0.16 0"/>
<feBlend mode="normal" in2="BackgroundImageFix" result="effect1_dropShadow_23_3339"/>
<feColorMatrix in="SourceAlpha" type="matrix" values="0 0 0 0 0 0 0 0 0 0 0 0 0 0 0 0 0 0 127 0" result="hardAlpha"/>
<feOffset/>
<feGaussianBlur stdDeviation="2.92969"/>
<feComposite in2="hardAlpha" operator="out"/>
<feColorMatrix type="matrix" values="0 0 0 0 0 0 0 0 0 0 0 0 0 0 0 0 0 0 0.16 0"/>
<feBlend mode="normal" in2="effect1_dropShadow_23_3339" result="effect2_dropShadow_23_3339"/>
<feBlend mode="normal" in="SourceGraphic" in2="effect2_dropShadow_23_3339" result="shape"/>
</filter>
<filter id="filter2_d_23_3339" x="-0.875977" y="60.6471" width="47.7886" height="62.3879" filterUnits="userSpaceOnUse" color-interpolation-filters="sRGB">
<feFlood flood-opacity="0" result="BackgroundImageFix"/>
<feColorMatrix in="SourceAlpha" type="matrix" values="0 0 0 0 0 0 0 0 0 0 0 0 0 0 0 0 0 0 127 0" result="hardAlpha"/>
<feOffset dy="1.46484"/>
<feGaussianBlur stdDeviation="0.366211"/>
<feComposite in2="hardAlpha" operator="out"/>
<feColorMatrix type="matrix" values="0 0 0 0 0 0 0 0 0 0 0 0 0 0 0 0 0 0 0.16 0"/>
<feBlend mode="normal" in2="BackgroundImageFix" result="effect1_dropShadow_23_3339"/>
<feBlend mode="normal" in="SourceGraphic" in2="effect1_dropShadow_23_3339" result="shape"/>
</filter>
</defs>
</svg>
