<svg width="208" height="273" viewBox="0 0 208 273" fill="none" xmlns="http://www.w3.org/2000/svg">
<path d="M2 2C34.597 2.6791 63.3285 16.982 88.4036 37.2351C105.034 50.6675 128.713 67.9072 132.836 90.4763C134.712 100.747 135.071 111.663 134.909 122.084C134.564 144.284 116.985 159.7 96.0465 165.092C76.0767 170.234 57.0173 163.151 46.1734 145.142C36.2017 128.582 41.3191 119.144 57.832 114.182C81.0605 107.203 107.091 106.51 131.152 108.612C153.746 110.586 178.933 117.543 196.311 132.836C203.667 139.309 204 138 207.5 150C209.25 156 210 158.5 210 163C210.401 165.5 209 171 207.5 174.5C205 183.5 202.734 184.463 201.298 192.36C199.226 203.76 196.901 215.012 192.036 225.587C188.594 233.07 184.198 239.065 179.017 245.407C169.79 256.702 162.28 269.232 154.728 281.678C146.557 295.147 141.524 306.114 141.904 321.965C142.239 335.92 149.21 353.912 157.449 365.232C167.066 378.446 183.238 386.185 199.161 388.42C209.616 389.887 219.006 386.073 228.437 382.072C243.703 375.596 258.864 366.101 275.719 364.843C284.942 364.155 293.972 364.587 302.599 368.276C318.476 375.065 339.482 385.832 350.335 399.819C358.211 409.971 357.976 427.404 354.092 438.941C353.495 440.714 350.594 447.617 350.594 447.361" stroke="#F3E4BD" stroke-width="3" stroke-linecap="round" stroke-dasharray="12 12"/>
</svg>
