<svg width="53" height="59" viewBox="0 0 53 59" fill="none" xmlns="http://www.w3.org/2000/svg">
<path d="M13.6841 45.8225L22.8892 2.86511C23.786 -0.0716419 28.8277 0.132233 29.6398 2.86511L51.7321 53.1866C52.2776 54.2776 52.3867 56.6641 48.4592 57.4823C44.5317 58.3006 23.6393 50.05 13.6841 45.8225Z" fill="#FFD698"/>
<path d="M38.3766 37.8684C37.173 33.6959 27.5219 12.6642 22.9417 2.70127C22.7803 -0.210837 28.7505 -0.417153 29.2434 1.94082C36.243 17.8946 50.5996 50.6176 52.0293 53.8791C53.2684 58.0011 47.8022 57.9313 47.203 57.5269C46.621 57.1341 39.8812 43.0839 38.3766 37.8684Z" fill="#FEF5E4"/>
<path d="M20.2545 1.9061C19.6372 1.25796 18.5568 2.66492 18.0938 3.44943L37.045 54.7705C37.9013 54.751 38.597 56.63 39.7061 56.4611C42.3339 56.061 41.7739 53.3931 42.8452 53.1041C43.9865 52.7962 41.7155 48.6405 41.7739 47.2977C41.8323 45.955 39.7061 43.8847 39.7061 42.7171C39.7061 41.5494 39.9164 42.0528 39.2375 37.4407C38.7922 35.8644 39.2761 34.6633 39.2375 33.7373C39.1989 32.8113 37.5784 32.3483 38.2344 30.6506C38.8903 28.953 36.4209 26.5994 36.3052 24.9403C36.1894 23.2812 33.1028 22.8568 33.0256 21.815C32.9484 20.7733 29.8232 15.7574 29.8232 14.7157C29.8232 13.6739 26.6593 8.77385 26.8908 7.77068C27.1223 6.76751 24.5758 3.68084 24.653 2.98634C24.7302 2.29184 22.3766 2.67767 22.1837 2.1375C21.9907 1.59733 21.0262 2.71628 20.2545 1.9061Z" fill="#92B969"/>
<path d="M18.002 3.17981C17.0094 1.98044 16.1065 2.68008 15.7792 3.17981L14.6655 3.57735L35.3723 55.0316C36.1994 54.7559 37.9364 54.2044 38.2673 54.2044C38.6809 54.2044 39.508 52.24 39.2495 50.0687C38.991 47.8974 35.9409 43.0379 35.3723 42.3659C34.8036 41.6938 33.4078 36.3691 32.8391 34.2495C32.2705 32.1299 28.083 26.8052 27.2559 25.4094C26.4287 24.0136 25.2914 21.6872 24.516 17.7583C23.7405 13.8293 20.0183 8.91811 19.398 7.93588C18.7776 6.95364 19.2429 4.67903 18.002 3.17981Z" fill="#FD71A6"/>
<path d="M27.9355 28.1939C27.418 25.7787 24.7585 22.1273 23.4934 20.6035H22.2427L29.8331 42.0378C30.7244 41.9515 32.5501 41.5289 32.7226 40.5283C32.9382 39.2776 31.2132 36.0431 31.0838 34.4905C30.9544 32.9379 28.5824 31.2128 27.9355 28.1939Z" fill="#FCA3BF"/>
<path d="M36.5953 26.8547L21.1528 7.13281L24.3633 17.4961L38.2422 52.1441L36.5953 26.8547Z" fill="#FCC244"/>
<path d="M18.8853 5.0913C17.6664 6.48557 22.6344 14.2698 23.8551 15.7685C24.899 14.1253 20.8943 2.11409 18.8853 5.0913Z" fill="#DE393E"/>
<path d="M18.6662 8.83314C18.4199 8.22853 16.7721 4.64384 15.979 2.92707C18.9741 0.65983 19.058 7.48957 19.3379 7.79748C19.6178 8.10538 23.9647 14.5154 24.2597 16.5801C24.4066 17.6084 22.4715 13.0959 21.1485 12.7467C20.3902 12.5465 18.974 9.58891 18.6662 8.83314Z" fill="#FCA3BF"/>
<path d="M40.0728 52.8533C42.0124 52.0247 37.4957 43.2718 35.9241 42.2208C35.9241 42.2208 35.0525 42.0302 34.8804 42.2476C34.6811 42.4992 33.9924 42.9772 34.5242 43.5457C35.0921 44.1528 35.857 45.3 36.021 45.9477C36.185 46.5954 38.7281 53.9643 40.0728 52.8533Z" fill="#DE393E"/>
<path d="M36.2426 44.7447C35.9212 43.7116 34.1954 42.7071 33.3727 42.334L32.3682 42.9941C34.0997 46.744 37.6373 54.2727 37.9357 54.3875C38.3088 54.531 38.7393 54.3301 39.2559 54.244C39.7724 54.1579 39.2272 50.5418 39.4281 49.7957C39.6289 49.0495 38.3949 47.8442 37.9357 46.8971C37.4765 45.95 36.6443 46.0361 36.2426 44.7447Z" fill="#FCA3BF"/>
<path d="M0.139648 46.965L9.34481 4.00769C10.2416 1.07094 15.2832 1.27481 16.0953 4.00769L38.1877 54.3292C38.7332 55.4202 38.8423 57.8067 34.9147 58.6249C30.9872 59.4431 10.0949 51.1926 0.139648 46.965Z" fill="#FFD698"/>
<path d="M24.8323 39.0105C23.6287 34.8381 14.0474 13.9363 9.46722 3.97338C10.1053 0.685321 14.9339 1.91689 15.6991 3.08298C22.6987 19.0368 37.0552 51.7598 38.4849 55.0213C38.3733 59.0982 34.3607 58.669 33.6586 58.669C32.9565 58.669 26.3368 44.2261 24.8323 39.0105Z" fill="#FEF5E4"/>
<path d="M27.9262 26.8247C26.002 25.6088 23.8524 19.7594 24.0044 17.8748C24.0044 17.8748 23.9108 17.0291 24.1436 16.8784C24.3919 16.7176 24.7225 16.7391 25.0072 17.1902C25.4508 17.8932 25.5545 19.3242 25.9604 19.855C26.3663 20.3857 29.632 26.4606 27.9262 26.8247Z" fill="#DE393E"/>
<path d="M29.2973 28.4354C27.3366 29.2128 31.3369 38.0807 32.8803 39.1728C32.8803 39.1728 34.0313 39.3868 34.2091 39.174C34.4149 38.9277 35.116 38.468 34.5993 37.8857C34.0476 37.2639 33.3131 36.097 33.1662 35.4452C33.0193 34.7934 30.6708 27.3601 29.2973 28.4354Z" fill="#DE393E"/>
<path d="M33.4432 31.3462C33.1786 30.4642 29.07 22.2323 27.0488 18.2266C28.7246 18.2266 33.4066 24.5475 35.5381 27.708C34.9501 29.2883 33.7079 32.2282 33.4432 31.3462Z" fill="#FFD05C"/>
</svg>
