<svg width="391" height="217" viewBox="0 0 391 217" fill="none" xmlns="http://www.w3.org/2000/svg">
<path d="M400.141 215.455C399.462 182.858 385.159 154.126 364.906 129.051C351.473 112.42 334.233 88.7419 311.664 84.6187C301.394 82.7424 290.478 82.384 280.056 82.546C257.856 82.8911 242.441 100.47 237.049 121.408C231.906 141.378 238.989 160.437 256.998 171.281C273.558 181.253 282.997 176.136 287.958 159.623C294.938 136.394 295.631 110.363 293.529 86.3027C291.554 63.7088 284.598 38.5223 269.305 21.1438C262.831 13.788 264.141 13.4548 252.141 9.95477C246.141 8.20477 243.641 7.45477 239.141 7.45477C236.641 7.05398 231.141 8.45477 227.641 9.95477C218.641 12.4548 217.678 14.7206 209.781 16.1564C198.38 18.2293 187.128 20.5542 176.553 25.4186C169.07 28.8609 163.076 33.2563 156.734 38.4374C145.439 47.6644 132.909 55.1751 120.462 62.7263C106.994 70.8977 96.0264 75.9313 80.1752 75.5508C66.2211 75.2159 48.2287 68.2448 36.9086 60.006C23.6943 50.3885 15.9555 34.2165 13.7208 18.2939C12.2534 7.83838 16.0674 -1.55157 20.0683 -10.9823C26.5449 -26.2486 36.0394 -41.4097 37.2972 -58.2647C37.9855 -67.4872 37.5532 -76.5172 33.8644 -85.1444C27.0756 -101.021 16.309 -122.028 2.32123 -132.88C-7.83051 -140.756 -25.2632 -140.522 -36.8001 -136.637C-38.5729 -136.04 -45.476 -133.139 -45.2202 -133.139" stroke="#B5D1A1" stroke-width="3" stroke-linecap="round" stroke-dasharray="12 12"/>
</svg>
