<svg width="67" height="45" viewBox="0 0 67 45" fill="none" xmlns="http://www.w3.org/2000/svg">
<rect x="10.293" y="4.34375" width="58.17" height="31.3094" rx="8.23243" transform="rotate(10.5411 10.293 4.34375)" fill="#8BC089"/>
<circle cx="36.0223" cy="25.0556" r="11.8562" transform="rotate(10.5411 36.0223 25.0556)" fill="#B2EAB0"/>
<path d="M36.0208 30.4442C35.5165 30.4693 35.0697 30.4365 34.6806 30.346C34.2909 30.2445 33.9259 30.0868 33.5855 29.8729C33.2556 29.6475 32.9008 29.3629 32.521 29.0191C32.3429 28.7532 32.2046 28.5128 32.106 28.2979C32.0183 28.0825 31.9669 27.8213 31.9516 27.5143C31.9396 27.2731 31.9893 27.0564 32.1006 26.864C32.212 26.6716 32.4266 26.5675 32.7445 26.5517C32.9747 26.5403 33.1948 26.6557 33.4047 26.8981C33.4687 27.0817 33.5783 27.2961 33.7334 27.5411C33.8879 27.7752 34.1134 28.0003 34.4099 28.2164C34.7168 28.4209 35.1147 28.577 35.6036 28.6846C35.7368 28.7109 35.8856 28.72 36.05 28.7118C36.3351 28.6976 36.6231 28.6339 36.9142 28.5205C37.2158 28.3956 37.466 28.2348 37.6651 28.0381C37.8635 27.8304 37.9557 27.584 37.9415 27.299C37.9295 27.0578 37.8315 26.8538 37.6474 26.6871C37.4742 26.5199 37.2637 26.3765 37.016 26.2569C36.7793 26.1368 36.56 26.0378 36.3583 25.9599C35.9659 25.8036 35.5677 25.6421 35.1638 25.4753C34.7598 25.3086 34.3874 25.1128 34.0466 24.8879C33.7051 24.6521 33.4218 24.3695 33.1966 24.04C32.9819 23.699 32.8622 23.2818 32.8377 22.7885C32.8099 22.2294 32.9399 21.7503 33.2278 21.3514C33.5157 20.9524 33.8959 20.6422 34.3685 20.4209C34.852 20.1991 35.3624 20.0748 35.8996 20.0481C36.0859 20.0388 36.3225 20.0435 36.6091 20.0623C36.9062 20.0695 37.2211 20.1033 37.5538 20.1637C37.8865 20.224 38.2042 20.3127 38.5067 20.4295C38.8087 20.5354 39.0578 20.6824 39.254 20.8704C39.4496 21.0475 39.5542 21.2731 39.5679 21.5472C39.5793 21.7774 39.4959 21.9794 39.3177 22.1531C39.1505 22.3263 38.9463 22.4188 38.7051 22.4308C38.442 22.4439 38.2151 22.4112 38.0243 22.3328C37.8336 22.2544 37.6478 22.1647 37.467 22.0638C37.2965 21.9514 37.0995 21.8567 36.8759 21.7799C36.6517 21.6922 36.3806 21.6562 36.0627 21.672L35.5858 21.6957C35.3172 21.819 35.0938 21.9675 34.9156 22.1412C34.7369 22.3039 34.6513 22.462 34.6589 22.6155C34.6747 22.9334 34.8032 23.1963 35.0443 23.4041C35.2959 23.6004 35.6124 23.777 35.9938 23.9339C36.3863 24.0902 36.7954 24.2512 37.2213 24.4169C37.6581 24.582 38.0691 24.7814 38.4544 25.015C38.8501 25.2371 39.1721 25.5233 39.4203 25.8737C39.6795 26.2234 39.8224 26.6669 39.8491 27.2041C39.8736 27.6975 39.7803 28.1417 39.5692 28.5369C39.3575 28.921 39.0663 29.2542 38.6957 29.5364C38.3245 29.8076 37.9065 30.0208 37.4416 30.1757C36.9768 30.3307 36.5031 30.4202 36.0208 30.4442ZM34.6923 32.5709C34.5399 32.6005 34.3831 32.5423 34.222 32.3965C34.0609 32.2506 33.9582 32.0634 33.9139 31.8348C33.8717 31.6501 33.8687 31.4799 33.905 31.3242C33.9681 31.0463 34.0529 30.652 34.1594 30.1411C34.2658 29.6303 34.3847 29.0364 34.5159 28.3595C34.6575 27.671 34.8027 26.944 34.9515 26.1783C35.1106 25.401 35.2695 24.6183 35.4282 23.8301C35.5863 23.031 35.7348 22.2598 35.8737 21.5166C36.0235 20.7728 36.1599 20.0901 36.2829 19.4685C36.4053 18.836 36.5107 18.3032 36.5991 17.8702C36.6512 17.5929 36.7072 17.3923 36.767 17.2684C36.8372 17.133 36.9101 17.0525 36.9857 17.0267C37.051 17.0125 37.1126 17.0369 37.1707 17.1C37.2392 17.1515 37.3143 17.2247 37.3959 17.3196C37.5488 17.5208 37.6532 17.7409 37.709 17.9799C37.7523 18.1866 37.7569 18.3896 37.7228 18.5892C37.5877 19.4091 37.4285 20.2963 37.2452 21.2505C37.0618 22.2048 36.8686 23.1815 36.6655 24.1808C36.4728 25.1685 36.2741 26.1455 36.0694 27.1118C35.8751 28.0666 35.6945 28.9658 35.5276 29.8093C35.3602 30.6419 35.215 31.369 35.0921 31.9905C35.0569 32.1681 35.0032 32.3027 34.9308 32.3942C34.8584 32.4857 34.7789 32.5446 34.6923 32.5709Z" fill="#8BC089"/>
<rect x="0.210938" y="0.544922" width="58.17" height="31.3094" rx="8.23243" fill="#529897"/>
<circle cx="29.2957" cy="16.2" r="11.8562" fill="#66B7B6"/>
<path d="M30.2798 21.498C29.7886 21.6149 29.3434 21.6644 28.9443 21.6466C28.5426 21.6181 28.1549 21.5298 27.7812 21.3818C27.4156 21.2206 27.0147 21.0057 26.5784 20.7372C26.3547 20.5084 26.1747 20.2973 26.0385 20.1041C25.9129 19.9083 25.8145 19.6609 25.7434 19.362C25.6875 19.127 25.6966 18.9048 25.7709 18.6953C25.8451 18.4859 26.0371 18.3443 26.3468 18.2706C26.571 18.2172 26.8085 18.2904 27.0591 18.4903C27.1557 18.6591 27.3027 18.8498 27.4999 19.0624C27.6947 19.2642 27.9575 19.4443 28.2885 19.6024C28.6277 19.7474 29.0474 19.828 29.5478 19.8443C29.6835 19.8459 29.8315 19.8276 29.9917 19.7895C30.2693 19.7234 30.5408 19.608 30.8063 19.4433C31.0799 19.2653 31.2965 19.0614 31.4562 18.8316C31.6133 18.5911 31.6589 18.3321 31.5928 18.0544C31.5369 17.8195 31.4032 17.6369 31.1916 17.5068C30.9908 17.374 30.7577 17.2715 30.4923 17.1993C30.2375 17.1245 30.0039 17.0673 29.7913 17.0276C29.3769 16.9457 28.9559 16.8598 28.5283 16.7697C28.1007 16.6797 27.6987 16.5553 27.3225 16.3966C26.9437 16.2273 26.6134 16.0012 26.3318 15.7185C26.0582 15.4225 25.8643 15.0343 25.7499 14.5538C25.6203 14.0092 25.6605 13.5144 25.8705 13.0695C26.0806 12.6246 26.3977 12.2502 26.8218 11.9461C27.2565 11.6396 27.7355 11.424 28.2588 11.2995C28.4403 11.2563 28.6737 11.2176 28.959 11.1836C29.2524 11.1363 29.5681 11.112 29.9063 11.1105C30.2444 11.109 30.5729 11.138 30.8917 11.1975C31.208 11.2463 31.4797 11.3453 31.707 11.4943C31.9318 11.6326 32.0759 11.8352 32.1394 12.1022C32.1928 12.3264 32.1478 12.5403 32.0044 12.7436C31.8716 12.9445 31.6878 13.0729 31.4529 13.1288C31.1966 13.1898 30.9675 13.1991 30.7657 13.1569C30.5638 13.1147 30.3647 13.0605 30.1685 12.9944C29.9803 12.9151 29.7693 12.8581 29.5354 12.8235C29.299 12.7782 29.0259 12.7924 28.7163 12.8661L28.2518 12.9767C28.0102 13.147 27.8177 13.3339 27.6743 13.5372C27.5284 13.7299 27.4732 13.901 27.5088 14.0505C27.5825 14.3602 27.7569 14.5951 28.0319 14.7553C28.3152 14.9023 28.6586 15.018 29.0623 15.1025C29.4767 15.1844 29.9084 15.2678 30.3574 15.3528C30.8171 15.4352 31.2577 15.556 31.6792 15.7152C32.1088 15.8611 32.4777 16.0836 32.7858 16.3826C33.1046 16.6791 33.3263 17.089 33.4508 17.6122C33.5652 18.0927 33.5547 18.5466 33.4194 18.9737C33.2816 19.3901 33.0563 19.7709 32.7435 20.1162C32.4282 20.4507 32.0563 20.7367 31.6276 20.9741C31.1989 21.2115 30.7497 21.3862 30.2798 21.498ZM29.3628 23.8318C29.2184 23.8888 29.0537 23.8603 28.8686 23.7464C28.6835 23.6324 28.5483 23.4672 28.4629 23.2505C28.3876 23.0766 28.3536 22.9099 28.3607 22.7502C28.3719 22.4654 28.3831 22.0622 28.3944 21.5405C28.4056 21.0188 28.4138 20.4132 28.419 19.7237C28.4322 19.021 28.442 18.2796 28.4481 17.4996C28.4624 16.7064 28.4755 15.9078 28.4873 15.1039C28.4965 14.2894 28.5014 13.504 28.502 12.7479C28.5132 11.9892 28.5224 11.2931 28.5296 10.6596C28.5342 10.0153 28.5404 9.47227 28.5481 9.03041C28.5486 8.7482 28.5669 8.54074 28.603 8.40803C28.6473 8.2621 28.7042 8.16956 28.7739 8.13042C28.8354 8.10449 28.9005 8.11721 28.9692 8.16857C29.0459 8.20671 29.1331 8.26494 29.2308 8.34326C29.4179 8.51311 29.5607 8.71041 29.6594 8.93517C29.7397 9.13043 29.7814 9.32925 29.7844 9.53162C29.8016 10.3625 29.8074 11.2638 29.8017 12.2355C29.796 13.2072 29.7847 14.2028 29.7678 15.2223C29.7591 16.2286 29.7425 17.2254 29.718 18.2129C29.7016 19.1871 29.6886 20.1042 29.6789 20.964C29.6666 21.8132 29.6568 22.5545 29.6497 23.1881C29.6476 23.3691 29.6194 23.5112 29.565 23.6145C29.5105 23.7177 29.4432 23.7901 29.3628 23.8318Z" fill="#529897"/>
</svg>
