<svg width="214" height="82" viewBox="0 0 214 82" fill="none" xmlns="http://www.w3.org/2000/svg">
<g filter="url(#filter0_d_419_51306)">
<path d="M9.30638 48.2357C6.84909 50.2584 7.50287 54.1826 10.4832 55.2994L22.4988 59.8017C25.4791 60.9184 28.5507 58.3901 28.0277 55.2507L25.919 42.5937C25.396 39.4543 21.6706 38.0584 19.2133 40.081L9.30638 48.2357Z" fill="#F5C993"/>
<path d="M9.78303 48.8148C7.7715 50.4705 8.30668 53.6829 10.7464 54.597L22.762 59.0994C25.2016 60.0135 27.716 57.9439 27.2879 55.374L25.1792 42.717C24.7511 40.1471 21.7015 39.0044 19.69 40.6601L9.78303 48.8148Z" stroke="#9B7A51" stroke-width="1.5"/>
</g>
<g filter="url(#filter1_d_419_51306)">
<rect width="191.021" height="46.6006" rx="16.5377" transform="matrix(-0.986404 0.164336 0.164336 0.986404 204.981 0.154297)" fill="#F5C993"/>
<rect x="-0.616551" y="0.863055" width="189.521" height="45.1006" rx="15.7877" transform="matrix(-0.986404 0.164336 0.164336 0.986404 203.615 0.267352)" stroke="#9B7A51" stroke-width="1.5"/>
</g>
<path d="M35.5786 58.1412C35.2735 58.1921 35.0218 58.1421 34.8237 57.9913C34.6238 57.8299 34.4642 57.6186 34.345 57.3573C34.2345 57.0837 34.1442 56.8014 34.0741 56.5103C34.0145 56.2175 33.9672 55.9658 33.9321 55.7554L33.6613 54.1298C33.5456 53.4354 33.4632 52.7138 33.4142 51.965C33.3651 51.2162 33.2766 50.4253 33.1487 49.5923C32.7559 49.6362 32.4385 49.6133 32.1965 49.5239C31.9633 49.4222 31.8125 49.1661 31.7441 48.7558C31.6915 48.4401 31.7836 48.1815 32.0203 47.9798C32.2553 47.7677 32.5271 47.6143 32.8358 47.5196C33.2304 47.3565 33.6574 47.2259 34.1168 47.1277C34.585 47.0173 35.0243 46.8954 35.4347 46.7622L35.4978 46.7517C35.9292 46.6798 36.3974 46.6342 36.9024 46.615C37.4057 46.5852 37.9028 46.6159 38.3938 46.7071C38.8936 46.7861 39.3434 46.9545 39.7432 47.2123C40.1412 47.4595 40.4463 47.8305 40.6585 48.325L40.7479 48.8616C40.8461 49.4508 40.7917 50.033 40.5847 50.6081C40.3777 51.1833 40.0664 51.7164 39.6508 52.2074C39.2439 52.6861 38.7757 53.0885 38.2461 53.4146C37.727 53.739 37.1939 53.9468 36.6468 54.0379C36.489 54.0642 36.3303 54.0852 36.1707 54.101C36.0094 54.1063 35.8068 54.1238 35.5631 54.1536C35.6595 54.6674 35.7489 55.1067 35.8313 55.4714C35.9137 55.8362 35.9838 56.1922 36.0416 56.5394C36.0732 56.7288 36.0925 56.9418 36.0995 57.1786C36.117 57.4135 36.0872 57.624 36.01 57.8098C35.9434 57.994 35.7996 58.1044 35.5786 58.1412ZM35.2423 52.2281L36.6943 51.9862C36.8942 51.9529 37.13 51.8433 37.4019 51.6575C37.6825 51.4593 37.9516 51.2252 38.2094 50.9552C38.476 50.6729 38.6882 50.3888 38.846 50.103C39.0127 49.8049 39.0767 49.5401 39.0381 49.3086C38.996 49.0561 38.861 48.8623 38.6331 48.7273C38.4156 48.5905 38.1736 48.5011 37.9071 48.459C37.6406 48.4168 37.4179 48.4107 37.239 48.4405L35.1399 48.7902L35.0215 48.9559C35.0355 49.3645 35.0443 49.7415 35.0478 50.087C35.0495 50.4219 35.0626 50.7604 35.0872 51.1023C35.1222 51.4425 35.1739 51.8178 35.2423 52.2281ZM46.493 56.3229C46.009 56.4035 45.5382 56.3684 45.0805 56.2176C44.6229 56.0667 44.2213 55.8309 43.8759 55.5099C43.5287 55.1785 43.2735 54.783 43.1105 54.3236L42.9764 53.5187C42.8782 52.9295 42.8844 52.3175 42.9949 51.6827C43.1054 51.0479 43.3133 50.4455 43.6184 49.8756C43.9218 49.2952 44.3164 48.8077 44.8022 48.4132C45.2862 48.0082 45.8491 47.7522 46.491 47.6453C46.754 47.6014 46.9881 47.6111 47.1933 47.6742C47.409 47.7356 47.6045 47.8058 47.7798 47.8847C47.964 47.9513 48.1367 47.982 48.298 47.9768C48.3103 47.5314 48.3787 47.228 48.5032 47.0667C48.626 46.8949 48.8136 46.7879 49.0662 46.7458C49.3713 46.695 49.5931 46.7608 49.7316 46.9431C49.8789 47.1133 49.9771 47.3456 50.0262 47.6402C50.1226 48.2189 50.2015 48.7897 50.2628 49.3526C50.3347 49.9138 50.4197 50.4889 50.5179 51.0782C50.595 51.5411 50.7011 52.0155 50.836 52.5012C50.971 52.987 51.0771 53.4613 51.1542 53.9243L51.2094 54.2557C51.248 54.4872 51.2366 54.7108 51.1752 54.9265C51.1226 55.1299 50.9437 55.257 50.6386 55.3078C50.3545 55.3552 50.1353 55.3052 49.981 55.1579C49.8355 54.9983 49.7215 54.801 49.6391 54.566C49.5655 54.3187 49.4962 54.0978 49.4313 53.9031L49.3577 53.8505C49.0595 54.2678 48.793 54.6475 48.558 54.9894C48.3335 55.3296 48.0678 55.6172 47.7609 55.8521C47.4523 56.0766 47.0296 56.2335 46.493 56.3229ZM46.0696 54.7552C46.4379 54.6938 46.7667 54.5255 47.0561 54.2502C47.3542 53.9626 47.605 53.618 47.8084 53.2165C48.0101 52.8044 48.1513 52.3862 48.232 51.9618C48.3127 51.5375 48.3241 51.1517 48.2663 50.8045C48.2224 50.5414 48.1418 50.2845 48.0243 50.0337C47.9051 49.7724 47.7403 49.562 47.5299 49.4024C47.33 49.2411 47.0722 49.1867 46.7565 49.2393C46.4093 49.2971 46.0875 49.4751 45.7911 49.7732C45.5053 50.0695 45.2624 50.429 45.0625 50.8516C44.8608 51.2637 44.7152 51.688 44.6257 52.1247C44.5345 52.5508 44.5161 52.9269 44.5704 53.2531C44.6142 53.5161 44.6949 53.7731 44.8124 54.0238C44.9404 54.2728 45.1087 54.4719 45.3174 54.621C45.5243 54.7595 45.775 54.8042 46.0696 54.7552ZM56.2972 54.7706C56.0026 54.8197 55.6616 54.8495 55.274 54.86C54.8882 54.881 54.5059 54.8582 54.1272 54.7915C53.7484 54.7248 53.417 54.5854 53.1329 54.3732C52.8594 54.1593 52.6884 53.8471 52.62 53.4368C52.5745 53.1632 52.6034 52.9151 52.7069 52.6924C52.8086 52.4591 53.012 52.3171 53.3172 52.2663C53.5066 52.2347 53.6618 52.2575 53.7827 52.3347C53.9037 52.4119 54.0125 52.5127 54.1089 52.6372C54.2159 52.76 54.3342 52.8862 54.464 53.016C54.6025 53.1335 54.7743 53.2238 54.9795 53.287C55.1952 53.3484 55.4714 53.351 55.8081 53.2949C56.0501 53.2546 56.3087 53.1845 56.5841 53.0845C56.8681 52.9723 57.1023 52.8198 57.2864 52.6269C57.4705 52.434 57.5398 52.2008 57.4942 51.9272C57.4539 51.6852 57.3224 51.5125 57.0997 51.409C56.8753 51.295 56.5965 51.2117 56.2633 51.1591C55.9301 51.1065 55.5811 51.0565 55.2164 51.0091C54.8499 50.9512 54.4948 50.8644 54.1511 50.7486C53.8074 50.6328 53.5128 50.4548 53.2673 50.2146C53.0201 49.9638 52.8597 49.6175 52.786 49.1756C52.7177 48.7652 52.7589 48.3961 52.9097 48.0682C53.0606 47.7403 53.278 47.4553 53.5621 47.2133C53.855 46.9591 54.1785 46.7592 54.5328 46.6137C54.8958 46.4559 55.2509 46.348 55.5981 46.2902C55.798 46.2569 56.0339 46.2446 56.3057 46.2534C56.5757 46.2517 56.8458 46.2824 57.1158 46.3455C57.3859 46.4087 57.6208 46.5209 57.8207 46.6823C58.0189 46.8331 58.1408 47.0453 58.1863 47.3188C58.267 47.8028 58.0653 48.0852 57.5813 48.1658L57.3761 48.2C57.0307 48.0737 56.7396 47.9816 56.5028 47.9237C56.2661 47.8658 56.0057 47.8606 55.7216 47.9079C55.5954 47.9289 55.4191 47.9745 55.1929 48.0446C54.9755 48.1025 54.7852 48.1937 54.6221 48.3182C54.459 48.4427 54.395 48.6101 54.43 48.8206C54.4598 48.9994 54.5843 49.1301 54.8035 49.2125C55.0227 49.2949 55.2989 49.3625 55.6321 49.4151C55.9653 49.4677 56.316 49.5282 56.6842 49.5967C57.0525 49.6651 57.4111 49.7729 57.76 49.9203C58.1072 50.0571 58.4053 50.2561 58.6543 50.5174C58.9033 50.7787 59.0646 51.1303 59.1383 51.5722C59.2452 52.2141 59.168 52.7568 58.9067 53.2004C58.6559 53.6423 58.2929 53.9948 57.8176 54.2578C57.3512 54.5085 56.8444 54.6795 56.2972 54.7706ZM63.8375 53.5955C63.5113 53.6498 63.2527 53.5902 63.0616 53.4166C62.8704 53.243 62.7249 53.0185 62.625 52.7432C62.5338 52.4556 62.468 52.1908 62.4277 51.9488L62.3278 51.349C62.2174 50.6862 62.1166 50.0163 62.0255 49.3394C61.9448 48.6608 61.8449 47.9313 61.7257 47.1509C61.4644 47.2053 61.2409 47.2587 61.055 47.3113C60.8796 47.3622 60.6972 47.4034 60.5078 47.4349C60.0238 47.5155 59.7424 47.3191 59.6635 46.8457C59.6337 46.6668 59.6372 46.4932 59.6741 46.3248C59.7092 46.146 59.8232 46.0188 60.0161 45.9435L61.3523 45.3964C61.5242 45.3245 61.6215 45.1948 61.6443 45.0071C61.6759 44.8072 61.6715 44.5863 61.6312 44.3443C61.5997 44.09 61.5743 43.8401 61.555 43.5946C61.5462 43.3474 61.5918 43.1343 61.6918 42.9554C61.8023 42.7748 62.0154 42.6582 62.331 42.6056C62.552 42.5688 62.7256 42.6048 62.8518 42.7135C62.9868 42.81 63.0894 42.9389 63.1595 43.1002C63.2297 43.2615 63.2779 43.4211 63.3042 43.579C63.3077 43.6 63.3147 43.6745 63.3252 43.8025C63.334 43.92 63.3375 44.0384 63.3357 44.1576C63.3445 44.2751 63.3515 44.3497 63.3567 44.3812L63.4409 44.8863L65.3663 44.5655C65.5978 44.5269 65.7951 44.6076 65.9582 44.8075C66.1195 44.9969 66.2185 45.2021 66.2554 45.423C66.2624 45.4651 66.2597 45.5467 66.2475 45.6677C66.2352 45.7887 66.1957 45.9088 66.1291 46.028C66.0607 46.1367 65.9528 46.2034 65.8055 46.2279L63.7854 46.5645C63.7748 46.5662 63.7555 46.5802 63.7275 46.6066C63.6977 46.6223 63.6661 46.66 63.6328 46.7197L63.6091 46.7723C63.6038 47.0651 63.6056 47.3027 63.6143 47.4851C63.6213 47.6569 63.6318 47.8174 63.6459 47.9665C63.6686 48.1032 63.6967 48.2716 63.73 48.4715C63.8264 49.0502 63.9333 49.6271 64.0508 50.2023C64.1788 50.7757 64.2962 51.3834 64.4031 52.0252C64.4382 52.2356 64.4584 52.4539 64.4636 52.6802C64.4688 52.9064 64.4259 53.1028 64.3347 53.2694C64.2452 53.4465 64.0795 53.5552 63.8375 53.5955ZM71.708 52.1221C71.224 52.2027 70.7532 52.1676 70.2955 52.0167C69.8378 51.8659 69.4363 51.63 69.0908 51.3091C68.7436 50.9776 68.4885 50.5822 68.3255 50.1227L68.1914 49.3178C68.0932 48.7286 68.0994 48.1166 68.2099 47.4818C68.3204 46.847 68.5282 46.2447 68.8334 45.6748C69.1368 45.0944 69.5314 44.6069 70.0172 44.2124C70.5012 43.8073 71.0641 43.5513 71.7059 43.4444C71.969 43.4006 72.2031 43.4103 72.4082 43.4734C72.6239 43.5348 72.8194 43.6049 72.9948 43.6839C73.1789 43.7505 73.3516 43.7812 73.513 43.776C73.5253 43.3305 73.5937 43.0272 73.7182 42.8659C73.841 42.694 74.0286 42.5871 74.2811 42.545C74.5863 42.4942 74.8081 42.5599 74.9466 42.7423C75.0939 42.9124 75.1921 43.1448 75.2412 43.4394C75.3376 44.0181 75.4164 44.5889 75.4778 45.1518C75.5497 45.7129 75.6347 46.2881 75.7328 46.8773C75.81 47.3403 75.916 47.8146 76.051 48.3004C76.186 48.7861 76.2921 49.2605 76.3692 49.7234L76.4244 50.0549C76.463 50.2863 76.4516 50.5099 76.3902 50.7256C76.3376 50.929 76.1587 51.0562 75.8536 51.107C75.5695 51.1543 75.3503 51.1043 75.196 50.957C75.0504 50.7974 74.9365 50.6001 74.8541 50.3652C74.7804 50.1179 74.7112 49.8969 74.6463 49.7023L74.5726 49.6497C74.2745 50.067 74.0079 50.4466 73.7729 50.7886C73.5485 51.1288 73.2828 51.4163 72.9759 51.6513C72.6672 51.8757 72.2446 52.0327 71.708 52.1221ZM71.2846 50.5543C71.6529 50.493 71.9817 50.3246 72.271 50.0493C72.5692 49.7618 72.82 49.4172 73.0234 49.0157C73.2251 48.6036 73.3663 48.1853 73.447 47.761C73.5277 47.3366 73.5391 46.9508 73.4812 46.6036C73.4374 46.3406 73.3568 46.0837 73.2393 45.8329C73.1201 45.5716 72.9552 45.3612 72.7448 45.2016C72.5449 45.0402 72.2871 44.9859 71.9715 45.0384C71.6243 45.0963 71.3025 45.2743 71.0061 45.5723C70.7203 45.8687 70.4774 46.2282 70.2774 46.6508C70.0757 47.0628 69.9302 47.4872 69.8407 47.9238C69.7495 48.35 69.731 48.7261 69.7854 49.0523C69.8292 49.3153 69.9099 49.5722 70.0273 49.823C70.1553 50.072 70.3237 50.271 70.5323 50.4201C70.7392 50.5587 70.99 50.6034 71.2846 50.5543ZM87.4905 49.4927C87.0065 49.5733 86.5356 49.5382 86.078 49.3874C85.6203 49.2365 85.2187 49.0006 84.8733 48.6797C84.5261 48.3483 84.271 47.9528 84.1079 47.4934L83.9738 46.6885C83.8757 46.0992 83.8818 45.4872 83.9924 44.8525C84.1029 44.2177 84.3107 43.6153 84.6159 43.0454C84.9193 42.465 85.3139 41.9775 85.7996 41.583C86.2837 41.178 86.8466 40.922 87.4884 40.815C87.7514 40.7712 87.9855 40.7809 88.1907 40.844C88.4064 40.9054 88.6019 40.9756 88.7773 41.0545C88.9614 41.1211 89.1341 41.1518 89.2955 41.1466C89.3078 40.7012 89.3762 40.3978 89.5007 40.2365C89.6234 40.0646 89.8111 39.9577 90.0636 39.9156C90.3687 39.8648 90.5906 39.9306 90.7291 40.1129C90.8764 40.283 90.9746 40.5154 91.0236 40.81C91.12 41.3887 91.1989 41.9595 91.2603 42.5224C91.3321 43.0836 91.4171 43.6587 91.5153 44.2479C91.5924 44.7109 91.6985 45.1853 91.8335 45.671C91.9685 46.1568 92.0745 46.6311 92.1517 47.0941L92.2069 47.4255C92.2454 47.657 92.234 47.8806 92.1726 48.0962C92.12 48.2997 91.9412 48.4268 91.636 48.4776C91.3519 48.5249 91.1327 48.4749 90.9784 48.3276C90.8329 48.1681 90.7189 47.9708 90.6365 47.7358C90.5629 47.4885 90.4936 47.2676 90.4288 47.0729L90.3551 47.0203C90.057 47.4376 89.7904 47.8173 89.5554 48.1592C89.3309 48.4994 89.0652 48.787 88.7584 49.0219C88.4497 49.2464 88.0271 49.4033 87.4905 49.4927ZM87.0671 47.9249C87.4353 47.8636 87.7641 47.6953 88.0535 47.42C88.3516 47.1324 88.6024 46.7878 88.8059 46.3863C89.0076 45.9742 89.1487 45.556 89.2294 45.1316C89.3101 44.7072 89.3216 44.3215 89.2637 43.9742C89.2199 43.7112 89.1392 43.4543 89.0218 43.2035C88.9025 42.9422 88.7377 42.7318 88.5273 42.5722C88.3274 42.4109 88.0696 42.3565 87.754 42.4091C87.4068 42.4669 87.085 42.6449 86.7886 42.943C86.5027 43.2393 86.2598 43.5988 86.0599 44.0214C85.8582 44.4335 85.7126 44.8578 85.6232 45.2945C85.532 45.7206 85.5135 46.0967 85.5679 46.4229C85.6117 46.6859 85.6923 46.9428 85.8098 47.1936C85.9378 47.4426 86.1061 47.6417 86.3148 47.7907C86.5217 47.9293 86.7725 47.974 87.0671 47.9249ZM95.627 48.056C95.385 48.0963 95.1877 48.0481 95.0352 47.9113C94.8914 47.7622 94.7783 47.5702 94.6959 47.3352C94.624 47.0985 94.567 46.8539 94.525 46.6013C94.5039 46.4751 94.4838 46.3541 94.4645 46.2383C94.454 46.1103 94.44 45.9937 94.4224 45.8885C94.3804 45.636 94.3208 45.2458 94.2436 44.718C94.1665 44.1901 94.0824 43.5878 93.9912 42.9109C93.8983 42.2235 93.8063 41.5089 93.7152 40.7671C93.624 40.0253 93.5478 39.3081 93.4865 38.6154C93.4357 37.921 93.4041 37.3099 93.3919 36.782C93.3867 36.2963 93.4551 35.8956 93.5971 35.58C93.7497 35.2626 93.926 35.0872 94.1259 35.0539C94.3048 35.0241 94.481 35.1408 94.6546 35.4038C94.8282 35.6669 94.9535 36.1272 95.0306 36.7848C95.0323 38.0281 95.0796 39.2205 95.1724 40.3621C95.2653 41.5037 95.4117 42.6742 95.6115 43.8737C95.6956 44.3787 95.8061 44.8794 95.9428 45.3757C96.0796 45.872 96.19 46.3726 96.2742 46.8776C96.3285 47.2038 96.303 47.473 96.1978 47.6852C96.0908 47.8868 95.9006 48.0104 95.627 48.056ZM99.7422 47.3704C99.5002 47.4107 99.3029 47.3625 99.1503 47.2257C99.0065 47.0767 98.8935 46.8846 98.811 46.6496C98.7392 46.4129 98.6822 46.1683 98.6401 45.9158C98.6191 45.7895 98.5989 45.6685 98.5796 45.5528C98.5691 45.4247 98.5551 45.3081 98.5376 45.2029C98.4955 44.9504 98.4359 44.5602 98.3588 44.0324C98.2817 43.5045 98.1975 42.9022 98.1064 42.2253C98.0135 41.5379 97.9215 40.8233 97.8303 40.0815C97.7392 39.3397 97.663 38.6225 97.6016 37.9298C97.5508 37.2354 97.5193 36.6243 97.5071 36.0965C97.5018 35.6107 97.5702 35.21 97.7123 34.8944C97.8649 34.577 98.0411 34.4017 98.241 34.3683C98.4199 34.3385 98.5961 34.4552 98.7697 34.7182C98.9433 34.9813 99.0687 35.4416 99.1458 36.0992C99.1475 37.3425 99.1947 38.5349 99.2876 39.6765C99.3805 40.8181 99.5268 41.9887 99.7266 43.1881C99.8108 43.6932 99.9212 44.1938 100.058 44.6901C100.195 45.1864 100.305 45.687 100.389 46.1921C100.444 46.5182 100.418 46.7874 100.313 46.9996C100.206 47.2012 100.016 47.3249 99.7422 47.3704ZM105.338 46.5192C104.854 46.5999 104.383 46.5648 103.926 46.4139C103.468 46.2631 103.066 46.0272 102.721 45.7063C102.374 45.3748 102.119 44.9794 101.956 44.5199L101.822 43.715C101.723 43.1258 101.73 42.5138 101.84 41.879C101.951 41.2442 102.158 40.6419 102.464 40.072C102.767 39.4915 103.162 39.0041 103.647 38.6095C104.131 38.2045 104.694 37.9485 105.336 37.8416C105.599 37.7978 105.833 37.8074 106.038 37.8706C106.254 37.932 106.45 38.0021 106.625 38.081C106.809 38.1477 106.982 38.1784 107.143 38.1731C107.156 37.7277 107.224 37.4244 107.348 37.263C107.471 37.0912 107.659 36.9842 107.911 36.9422C108.216 36.8913 108.438 36.9571 108.577 37.1395C108.724 37.3096 108.822 37.5419 108.871 37.8365C108.968 38.4152 109.047 38.986 109.108 39.5489C109.18 40.1101 109.265 40.6853 109.363 41.2745C109.44 41.7374 109.546 42.2118 109.681 42.6976C109.816 43.1833 109.922 43.6577 109.999 44.1206L110.055 44.452C110.093 44.6835 110.082 44.9071 110.02 45.1228C109.968 45.3262 109.789 45.4533 109.484 45.5042C109.2 45.5515 108.981 45.5015 108.826 45.3542C108.681 45.1946 108.567 44.9973 108.484 44.7623C108.411 44.5151 108.341 44.2941 108.277 44.0995L108.203 44.0468C107.905 44.4642 107.638 44.8438 107.403 45.1857C107.179 45.5259 106.913 45.8135 106.606 46.0485C106.297 46.2729 105.875 46.4298 105.338 46.5192ZM104.915 44.9515C105.283 44.8901 105.612 44.7218 105.901 44.4465C106.199 44.1589 106.45 43.8144 106.654 43.4128C106.855 43.0007 106.997 42.5825 107.077 42.1582C107.158 41.7338 107.169 41.348 107.111 41.0008C107.068 40.7377 106.987 40.4808 106.87 40.2301C106.75 39.9688 106.585 39.7583 106.375 39.5987C106.175 39.4374 105.917 39.383 105.602 39.4356C105.255 39.4935 104.933 39.6714 104.636 39.9695C104.35 40.2659 104.108 40.6253 103.908 41.0479C103.706 41.46 103.56 41.8844 103.471 42.321C103.38 42.7471 103.361 43.1233 103.416 43.4494C103.459 43.7125 103.54 43.9694 103.658 44.2202C103.786 44.4692 103.954 44.6682 104.163 44.8173C104.369 44.9558 104.62 45.0006 104.915 44.9515ZM122.802 43.8531C121.918 44.0004 121.095 43.9319 120.334 43.6478C119.573 43.3637 118.934 42.9024 118.417 42.2641C117.898 41.6152 117.563 40.8384 117.412 39.9335C117.321 39.3864 117.31 38.7989 117.378 38.1712C117.445 37.5328 117.583 36.9042 117.794 36.2852C118.015 35.6644 118.302 35.0866 118.657 34.5518C119.02 34.0047 119.452 33.5488 119.953 33.1841C120.455 32.8194 121.016 32.5853 121.637 32.4819C122.11 32.403 122.594 32.4197 123.089 32.532C123.594 32.6425 124.031 32.8617 124.399 33.1897C124.776 33.5053 125.011 33.942 125.104 34.4996L125.183 34.9731C125.139 35.1642 125.057 35.2914 124.938 35.3545C124.819 35.4176 124.68 35.4623 124.522 35.4886C124.301 35.5254 124.118 35.4965 123.973 35.4018C123.838 35.3053 123.714 35.1799 123.602 35.0256C123.49 34.8713 123.372 34.7178 123.249 34.5653C123.127 34.4127 122.971 34.2926 122.784 34.2049C122.607 34.1154 122.371 34.0953 122.076 34.1443C121.508 34.239 121.021 34.4661 120.616 34.8255C120.22 35.1727 119.902 35.5988 119.661 36.1038C119.421 36.6088 119.261 37.1384 119.18 37.6925C119.097 38.2361 119.097 38.7499 119.177 39.2339C119.238 39.6022 119.359 39.9713 119.54 40.3414C119.719 40.7009 119.942 41.0314 120.208 41.3331C120.483 41.6224 120.796 41.846 121.147 42.0039C121.496 42.1512 121.87 42.1915 122.27 42.1249C122.754 42.0443 123.223 41.8742 123.678 41.6147C124.132 41.3552 124.511 41.0326 124.814 40.6468C124.956 40.4609 125.109 40.2786 125.274 40.0997C125.439 39.9209 125.643 39.8113 125.885 39.771C126.116 39.7324 126.329 39.778 126.524 39.9078C126.727 40.0253 126.853 40.2261 126.9 40.5102C126.919 40.6259 126.907 40.7469 126.863 40.8732C126.819 40.9994 126.764 41.1222 126.697 41.2414C126.639 41.3484 126.57 41.4518 126.489 41.5518C126.407 41.6412 126.325 41.7359 126.245 41.8358C125.794 42.3759 125.284 42.8178 124.714 43.1615C124.144 43.5051 123.506 43.7357 122.802 43.8531ZM131.817 42.1078C131.333 42.1885 130.862 42.1534 130.405 42.0025C129.947 41.8517 129.545 41.6158 129.2 41.2949C128.853 40.9634 128.598 40.568 128.434 40.1085L128.3 39.3036C128.202 38.7144 128.208 38.1024 128.319 37.4676C128.429 36.8328 128.637 36.2305 128.942 35.6606C129.246 35.0802 129.64 34.5927 130.126 34.1982C130.61 33.7931 131.173 33.5371 131.815 33.4302C132.078 33.3864 132.312 33.396 132.517 33.4592C132.733 33.5206 132.928 33.5907 133.104 33.6696C133.288 33.7363 133.461 33.767 133.622 33.7617C133.634 33.3163 133.703 33.013 133.827 32.8516C133.95 32.6798 134.138 32.5728 134.39 32.5308C134.695 32.4799 134.917 32.5457 135.056 32.7281C135.203 32.8982 135.301 33.1305 135.35 33.4252C135.447 34.0038 135.525 34.5746 135.587 35.1376C135.659 35.6987 135.744 36.2739 135.842 36.8631C135.919 37.3261 136.025 37.8004 136.16 38.2862C136.295 38.7719 136.401 39.2463 136.478 39.7092L136.533 40.0406C136.572 40.2721 136.561 40.4957 136.499 40.7114C136.447 40.9148 136.268 41.0419 135.963 41.0928C135.678 41.1401 135.459 41.0901 135.305 40.9428C135.159 40.7832 135.045 40.5859 134.963 40.3509C134.889 40.1037 134.82 39.8827 134.755 39.6881L134.682 39.6354C134.384 40.0528 134.117 40.4324 133.882 40.7744C133.657 41.1145 133.392 41.4021 133.085 41.6371C132.776 41.8615 132.354 42.0184 131.817 42.1078ZM131.394 40.5401C131.762 40.4787 132.091 40.3104 132.38 40.0351C132.678 39.7476 132.929 39.403 133.132 39.0014C133.334 38.5893 133.475 38.1711 133.556 37.7468C133.637 37.3224 133.648 36.9366 133.59 36.5894C133.546 36.3264 133.466 36.0694 133.348 35.8187C133.229 35.5574 133.064 35.3469 132.854 35.1874C132.654 35.026 132.396 34.9716 132.081 35.0242C131.733 35.0821 131.412 35.26 131.115 35.5581C130.829 35.8545 130.586 36.2139 130.386 36.6365C130.185 37.0486 130.039 37.473 129.95 37.9096C129.859 38.3357 129.84 38.7119 129.894 39.038C129.938 39.3011 130.019 39.558 130.136 39.8088C130.264 40.0578 130.433 40.2568 130.641 40.4059C130.848 40.5444 131.099 40.5892 131.394 40.5401ZM139.32 40.8579C139.13 40.8894 138.978 40.85 138.862 40.7395C138.746 40.629 138.659 40.4922 138.599 40.3291C138.538 40.1555 138.48 40.003 138.425 39.8714L138.231 38.7035C138.133 38.1143 138.06 37.5155 138.013 36.907C137.964 36.2879 137.891 35.6891 137.794 35.1104C137.749 34.8368 137.679 34.5782 137.584 34.3344C137.489 34.0907 137.42 33.8373 137.376 33.5742L137.305 33.1481C137.363 32.9763 137.454 32.8421 137.579 32.7457C137.714 32.6475 137.86 32.5852 138.018 32.5589C138.25 32.5204 138.435 32.5598 138.573 32.6773C138.71 32.7843 138.814 32.9237 138.886 33.0956C138.969 33.2657 139.043 33.4209 139.11 33.5612C139.175 33.691 139.256 33.7585 139.354 33.7637C139.626 33.513 139.883 33.2701 140.125 33.0352C140.378 32.7985 140.647 32.5968 140.933 32.4302C141.227 32.2514 141.564 32.1304 141.943 32.0673C142.132 32.0358 142.339 32.0445 142.563 32.0937C142.798 32.141 143.008 32.2305 143.192 32.362C143.374 32.483 143.484 32.654 143.521 32.8749C143.566 33.1485 143.489 33.3668 143.289 33.5299C143.1 33.6912 142.911 33.7876 142.721 33.8192C142.595 33.8402 142.47 33.8341 142.345 33.8008C142.221 33.7674 142.095 33.7613 141.969 33.7823C141.601 33.8437 141.269 33.9962 140.975 34.2399C140.689 34.4714 140.446 34.7335 140.246 35.0264C140.046 35.3192 139.891 35.5884 139.78 35.8339C139.754 35.9356 139.749 36.0987 139.764 36.3231C139.78 36.5476 139.806 36.8027 139.843 37.0886C139.878 37.3639 139.913 37.634 139.946 37.8987C139.99 38.1618 140.022 38.3889 140.043 38.58C140.09 38.929 140.11 39.2718 140.101 39.6085C140.101 39.9329 140.045 40.2126 139.933 40.4476C139.819 40.672 139.614 40.8088 139.32 40.8579ZM148.315 39.0349C148.115 39.0682 147.957 39.0945 147.841 39.1138C147.734 39.1208 147.598 39.1164 147.434 39.1006C147.353 39.0708 147.245 39.0401 147.11 39.0085C146.973 38.9664 146.843 38.9287 146.718 38.8954C146.594 38.862 146.505 38.8498 146.452 38.8585C146.379 38.8708 146.274 38.9585 146.139 39.1216C146.013 39.2724 145.855 39.3635 145.666 39.3951C145.392 39.4407 145.187 39.3775 145.05 39.2057C144.912 39.0233 144.822 38.8058 144.779 38.5533C144.741 38.3218 144.717 38.1149 144.709 37.9325C144.698 37.7396 144.705 37.5222 144.73 37.2802C144.695 36.0965 144.618 34.8874 144.498 33.6529C144.388 32.4061 144.232 31.1777 144.03 29.9677C143.98 29.6626 143.93 29.3627 143.881 29.0681C143.831 28.7735 143.772 28.4806 143.702 28.1895C143.656 27.9808 143.695 27.823 143.817 27.7161C143.94 27.6091 144.086 27.5416 144.254 27.5135L144.396 27.4899C144.628 27.4513 144.832 27.4768 145.009 27.5662C145.186 27.6556 145.32 27.8442 145.411 28.1318L145.553 28.984C145.655 29.5943 145.746 30.2063 145.827 30.82C145.908 31.4338 146 32.0888 146.106 32.785L146.153 32.7771C146.502 32.2107 146.911 31.7101 147.379 31.2752C147.847 30.8403 148.402 30.5694 149.044 30.4625C149.538 30.3801 150.036 30.4161 150.538 30.5705C151.048 30.7125 151.49 30.9633 151.864 31.3228C152.235 31.6718 152.465 32.1094 152.553 32.6354C152.67 33.3404 152.653 34.0462 152.5 34.7529C152.346 35.4491 152.075 36.0996 151.69 36.7046C151.304 37.3095 150.827 37.8216 150.259 38.2406C149.689 38.6492 149.041 38.9139 148.315 39.0349ZM148.033 37.3462C148.444 37.2778 148.843 37.1086 149.23 36.8386C149.618 36.5685 149.957 36.2363 150.248 35.8417C150.539 35.4472 150.756 35.0272 150.898 34.5818C151.051 34.1347 151.092 33.7006 151.022 33.2798C150.966 32.9431 150.793 32.6529 150.504 32.4091C150.223 32.153 149.904 32.0548 149.546 32.1144C149.167 32.1775 148.835 32.3248 148.549 32.5563C148.274 32.786 148.028 33.0648 147.813 33.3927C147.606 33.7083 147.424 34.0467 147.268 34.408C147.112 34.7692 146.968 35.1068 146.837 35.4206C146.791 35.6013 146.728 35.8064 146.647 36.0361C146.577 36.2641 146.558 36.4728 146.589 36.6622C146.621 36.8516 146.722 37.0024 146.892 37.1146C147.062 37.2269 147.253 37.3032 147.465 37.3435C147.686 37.3716 147.876 37.3725 148.033 37.3462ZM159.133 37.3948C158.375 37.521 157.643 37.4753 156.937 37.2579C156.23 37.0404 155.627 36.6651 155.127 36.1319C154.627 35.5988 154.311 34.9324 154.177 34.1328C154.086 33.5857 154.113 33.0622 154.256 32.5624C154.409 32.0504 154.625 31.5603 154.904 31.0921C155.193 30.6222 155.487 30.1785 155.785 29.7612C155.943 29.5402 156.146 29.3658 156.395 29.2378C156.642 29.0993 156.903 29.0072 157.176 28.9616C157.86 28.8477 158.53 28.8118 159.186 28.8539C159.842 28.896 160.445 29.0443 160.996 29.2986C161.555 29.5406 162.028 29.9106 162.413 30.4087C162.797 30.8962 163.054 31.5293 163.184 32.3079C163.291 32.9497 163.251 33.5564 163.066 34.1281C162.88 34.6997 162.587 35.2135 162.187 35.6694C161.798 36.1236 161.336 36.5032 160.803 36.8083C160.279 37.1011 159.722 37.2966 159.133 37.3948ZM158.525 35.6955C159.104 35.5991 159.635 35.408 160.117 35.1222C160.597 34.8259 160.966 34.4454 161.224 33.9807C161.491 33.5037 161.573 32.9601 161.472 32.3498C161.382 31.8132 161.15 31.3924 160.775 31.0872C160.41 30.7803 159.977 30.5821 159.475 30.4927C158.972 30.3927 158.473 30.3839 157.979 30.4663C157.726 30.5083 157.527 30.5793 157.381 30.6793C157.236 30.7792 157.111 30.9029 157.005 31.0502C156.9 31.1974 156.777 31.3693 156.637 31.5657C156.393 31.9199 156.186 32.3004 156.016 32.7072C155.844 33.1035 155.797 33.5332 155.874 33.9961C155.997 34.7326 156.306 35.2272 156.802 35.4797C157.299 35.7323 157.873 35.8042 158.525 35.6955ZM166.731 35.8046C166.468 35.8484 166.261 35.8072 166.11 35.6809C165.957 35.5441 165.847 35.3679 165.778 35.1522C165.708 34.926 165.656 34.7076 165.621 34.4972C165.54 34.0132 165.47 33.5275 165.41 33.04C165.361 32.5507 165.3 32.0851 165.226 31.6432C165.147 31.1697 165.019 30.7261 164.842 30.3122C164.665 29.8984 164.541 29.4757 164.469 29.0443L164.366 28.4288C164.424 28.1921 164.5 28.0281 164.593 27.937C164.684 27.8353 164.819 27.7695 164.998 27.7397C165.324 27.6854 165.578 27.7511 165.76 27.937C165.941 28.1124 166.076 28.3386 166.166 28.6157C166.264 28.8805 166.343 29.1269 166.402 29.3549C166.432 29.4688 166.491 29.6915 166.578 30.023C166.677 30.3527 166.755 30.6639 166.815 30.9568L166.878 30.9463L166.931 30.8726C167.082 30.5447 167.239 30.194 167.404 29.8205C167.569 29.447 167.759 29.091 167.973 28.7526C168.197 28.4124 168.457 28.1257 168.754 27.8925C169.048 27.6488 169.401 27.4927 169.811 27.4244C170.337 27.3367 170.81 27.4148 171.229 27.6586C171.646 27.8918 172.022 28.2294 172.355 28.6713C172.686 29.1027 172.977 29.5841 173.228 30.1155C173.479 30.6468 173.695 31.1677 173.878 31.678C174.06 32.1883 174.22 32.6267 174.356 32.9932L174.422 33.3877C174.461 33.6192 174.436 33.8612 174.348 34.1137C174.259 34.3557 174.077 34.4995 173.804 34.5451C173.52 34.5924 173.297 34.5538 173.136 34.4293C172.985 34.303 172.869 34.1277 172.788 33.9032C172.752 33.812 172.7 33.6638 172.633 33.4587C172.565 33.243 172.489 33.0124 172.405 32.7668C172.319 32.5108 172.241 32.275 172.173 32.0593C172.103 31.833 172.049 31.6691 172.01 31.5674C171.943 31.3622 171.829 31.1272 171.666 30.8624C171.511 30.5853 171.369 30.3495 171.239 30.1548C171.108 29.9496 170.948 29.7383 170.761 29.5208C170.573 29.3034 170.337 29.2183 170.053 29.2657C169.801 29.3077 169.584 29.4357 169.403 29.6496C169.233 29.8618 169.09 30.1021 168.972 30.3703C168.865 30.6369 168.769 30.8745 168.685 31.0832C168.492 31.5479 168.326 32.0082 168.185 32.4641C168.045 32.92 167.895 33.4154 167.736 33.9502C167.674 34.1659 167.623 34.4123 167.583 34.6893C167.541 34.9559 167.462 35.1961 167.346 35.4101C167.23 35.624 167.025 35.7555 166.731 35.8046ZM179.164 34.2197C178.68 34.3003 178.21 34.2652 177.752 34.1144C177.294 33.9636 176.893 33.7277 176.547 33.4067C176.2 33.0753 175.945 32.6798 175.782 32.2204L175.648 31.4155C175.55 30.8263 175.556 30.2143 175.666 29.5795C175.777 28.9447 175.985 28.3423 176.29 27.7724C176.593 27.192 176.988 26.7046 177.474 26.31C177.958 25.905 178.521 25.649 179.162 25.5421C179.425 25.4982 179.66 25.5079 179.865 25.571C180.08 25.6324 180.276 25.7026 180.451 25.7815C180.635 25.8482 180.808 25.8789 180.969 25.8736C180.982 25.4282 181.05 25.1248 181.175 24.9635C181.297 24.7917 181.485 24.6847 181.738 24.6426C182.043 24.5918 182.265 24.6576 182.403 24.84C182.55 25.0101 182.649 25.2424 182.698 25.537C182.794 26.1157 182.873 26.6865 182.934 27.2494C183.006 27.8106 183.091 28.3858 183.189 28.975C183.266 29.4379 183.372 29.9123 183.507 30.398C183.642 30.8838 183.749 31.3581 183.826 31.8211L183.881 32.1525C183.919 32.384 183.908 32.6076 183.847 32.8233C183.794 33.0267 183.615 33.1538 183.31 33.2046C183.026 33.252 182.807 33.202 182.652 33.0547C182.507 32.8951 182.393 32.6978 182.31 32.4628C182.237 32.2155 182.168 31.9946 182.103 31.7999L182.029 31.7473C181.731 32.1647 181.464 32.5443 181.229 32.8862C181.005 33.2264 180.739 33.514 180.432 33.7489C180.124 33.9734 179.701 34.1303 179.164 34.2197ZM178.741 32.652C179.109 32.5906 179.438 32.4223 179.727 32.147C180.026 31.8594 180.276 31.5149 180.48 31.1133C180.682 30.7012 180.823 30.283 180.903 29.8586C180.984 29.4343 180.996 29.0485 180.938 28.7013C180.894 28.4382 180.813 28.1813 180.696 27.9306C180.576 27.6693 180.412 27.4588 180.201 27.2992C180.001 27.1379 179.744 27.0835 179.428 27.1361C179.081 27.1939 178.759 27.3719 178.463 27.67C178.177 27.9663 177.934 28.3258 177.734 28.7484C177.532 29.1605 177.387 29.5849 177.297 30.0215C177.206 30.4476 177.187 30.8237 177.242 31.1499C177.286 31.413 177.366 31.6699 177.484 31.9206C177.612 32.1697 177.78 32.3687 177.989 32.5178C178.196 32.6563 178.446 32.701 178.741 32.652ZM186.667 32.9698C186.478 33.0013 186.325 32.9618 186.209 32.8514C186.094 32.7409 186.006 32.6041 185.946 32.441C185.885 32.2674 185.827 32.1148 185.773 31.9833L185.578 30.8154C185.48 30.2262 185.407 29.6273 185.36 29.0188C185.311 28.3998 185.238 27.801 185.142 27.2223C185.096 26.9487 185.026 26.6901 184.931 26.4463C184.837 26.2025 184.767 25.9491 184.724 25.6861L184.653 25.26C184.711 25.0881 184.802 24.954 184.926 24.8575C185.061 24.7594 185.208 24.6971 185.366 24.6708C185.597 24.6323 185.782 24.6717 185.921 24.7892C186.057 24.8962 186.162 25.0356 186.234 25.2075C186.316 25.3776 186.39 25.5328 186.457 25.6731C186.522 25.8028 186.603 25.8704 186.702 25.8756C186.974 25.6249 187.23 25.382 187.472 25.1471C187.725 24.9103 187.994 24.7087 188.28 24.5421C188.575 24.3633 188.911 24.2423 189.29 24.1792C189.479 24.1476 189.686 24.1564 189.911 24.2055C190.146 24.2529 190.355 24.3423 190.54 24.4739C190.722 24.5949 190.831 24.7659 190.868 24.9868C190.914 25.2604 190.837 25.4787 190.637 25.6418C190.447 25.8031 190.258 25.8995 190.069 25.9311C189.942 25.9521 189.817 25.946 189.692 25.9126C189.568 25.8793 189.443 25.8732 189.316 25.8942C188.948 25.9556 188.617 26.1081 188.322 26.3518C188.036 26.5833 187.793 26.8454 187.593 27.1383C187.393 27.4311 187.238 27.7003 187.128 27.9458C187.101 28.0475 187.096 28.2105 187.112 28.435C187.128 28.6595 187.154 28.9146 187.191 29.2005C187.226 29.4758 187.26 29.7458 187.293 30.0106C187.337 30.2737 187.37 30.5008 187.391 30.6919C187.438 31.0409 187.457 31.3837 187.448 31.7204C187.448 32.0448 187.392 32.3245 187.28 32.5595C187.166 32.7839 186.962 32.9207 186.667 32.9698ZM195.178 31.5518C194.694 31.6324 194.223 31.5973 193.766 31.4465C193.308 31.2957 192.906 31.0598 192.561 30.7389C192.214 30.4074 191.959 30.012 191.796 29.5525L191.661 28.7476C191.563 28.1584 191.569 27.5464 191.68 26.9116C191.791 26.2768 191.998 25.6745 192.304 25.1046C192.607 24.5241 193.002 24.0367 193.487 23.6421C193.971 23.2371 194.534 22.9811 195.176 22.8742C195.439 22.8303 195.673 22.84 195.878 22.9032C196.094 22.9645 196.29 23.0347 196.465 23.1136C196.649 23.1803 196.822 23.211 196.983 23.2057C196.995 22.7603 197.064 22.4569 197.188 22.2956C197.311 22.1238 197.499 22.0168 197.751 21.9747C198.056 21.9239 198.278 21.9897 198.417 22.1721C198.564 22.3422 198.662 22.5745 198.711 22.8691C198.808 23.4478 198.887 24.0186 198.948 24.5815C199.02 25.1427 199.105 25.7179 199.203 26.3071C199.28 26.77 199.386 27.2444 199.521 27.7301C199.656 28.2159 199.762 28.6902 199.839 29.1532L199.895 29.4846C199.933 29.7161 199.922 29.9397 199.86 30.1554C199.808 30.3588 199.629 30.4859 199.324 30.5367C199.04 30.5841 198.82 30.5341 198.666 30.3868C198.521 30.2272 198.407 30.0299 198.324 29.7949C198.251 29.5477 198.181 29.3267 198.116 29.132L198.043 29.0794C197.745 29.4968 197.478 29.8764 197.243 30.2183C197.019 30.5585 196.753 30.8461 196.446 31.0811C196.137 31.3055 195.715 31.4624 195.178 31.5518ZM194.755 29.9841C195.123 29.9227 195.452 29.7544 195.741 29.4791C196.039 29.1915 196.29 28.847 196.493 28.4454C196.695 28.0333 196.836 27.6151 196.917 27.1907C196.998 26.7664 197.009 26.3806 196.951 26.0334C196.908 25.7703 196.827 25.5134 196.709 25.2627C196.59 25.0014 196.425 24.7909 196.215 24.6313C196.015 24.47 195.757 24.4156 195.442 24.4682C195.094 24.526 194.773 24.704 194.476 25.0021C194.19 25.2984 193.947 25.6579 193.748 26.0805C193.546 26.4926 193.4 26.917 193.311 27.3536C193.22 27.7797 193.201 28.1559 193.255 28.482C193.299 28.7451 193.38 29.002 193.497 29.2527C193.625 29.5018 193.794 29.7008 194.002 29.8499C194.209 29.9884 194.46 30.0332 194.755 29.9841Z" fill="#534B37"/>
<defs>
<filter id="filter0_d_419_51306" x="4.4913" y="39.1348" width="26.9022" height="27.5506" filterUnits="userSpaceOnUse" color-interpolation-filters="sRGB">
<feFlood flood-opacity="0" result="BackgroundImageFix"/>
<feColorMatrix in="SourceAlpha" type="matrix" values="0 0 0 0 0 0 0 0 0 0 0 0 0 0 0 0 0 0 127 0" result="hardAlpha"/>
<feOffset dy="3.30753"/>
<feGaussianBlur stdDeviation="1.65377"/>
<feComposite in2="hardAlpha" operator="out"/>
<feColorMatrix type="matrix" values="0 0 0 0 0 0 0 0 0 0 0 0 0 0 0 0 0 0 0.25 0"/>
<feBlend mode="normal" in2="BackgroundImageFix" result="effect1_dropShadow_419_51306"/>
<feBlend mode="normal" in="SourceGraphic" in2="effect1_dropShadow_419_51306" result="shape"/>
</filter>
<filter id="filter1_d_419_51306" x="15.7403" y="2.64453" width="197.717" height="78.993" filterUnits="userSpaceOnUse" color-interpolation-filters="sRGB">
<feFlood flood-opacity="0" result="BackgroundImageFix"/>
<feColorMatrix in="SourceAlpha" type="matrix" values="0 0 0 0 0 0 0 0 0 0 0 0 0 0 0 0 0 0 127 0" result="hardAlpha"/>
<feOffset dy="3.30753"/>
<feGaussianBlur stdDeviation="1.65377"/>
<feComposite in2="hardAlpha" operator="out"/>
<feColorMatrix type="matrix" values="0 0 0 0 0 0 0 0 0 0 0 0 0 0 0 0 0 0 0.25 0"/>
<feBlend mode="normal" in2="BackgroundImageFix" result="effect1_dropShadow_419_51306"/>
<feBlend mode="normal" in="SourceGraphic" in2="effect1_dropShadow_419_51306" result="shape"/>
</filter>
</defs>
</svg>
