<svg width="267" height="364" viewBox="0 0 267 364" fill="none" xmlns="http://www.w3.org/2000/svg">
<path d="M-90 -83C-57.403 -82.3209 -28.6715 -68.018 -3.59637 -47.7649C13.0343 -34.3325 36.7129 -17.0928 40.8361 5.47628C42.7124 15.7465 43.0707 26.6629 42.9087 37.0842C42.5637 59.2841 24.9849 74.6999 4.04653 80.0917C-15.9233 85.2342 -34.9827 78.1511 -45.8266 60.1424C-55.7983 43.5823 -50.6809 34.1439 -34.168 29.1822C-10.9395 22.2028 15.0914 21.5096 39.1521 23.612C61.746 25.5862 86.9325 32.543 104.311 47.8361C111.667 54.3091 112 53 115.5 65C117.25 71 118 73.5 118 78C118.401 80.5 117 86 115.5 89.5C113 98.5 110.734 99.4628 109.298 107.36C107.226 118.76 104.901 130.012 100.036 140.587C96.5939 148.07 92.1984 154.065 87.0173 160.407C77.7904 171.702 70.2797 184.232 62.7285 196.678C54.557 210.147 49.5235 221.114 49.9039 236.965C50.2388 250.92 57.2099 268.912 65.4488 280.232C75.0663 293.446 91.2383 301.185 107.161 303.42C117.616 304.887 127.006 301.073 136.437 297.072C151.703 290.596 166.864 281.101 183.719 279.843C192.942 279.155 201.972 279.587 210.599 283.276C226.476 290.065 247.482 300.832 258.335 314.819C266.211 324.971 265.976 342.404 262.092 353.941C261.495 355.714 258.594 362.617 258.594 362.361" stroke="#F3E4BD" stroke-width="3" stroke-linecap="round" stroke-dasharray="12 12"/>
</svg>
