<svg width="190" height="156" viewBox="0 0 190 156" fill="none" xmlns="http://www.w3.org/2000/svg">
<path d="M7.95459 153.494V22.9148H180.259V153.494H7.95459Z" fill="#534B37"/>
<rect x="0.059082" y="133.085" width="189.124" height="9.87791" fill="#615842"/>
<path d="M0.059082 142.963H189.183V145.207C189.183 150.73 184.706 155.207 179.183 155.207H10.0591C4.53624 155.207 0.059082 150.73 0.059082 145.207V142.963Z" fill="#534B37"/>
<path d="M7.95459 20.7933C7.95459 9.74764 16.9089 0.793327 27.9546 0.793327H160.259C171.305 0.793327 180.259 9.74764 180.259 20.7933V22.9148H7.95459V20.7933Z" fill="#615842"/>
<path d="M7.95459 21.0544H180.259V45.0362H7.95459V21.0544Z" fill="#453E2C"/>
<path d="M77.2181 44.7891H57.7786V48.3067L77.2181 50.3433V44.7891Z" fill="#332D1E"/>
<path d="M164.797 45.0362H145.358V48.5538L164.797 50.5903V45.0362Z" fill="#332D1E"/>
<path d="M18.7698 64.1399C18.7698 58.617 23.2469 54.1399 28.7698 54.1399H158.412C163.935 54.1399 168.412 58.617 168.412 64.1399V133.085H18.7698V64.1399Z" fill="#4A422E"/>
<ellipse cx="34.9268" cy="24.0844" rx="9.02003" ry="8.96094" fill="#C0B4B4"/>
<circle cx="52.8807" cy="21.0544" r="3.49741" fill="#C0B4B4"/>
<circle cx="34.9269" cy="24.0843" r="3.49741" fill="#383222"/>
<circle cx="152.12" cy="18.6208" r="1.74871" fill="#C0B4B4"/>
<circle cx="152.12" cy="23.9822" r="1.74871" fill="#C0B4B4"/>
<circle cx="158.241" cy="18.6208" r="1.74871" fill="#C0B4B4"/>
<circle cx="158.241" cy="23.9822" r="1.74871" fill="#C0B4B4"/>
<circle cx="63.5069" cy="21.0544" r="3.49741" fill="#C0B4B4"/>
<path d="M112.634 19.8763C112.634 17.1149 114.872 14.8763 117.634 14.8763H140.748C143.509 14.8763 145.748 17.1149 145.748 19.8763V22.2325C145.748 24.9939 143.509 27.2325 140.748 27.2325H117.634C114.872 27.2325 112.634 24.9939 112.634 22.2325V19.8763Z" fill="#C0B4B4"/>
<path d="M68.457 49.4224L69.0865 44.8988H77.2663V50.3563L68.457 49.4224Z" fill="#BD4B0A"/>
<path d="M155.988 49.6565L156.617 45.1328H164.797V50.5903L155.988 49.6565Z" fill="#BD4B0A"/>
<path d="M25.9067 45.0362H58.6309V45.0362C58.6309 50.064 54.555 54.1399 49.5272 54.1399H35.0104C29.9826 54.1399 25.9067 50.064 25.9067 45.0362V45.0362Z" fill="#332D1E"/>
<path d="M35.2739 54.1399H49.2636V54.1399C49.2636 56.5353 47.3217 58.4771 44.9264 58.4771H39.6111C37.2158 58.4771 35.2739 56.5353 35.2739 54.1399V54.1399Z" fill="#332D1E"/>
<path d="M112.634 45.0362H145.358V45.0362C145.358 50.064 141.282 54.1399 136.254 54.1399H121.737C116.709 54.1399 112.634 50.064 112.634 45.0362V45.0362Z" fill="#332D1E"/>
<path d="M122.001 54.1399H135.99V54.1399C135.99 56.5353 134.049 58.4771 131.653 58.4771H126.338C123.943 58.4771 122.001 56.5353 122.001 54.1399V54.1399Z" fill="#332D1E"/>
<line x1="18.7698" y1="69.2308" x2="168.412" y2="69.2308" stroke="#534B37"/>
<line x1="18.7698" y1="87.1062" x2="168.412" y2="87.1062" stroke="#534B37"/>
<line x1="18.7698" y1="104.982" x2="168.412" y2="104.981" stroke="#534B37"/>
<line x1="18.7698" y1="121.069" x2="168.412" y2="121.069" stroke="#534B37"/>
<path d="M39.044 133.085C33.169 128.34 29.1582 115.667 28.8757 109.924H63.3348C62.205 127.097 53.449 133.085 55.1437 133.085H39.044Z" fill="#FCEDDA"/>
<path d="M61.0546 114.536C64.5387 114.536 69.6515 114.725 69.6515 119.648C69.6515 127.547 66.9795 126.966 53.8518 128.941" stroke="#FCEDDA" stroke-width="5" stroke-linejoin="round"/>
<path d="M122.802 133.085C116.927 128.34 112.916 115.667 112.634 109.924H147.093C145.963 127.097 137.207 133.085 138.901 133.085H122.802Z" fill="#FCEDDA"/>
<path d="M144.813 114.536C148.297 114.536 153.41 114.725 153.41 119.647C153.41 127.547 150.738 126.966 137.61 128.941" stroke="#FCEDDA" stroke-width="5" stroke-linejoin="round"/>
</svg>
