<svg width="73" height="43" viewBox="0 0 73 43" fill="none" xmlns="http://www.w3.org/2000/svg">
<path d="M62.5137 15.7339L67.0663 14.7441" stroke="#41442D" stroke-width="0.463405"/>
<path d="M62.8047 17.2397L67.3573 16.25" stroke="#41442D" stroke-width="0.463405"/>
<path d="M62.9181 19.1129L67.2452 17.3861" stroke="#41442D" stroke-width="0.463405"/>
<path d="M63.2675 19.8515L67.8675 19.113" stroke="#41442D" stroke-width="0.463405"/>
<path d="M63.9956 21.2378L68.5482 20.248" stroke="#41442D" stroke-width="0.463405"/>
<path d="M64.5605 22.3764L69.1131 21.3867" stroke="#41442D" stroke-width="0.463405"/>
<path d="M65.1719 23.9744L69.5441 22.3649" stroke="#41442D" stroke-width="0.463405"/>
<path d="M65.3082 24.9548L69.6803 23.3454" stroke="#41442D" stroke-width="0.463405"/>
<path d="M65.6311 26.0888L70.1028 24.7813" stroke="#41442D" stroke-width="0.463405"/>
<path d="M65.7016 27.374L68.4148 26.6288L71.0372 26.2744" stroke="#41442D" stroke-width="0.463405"/>
<path d="M66.242 28.042L70.8529 27.3743" stroke="#41442D" stroke-width="0.463405"/>
<path d="M67.0661 29.146L71.725 29.1648" stroke="#41442D" stroke-width="0.463405"/>
<path d="M1.65477 18.1446C10.0922 3.6625 34.372 20.0338 62.5493 15.3114C62.5493 18.1446 66.0948 23.0301 66.667 24.5658C67.2018 25.2386 68.4388 27.3068 69.1075 30.1971C74.7717 33.3439 72.4116 34.8902 71.9396 40.1095C71.4676 45.3288 18.9045 38.693 17.2237 37.7592C15.5428 36.8254 4.60949 40.6076 1.65477 34.8902C-0.709002 30.3162 0.669865 21.8207 1.65477 18.1446Z" fill="#696F49"/>
<path d="M69.4918 30.1185C66.7156 30.6051 60.0508 31.7296 57.4765 32.3353C54.2586 33.0925 41.1974 30.1185 39.1152 30.1185C37.033 30.1185 21.7004 28.7388 20.3754 28.5495C19.0503 28.3602 1.51589 32.3353 0.808594 22.1699" stroke="#41442D" stroke-width="0.463405"/>
<path d="M62.5137 4.40573L67.0663 3.41602" stroke="#41442D" stroke-width="0.463405"/>
<path d="M62.8047 5.91159L67.3573 4.92188" stroke="#41442D" stroke-width="0.463405"/>
<path d="M62.9181 7.78476L67.2452 6.05794" stroke="#41442D" stroke-width="0.463405"/>
<path d="M63.2675 8.52338L67.8675 7.78483" stroke="#41442D" stroke-width="0.463405"/>
<path d="M63.9956 9.90964L68.5482 8.91992" stroke="#41442D" stroke-width="0.463405"/>
<path d="M64.5605 11.0483L69.1131 10.0586" stroke="#41442D" stroke-width="0.463405"/>
<path d="M65.1719 12.6462L69.5441 11.0368" stroke="#41442D" stroke-width="0.463405"/>
<path d="M65.3082 13.6267L69.6803 12.0173" stroke="#41442D" stroke-width="0.463405"/>
<path d="M65.6311 14.7607L70.1028 13.4532" stroke="#41442D" stroke-width="0.463405"/>
<path d="M65.7016 16.0459L68.4148 15.3007L71.0372 14.9463" stroke="#41442D" stroke-width="0.463405"/>
<path d="M66.242 16.7138L70.8529 16.0462" stroke="#41442D" stroke-width="0.463405"/>
<path d="M67.0661 17.8178L71.725 17.8367" stroke="#41442D" stroke-width="0.463405"/>
<path d="M1.65477 6.81649C10.0922 -7.66563 34.372 8.70563 62.5493 3.98324C62.5493 6.81649 66.0948 11.702 66.667 13.2377C67.2018 13.9105 68.4388 15.9787 69.1075 18.869C74.7717 22.0158 72.4116 23.562 71.9396 28.7813C71.4676 34.0007 18.9045 27.3648 17.2237 26.431C15.5428 25.4972 4.60949 29.2795 1.65477 23.562C-0.709002 18.9881 0.669865 10.4925 1.65477 6.81649Z" fill="#696F49"/>
<path d="M69.0226 18.7903C66.2464 19.2768 60.0504 20.4014 57.4761 21.0071C54.2582 21.7642 41.1971 18.7903 39.1149 18.7903C37.0327 18.7903 21.7001 17.4105 20.3751 17.2212C19.05 17.0319 9.20688 14.5711 6.74609 14.9497" stroke="#41442D" stroke-width="0.463405"/>
<path d="M14.2241 16.0137C12.2998 18.1305 8.23667 22.3312 7.37891 22.1992" stroke="#41442D" stroke-width="0.463405"/>
</svg>
