<svg width="357" height="379" viewBox="0 0 357 379" fill="none" xmlns="http://www.w3.org/2000/svg">
<path d="M357 2C324.403 2.6791 295.672 16.982 270.596 37.2351C253.966 50.6675 230.287 67.9072 226.164 90.4763C224.288 100.747 223.929 111.663 224.091 122.084C224.436 144.284 242.015 159.7 262.953 165.092C282.923 170.234 301.983 163.151 312.827 145.142C322.798 128.582 317.681 119.144 301.168 114.182C277.94 107.203 251.909 106.51 227.848 108.612C205.254 110.586 180.067 117.543 162.689 132.836C155.333 139.309 155 138 151.5 150C149.75 156 149 158.5 149 163C148.599 165.5 150 171 151.5 174.5C154 183.5 156.266 184.463 157.702 192.36C159.774 203.76 162.099 215.012 166.964 225.587C170.406 233.07 174.802 239.065 179.983 245.407C189.21 256.702 196.72 269.232 204.272 281.678C212.443 295.147 217.476 306.114 217.096 321.965C216.761 335.92 209.79 353.912 201.551 365.232C191.934 378.446 175.762 386.185 159.839 388.42C149.384 389.887 139.994 386.073 130.563 382.072C115.297 375.596 100.136 366.101 83.2805 364.843C74.0581 364.155 65.028 364.587 56.4009 368.276C40.5238 375.065 19.5177 385.832 8.66513 399.819C0.788777 409.971 1.02358 427.404 4.90845 438.941C5.50543 440.714 8.40604 447.617 8.40604 447.361" stroke="#B5D1A1" stroke-width="3" stroke-linecap="round" stroke-dasharray="12 12"/>
</svg>
