<svg width="218" height="245" viewBox="0 0 218 245" fill="none" xmlns="http://www.w3.org/2000/svg">
<path d="M55.7865 49.6817L60.9135 35.1694C97.4663 42.8585 142.265 47.2514 166.622 52.8574L167.346 68.0638L167.346 68.0638C172.18 69.0548 174.955 69.806 174.882 70.2257C174.49 72.5028 175.536 79.9781 171.893 79.35C93.6723 67.5416 42.6006 61.8767 46.4913 57.7305C49.0069 55.0498 45.9354 51.2776 50.4319 48.7701C52.1478 49.066 53.9356 49.3702 55.7865 49.6817Z" fill="#382416" stroke="#3A281D" stroke-linejoin="round"/>
<path d="M45.2893 193.573L52.4747 61.0453C81.9187 66.1215 139.351 74.2633 169.081 79.3888C156.33 117.989 130.388 197.74 128.63 207.941C89.5712 214.713 56.795 201.184 45.2893 193.573Z" fill="#E0D9C8"/>
<path d="M40.9918 163.278C39.9201 160.602 44.8608 112.118 47.4651 88.211C51.7009 80.3167 124.699 102.964 129.593 102.37C133.508 101.895 153.725 104.135 163.344 105.314C157.707 130.136 145.639 180.218 142.462 181.97C81.0487 183.84 42.3315 166.624 40.9918 163.278Z" fill="#C59D79"/>
<path d="M79.3542 115.411C86.5612 109.934 98.7039 118.747 101.373 126.22C118.987 109.406 134.2 133.426 126.594 143.034C114.103 154.244 103.374 158.247 93.366 158.247C77.486 147.438 62.0076 128.594 79.3542 115.411Z" fill="#B94C36"/>
</svg>
