<svg width="61" height="71" viewBox="0 0 61 71" fill="none" xmlns="http://www.w3.org/2000/svg">
<rect x="0.219727" y="0.494141" width="60.4708" height="60.4708" rx="6.04708" fill="#7E3206"/>
<rect x="10.8604" y="43.2617" width="39.1891" height="6.04708" rx="3.02354" fill="#97410F"/>
<rect x="4.81348" y="6.83984" width="6.04708" height="6.04708" fill="#58270A"/>
<rect x="50.0498" y="6.83984" width="6.04708" height="6.04708" fill="#58270A"/>
<rect x="4.81348" y="18.9355" width="6.04708" height="6.04708" fill="#58270A"/>
<rect x="50.0498" y="18.9355" width="6.04708" height="6.04708" fill="#58270A"/>
<rect x="4.81348" y="31.0273" width="6.04708" height="6.04708" fill="#58270A"/>
<rect x="50.0498" y="31.0273" width="6.04708" height="6.04708" fill="#58270A"/>
<rect x="15.3369" y="6.83984" width="30.2354" height="30.2354" fill="#612A0A"/>
<rect x="22.5879" y="46.2852" width="15.987" height="24.1883" fill="#8BC089"/>
<rect width="18.1412" height="1.40897" transform="matrix(1 0 0 -1 21.3848 46.9902)" fill="#4F2309"/>
<circle cx="30.4551" cy="58.3785" r="4.29733" transform="rotate(76.1909 30.4551 58.3785)" fill="#D1EFBB"/>
<path d="M28.4984 58.7971C28.448 58.5923 28.426 58.4066 28.4322 58.2398C28.4429 58.072 28.4785 57.9098 28.5392 57.7533C28.6054 57.6001 28.6939 57.4321 28.8047 57.2491C28.8995 57.1549 28.9871 57.0791 29.0674 57.0216C29.1488 56.9686 29.2518 56.9268 29.3764 56.8961C29.4743 56.872 29.5671 56.8752 29.6548 56.9056C29.7426 56.9359 29.8023 57.0157 29.834 57.1447C29.857 57.2382 29.8271 57.3376 29.7444 57.4429C29.6742 57.4837 29.5951 57.5457 29.5069 57.6287C29.4232 57.7107 29.3488 57.821 29.2838 57.9597C29.2243 58.1018 29.1919 58.2773 29.1866 58.4863C29.1864 58.543 29.1945 58.6047 29.2109 58.6715C29.2394 58.7872 29.2884 58.9003 29.358 59.0106C29.4332 59.1243 29.519 59.2141 29.6154 59.2801C29.7163 59.345 29.8247 59.3632 29.9404 59.3347C30.0383 59.3107 30.1141 59.2543 30.1679 59.1656C30.2227 59.0813 30.2647 58.9836 30.2941 58.8726C30.3245 58.7659 30.3477 58.6682 30.3636 58.5793C30.3965 58.406 30.4312 58.23 30.4674 58.0511C30.5037 57.8723 30.5544 57.704 30.6195 57.5464C30.6891 57.3877 30.7825 57.2491 30.8997 57.1306C31.0224 57.0155 31.1839 56.9333 31.3843 56.8841C31.6113 56.8283 31.818 56.8435 32.0044 56.9299C32.1909 57.0162 32.3482 57.1475 32.4765 57.3236C32.6058 57.5043 32.6973 57.7036 32.7509 57.9217C32.7695 57.9974 32.7864 58.0948 32.8015 58.2138C32.8221 58.3362 32.8333 58.4679 32.8349 58.6091C32.8366 58.7503 32.8255 58.8876 32.8016 59.0209C32.7822 59.1531 32.7417 59.2669 32.6802 59.3623C32.6231 59.4566 32.5389 59.5174 32.4276 59.5447C32.3342 59.5677 32.2447 59.5496 32.1594 59.4903C32.0751 59.4355 32.0209 59.3591 31.9969 59.2612C31.9706 59.1544 31.966 59.0587 31.983 58.9743C32 58.8899 32.022 58.8066 32.049 58.7244C32.0816 58.6456 32.1047 58.5573 32.1184 58.4595C32.1366 58.3607 32.1298 58.2467 32.0981 58.1176L32.0505 57.924C31.9787 57.8236 31.9 57.7438 31.8147 57.6846C31.7337 57.6242 31.6621 57.6017 31.5998 57.617C31.4707 57.6487 31.3731 57.7223 31.3071 57.8376C31.2466 57.9564 31.1993 58.1001 31.1653 58.269C31.1324 58.4423 31.0989 58.6228 31.0648 58.8106C31.0318 59.0028 30.9827 59.1871 30.9175 59.3636C30.8579 59.5435 30.7661 59.6982 30.6422 59.8278C30.5193 59.9618 30.3489 60.0557 30.1308 60.1093C29.9304 60.1585 29.7409 60.1555 29.5621 60.1004C29.3878 60.0441 29.2281 59.9512 29.083 59.8216C28.9423 59.691 28.8217 59.5365 28.7213 59.3583C28.6208 59.18 28.5465 58.9929 28.4984 58.7971ZM27.521 58.4213C27.4967 58.3612 27.5081 58.2923 27.5551 58.2147C27.6021 58.137 27.6707 58.08 27.7609 58.0437C27.8333 58.0118 27.9029 57.997 27.9695 57.9995C28.0885 58.0033 28.2569 58.0068 28.4748 58.0099C28.6927 58.0129 28.9456 58.0145 29.2335 58.0145C29.527 58.0179 29.8366 58.0197 30.1624 58.0199C30.4937 58.0234 30.8272 58.0264 31.1629 58.0288C31.5031 58.0302 31.8311 58.0298 32.1468 58.0277C32.4637 58.0301 32.7544 58.0318 33.019 58.0329C33.288 58.0328 33.5148 58.0337 33.6994 58.0356C33.8172 58.0349 33.9039 58.0419 33.9594 58.0566C34.0205 58.0746 34.0593 58.0981 34.0759 58.1271C34.0869 58.1527 34.0818 58.1799 34.0605 58.2088C34.0448 58.2409 34.0208 58.2775 33.9884 58.3185C33.918 58.3972 33.8361 58.4575 33.7425 58.4993C33.6612 58.5335 33.5783 58.5515 33.4938 58.5534C33.1469 58.5631 32.7706 58.5683 32.3648 58.5689C31.959 58.5695 31.5432 58.5679 31.1174 58.564C30.6972 58.5634 30.2809 58.5595 29.8684 58.5523C29.4616 58.5485 29.0786 58.5459 28.7195 58.5445C28.3648 58.5419 28.0552 58.5402 27.7906 58.5391C27.715 58.5388 27.6556 58.5275 27.6123 58.5051C27.5691 58.4826 27.5386 58.4547 27.521 58.4213Z" fill="#B5D1A1"/>
</svg>
