<svg width="75" height="53" viewBox="0 0 75 53" fill="none" xmlns="http://www.w3.org/2000/svg">
<path d="M1.53536 24.0995C0.125729 19.7825 3.44435 16.9415 5.27986 16.0605C16.7327 26.7425 47.8978 21.2363 49.4395 16.0605C51.4218 17.1618 54.8356 19.8928 52.6331 22.0072C31.8197 37.4246 3.2974 29.4956 1.53536 24.0995Z" fill="#DA8042"/>
<path d="M1.48745 19.8692C0.0210839 19.6493 1.60968 14.8896 2.58727 12.5372L52.9022 7.77148C52.3523 9.97105 51.1425 15.47 50.7026 19.8692C50.1527 25.3682 29.1652 24.9097 27.5156 25.6429C25.8659 26.3761 20.8481 23.9068 19.1007 25.6429C17.9955 26.7411 14.9741 22.7915 12.9435 24.3598C11.2895 25.6374 9.46084 22.6185 8.17776 21.3355C6.89468 20.0524 6.43644 21.5187 4.69512 21.3355C2.9538 21.1522 4.87841 18.586 4.14523 17.9445C3.41204 17.3029 3.32041 20.144 1.48745 19.8692Z" fill="#BD1240"/>
<path d="M2.21016 11.7909C0.800533 7.47394 4.11915 4.63287 5.95467 3.75195C17.4075 14.4339 48.5726 8.92772 50.1144 3.75195C52.0966 4.85317 55.5104 7.58421 53.308 9.69859C32.4945 25.116 3.9722 17.187 2.21016 11.7909Z" fill="#DA8042"/>
<path d="M5.9248 3.79823C11.0325 0.314125 45.3223 -1.48914 50.1173 3.8086C48.8268 10.1694 13.6015 13.6124 5.9248 3.79823Z" fill="#F19C4F"/>
<path d="M49.9408 52.8514C20.9624 52.0762 22.2736 38.2819 22.2731 31.0059H74.0227V39.3304C72.7657 41.3065 69.5771 51.0762 49.9408 52.8514Z" fill="#D98142"/>
<path d="M22.1323 34.9877C21.6138 33.4313 22.5941 30.0303 23.057 27.8838C39.6298 26.9273 72.9083 25.0505 73.4396 25.1954C74.1037 25.3765 74.5263 37.5717 73.4396 39.8055C72.3529 42.0392 68.4687 40.7381 64.8104 42.3695C61.1521 44.0009 59.5106 46.8899 53.2328 49.3129C46.955 51.7359 36.4278 47.3813 28.5305 44.5567C21.2861 41.9656 23.6884 33.8782 23.6884 32.7396C23.6884 31.601 22.7049 36.7066 22.1323 34.9877Z" fill="#D81930"/>
<path d="M73.28 24.9839C73.28 35.9725 66.5379 45.7838 48.7322 46.9314C30.9264 48.0789 24.7313 41.3757 22.9253 28.2117C22.9253 17.2231 33.0368 9.08526 48.7322 7.44531C64.4576 8.54352 70.9324 15.2326 73.28 24.9839Z" fill="#FF9E3B"/>
<path d="M30.5167 33.179L29.6005 29.1504H33.4704L34.9472 33.179H30.5167Z" fill="#D81930"/>
<path d="M29.8309 30.2618L29.2266 27.8262H33.0965L33.9665 30.3987L29.8309 30.2618Z" fill="#BC6300"/>
<path d="M37.7179 39.8814L33.7017 36.8091L36.1448 36.1271L37.7179 39.8814Z" fill="#D81930"/>
<path d="M36.8376 37.7572L34.5732 37.4961L37.879 40.2295L36.8376 37.7572Z" fill="#BC6300"/>
<path d="M66.6158 31.3769L62.6471 36.0908L61.2897 30.9628L66.6158 31.3769Z" fill="#D81930"/>
<path d="M29.2268 23.8227L31.8544 20.8294L31.8492 23.3178L29.2268 23.8227Z" fill="#D81930"/>
<path d="M29.2413 23.8226L31.8362 20.4501L31.8523 22.7071L29.2413 23.8226Z" fill="#BC6300"/>
<path d="M56.1802 13.8683L62.3954 17.1115L57.4846 17.9753L56.1802 13.8683Z" fill="#D81930"/>
<path d="M55.5792 12.2249L62.5503 17.1562L57.0919 16.6651L55.5792 12.2249Z" fill="#BC6300"/>
<path d="M36.9069 23.9141L35.4634 19.7443L40.435 16.6973L42.3595 22.9518L36.9069 23.9141Z" fill="#D81930"/>
<path d="M51.7807 19.635L50.6473 15.3705L44.8217 15.6224L46.7214 21.8844L51.7807 19.635Z" fill="#D81930"/>
<path d="M41.9222 37.2376L43.4473 40.5441L49.4792 41.0218L46.9306 35.967L41.9222 37.2376Z" fill="#D81930"/>
<path d="M40.1911 32.6234L38.7476 28.4536L43.8327 27.252L45.6436 31.6611L40.1911 32.6234Z" fill="#D81930"/>
<path d="M39.2103 29.8039L38.1733 26.7732L43.2344 25.7852L44.5431 28.9151L39.2103 29.8039Z" fill="#BC6300"/>
<path d="M58.8703 27.2509L57.4268 23.0812L63.6422 21.4395L65.3567 25.7058L58.8703 27.2509Z" fill="#D81930"/>
<path d="M57.9453 24.6445L56.6025 20.8976L62.818 19.2559L64.3388 23.2059L57.9453 24.6445Z" fill="#BC6300"/>
<path d="M54.5747 28.1309L53.1407 23.9579L48.3961 26.1467L49.6883 30.7347L54.5747 28.1309Z" fill="#D81930"/>
<path d="M53.7959 25.8032L52.5426 22.3273L47.8366 24.523L48.9597 28.1298L53.7959 25.8032Z" fill="#BC6300"/>
<path d="M57.4498 36.839L55.8067 32.7664L51.0621 34.9552L52.9771 40.4005L57.4498 36.839Z" fill="#D81930"/>
<path d="M35.4612 19.766L34.7363 17.8393L39.8335 14.2949L40.486 16.802L35.4612 19.766Z" fill="#BC6300"/>
<path d="M50.6693 15.4434L50.0273 13.3508L43.9861 13.3503L44.8544 15.6806L50.6693 15.4434Z" fill="#BC6300"/>
<path d="M42.5912 38.6853L41.3667 36.1781L46.3235 34.6035L47.8104 37.7524L42.5912 38.6853Z" fill="#BC6300"/>
<path d="M51.6607 36.6349L50.3281 33.1269L55.1687 31.0059L56.3652 34.0515L51.6607 36.6349Z" fill="#BC6300"/>
<path d="M61.6946 32.6178L60.2104 29.1036L65.7554 27.4375L66.6405 31.3943L61.6946 32.6178Z" fill="#BC6300"/>
</svg>
