<svg width="52" height="54" viewBox="0 0 52 54" fill="none" xmlns="http://www.w3.org/2000/svg">
<path d="M15.4376 23.1643L26.1406 4.6262C28.6869 0.215816 34.1081 0.199827 36.2792 1.75591C38.6039 3.09809 42.3434 7.20196 39.408 12.2862C33.7125 18.9333 29.4818 14.229 28.7129 13.462C28.0979 12.8484 26.9294 13.24 26.422 13.5125L19.4966 25.5077C16.4647 26.7298 15.5273 24.4546 15.4376 23.1643Z" fill="#7E3206"/>
<path d="M27.3589 50.0088L47.0875 41.7021C51.7811 39.7259 52.4732 34.3491 51.2001 32.0008C50.1585 29.5268 46.5532 25.3046 41.1425 27.5828C33.8368 32.4046 37.9765 37.1891 38.6416 38.0476C39.1737 38.7344 38.6394 39.8449 38.3057 40.3143L25.5402 45.6892C23.9494 48.545 26.0899 49.7589 27.3589 50.0088Z" fill="#7E3206"/>
<path d="M17.708 23.5509C16.2377 27.0008 10.0497 36.8262 2.58423 45.6487C-6.74767 56.6769 19.515 53.3173 26.6765 47.8543" stroke="black" stroke-width="0.656061"/>
<path d="M32.9924 13.5351C33.0552 13.3104 33.9986 12.4188 37.2698 10.65C38.9485 10.5433 37.646 12.7488 36.4007 12.7681C35.1553 12.7874 34.5755 14.8474 33.1858 14.8958C32.074 14.9345 32.5936 14.0048 32.9924 13.5351Z" fill="#3E1904"/>
<path d="M42.9205 30.2014C42.885 30.4319 42.0544 31.4296 39.0171 33.5752C37.363 33.881 38.3936 31.5361 39.6278 31.3687C40.862 31.2013 41.1924 29.0869 42.5665 28.8734C43.6658 28.7026 43.2606 29.6876 42.9205 30.2014Z" fill="#3E1904"/>
<path d="M16.8174 20.7539L20.8396 23.1694" stroke="#3E1904" stroke-width="0.656061"/>
<path d="M29.123 44.1895L30.9593 48.507" stroke="#3E1904" stroke-width="0.656061"/>
</svg>
