<svg width="75" height="61" viewBox="0 0 75 61" fill="none" xmlns="http://www.w3.org/2000/svg">
<path d="M8.33516 50.9357C10.8054 40.2372 17.5317 18.4094 24.6748 16.6859C29.4712 15.5285 37.8391 16.4568 44.8295 17.6961C45.6973 15.4403 47.6068 10.356 48.302 8.06556C48.9971 5.77509 50.0458 5.60243 50.4833 5.8024L74.5237 9.38668C75.7242 9.02835 77.7747 9.54434 76.3727 14.4749C75.2081 22.6916 70.8305 32.4537 68.7873 36.3077C67.5547 37.9102 63.8004 39.729 61.4264 36.6236L42.8258 34.079C40.6254 39.4736 38.543 46.4456 36.9241 55.1329L8.33516 50.9357Z" fill="#E6DFDF"/>
<path d="M54.2027 19.3831C50.1376 19.0929 44.9367 29.0249 42.8444 34.0272L61.4405 36.6715C60.6941 35.8635 59.8721 33.9125 59.7269 32.286C59.3609 28.188 57.7438 19.8703 54.2027 19.3831Z" fill="#C0BBBB"/>
<path d="M28.292 42.8223L36.3867 44.0856" stroke="#382E14" stroke-width="0.254076"/>
<path d="M25.3174 34.7578L37.8889 36.7198" stroke="#382E14" stroke-width="0.254076"/>
<path d="M14.9102 38.416L37.1352 41.6094" stroke="#382E14" stroke-width="0.254076"/>
<path d="M13.8535 43.5176L36.0785 46.7109" stroke="#382E14" stroke-width="0.254076"/>
<path d="M15.2588 35.8535L37.4838 39.0469" stroke="#382E14" stroke-width="0.254076"/>
<path d="M16.9834 31.1152L39.2084 34.3086" stroke="#382E14" stroke-width="0.254076"/>
<path d="M17.8428 28.6113L40.0678 31.8047" stroke="#382E14" stroke-width="0.254076"/>
<path d="M19.1182 26.1211L41.3432 29.3144" stroke="#382E14" stroke-width="0.254076"/>
<path d="M14.4307 40.8281L27.0641 42.6433" stroke="#382E14" stroke-width="0.254076"/>
<path d="M15.9307 33.4648L24.0024 34.6246" stroke="#382E14" stroke-width="0.254076"/>
</svg>
