<svg width="66" height="54" viewBox="0 0 66 54" fill="none" xmlns="http://www.w3.org/2000/svg">
<path d="M54.0016 43.2869L25.8157 35.7727L22.8835 37.459L23.1438 38.6854C32.3867 41.6633 51.2295 47.5919 52.6579 47.4832C53.4765 46.8309 54.0016 43.2869 54.0016 43.2869Z" fill="#FFC889"/>
<path d="M34.6312 0.778766L57.7122 8.16974C59.9104 8.87364 65.0251 9.29974 64.5215 11.2928C64.018 13.2859 54.4713 42.6784 54.1584 43.6553C53.9082 44.4369 49.1496 43.0388 46.8016 42.2421C40.2899 40.2915 26.7829 36.6396 24.8484 37.6358C23.8856 38.1316 23.3403 38.2609 23.0499 38.2205C26.4278 40.1351 52.5282 46.4994 53.1808 46.7084C53.9006 46.9389 52.9462 47.4411 52.7615 48.0176C52.5769 48.5942 25.0851 39.5702 23.9061 39.5484C23.0995 39.5335 22.8371 38.6775 22.7894 38.0661C22.7833 38.0544 22.7781 38.0423 22.7738 38.0298C22.6631 37.9247 22.6611 37.841 22.7821 37.782C26.8947 25.4998 35.0222 0.903953 34.6312 0.778766Z" fill="#8B4318"/>
<path d="M22.975 37.7462C25.8349 35.139 32.4465 29.8939 36.0143 29.7714C40.4741 29.6182 52.1923 30.7076 52.9899 28.2167C53.7875 25.7258 55.0333 16.6376 56.7122 16.5927C58.391 16.5477 64.6673 11.4239 64.3866 11.0011" stroke="#642F0F" stroke-width="0.415329" stroke-dasharray="0.83 0.83"/>
<path d="M41.8125 37.6251L14.6537 48.2697L13.2905 51.3653L14.2268 52.1991C23.4372 49.1224 42.1297 42.7355 43.216 41.8018C43.4891 40.7913 41.8125 37.6251 41.8125 37.6251Z" fill="#FFC889"/>
<path d="M1.02401 14.8546L23.9972 7.13503C26.1851 6.39983 30.5581 3.71299 31.3331 5.61698C32.1082 7.52097 41.8302 36.8559 42.1569 37.8284C42.4184 38.6063 37.7565 40.2991 35.3929 41.0482C28.9914 43.3345 15.9463 48.3944 14.978 50.3431C14.4961 51.3128 14.1334 51.74 13.8754 51.8796C17.731 51.4208 42.5285 41.0854 43.1781 40.8672C43.8945 40.6264 43.4231 41.5965 43.6159 42.1703C43.8088 42.7441 16.3146 51.7612 15.352 52.4421C14.6933 52.908 13.9747 52.3738 13.5742 51.9095C13.5623 51.9037 13.5509 51.897 13.5401 51.8895C13.3886 51.8704 13.3374 51.8042 13.3999 51.685C9.43675 39.3537 1.41313 14.7238 1.02401 14.8546Z" fill="#529897"/>
<path d="M13.5347 51.5415C14.2941 47.7469 16.5132 39.6044 19.315 37.392C22.8171 34.6265 32.9029 28.5619 32.0698 26.0826C31.2367 23.6034 26.8562 15.5437 28.1821 14.5129C29.5079 13.4821 31.5288 5.63594 31.0522 5.46165" stroke="#356262" stroke-width="0.415329" stroke-dasharray="0.83 0.83"/>
</svg>
