<svg width="76" height="55" viewBox="0 0 76 55" fill="none" xmlns="http://www.w3.org/2000/svg">
<rect x="0.955078" y="14.1641" width="67.9904" height="40.7646" rx="4.19735" transform="rotate(-11.4351 0.955078 14.1641)" fill="#BD4B0A"/>
<g clip-path="url(#clip0_809_61953)">
<path d="M56.1686 11.9067C56.3076 12.3787 56.8029 12.6486 57.2748 12.5096C57.7468 12.3706 58.0167 11.8753 57.8777 11.4034C57.7387 10.9314 57.2434 10.6615 56.7714 10.8005C56.2995 10.9395 56.0296 11.4348 56.1686 11.9067Z" fill="#FE9457"/>
<path d="M59.3027 10.9828C59.0864 10.2484 58.5249 9.66003 57.8007 9.40886C57.5941 9.3372 57.3685 9.4466 57.2969 9.65318C57.2688 9.73417 57.2685 9.81807 57.291 9.89447C57.3259 10.013 57.4156 10.1134 57.5412 10.157C58.0243 10.3245 58.3989 10.7169 58.5431 11.2065C58.6873 11.6961 58.5852 12.2288 58.27 12.6315C58.1353 12.8036 58.1655 13.0525 58.3377 13.1873C58.5099 13.3221 58.7588 13.2917 58.8936 13.1196C59.3661 12.516 59.519 11.7172 59.3027 10.9828Z" fill="#FE9457"/>
<path d="M60.7268 10.5631C60.4178 9.5141 59.6742 8.64193 58.6865 8.17017C58.4892 8.07594 58.2528 8.15948 58.1586 8.35681C58.1148 8.44857 58.1094 8.54877 58.136 8.6392C58.1667 8.74321 58.2397 8.83431 58.3452 8.88471C59.1304 9.25977 59.7216 9.95308 59.9672 10.7869C60.2128 11.6207 60.0918 12.5238 59.6352 13.2646C59.5205 13.4507 59.5784 13.6946 59.7646 13.8094C59.9507 13.9241 60.1946 13.8662 60.3093 13.68C60.8836 12.7482 61.0357 11.6121 60.7268 10.5631Z" fill="#FE9457"/>
<path d="M61.6925 14.2558C62.3966 12.9919 62.5593 11.5318 62.1507 10.1446C61.7421 8.75741 60.814 7.61865 59.5371 6.93809C59.3442 6.83524 59.1044 6.90828 59.0015 7.10124C58.9507 7.19655 58.9428 7.30329 58.9711 7.39931C59.0001 7.49767 59.0671 7.58482 59.1647 7.63686C60.2524 8.21664 61.0431 9.18669 61.3911 10.3683C61.7392 11.55 61.6005 12.7937 61.0007 13.8705C60.8943 14.0615 60.9629 14.3026 61.1539 14.409C61.345 14.5154 61.5861 14.4468 61.6925 14.2558Z" fill="#FE9457"/>
</g>
<rect x="9.19727" y="28.9707" width="16.4944" height="5.13199" transform="rotate(-11.695 9.19727 28.9707)" fill="#DB6D2E"/>
<rect x="28.2139" y="24.8906" width="17.5203" height="5.13199" transform="rotate(-11.695 28.2139 24.8906)" fill="#DB6D2E"/>
<rect x="48.083" y="20.6777" width="16.2441" height="5.13199" transform="rotate(-11.695 48.083 20.6777)" fill="#DB6D2E"/>
<rect x="7.2666" y="19.1582" width="11.2588" height="5.13199" rx="1.81532" transform="rotate(-10.3959 7.2666 19.1582)" fill="#FE9457"/>
<rect x="12.457" y="44.6152" width="55.8049" height="2.26004" transform="rotate(-11.6276 12.457 44.6152)" fill="#DB6D2E"/>
<rect x="11.6201" y="40.4395" width="55.8049" height="2.26004" transform="rotate(-11.6276 11.6201 40.4395)" fill="#DB6D2E"/>
<defs>
<clipPath id="clip0_809_61953">
<rect width="7.85533" height="7.85533" fill="white" transform="translate(61.8193 6.14844) rotate(73.5886)"/>
</clipPath>
</defs>
</svg>
