<svg width="150" height="124" viewBox="0 0 150 124" fill="none" xmlns="http://www.w3.org/2000/svg">
<g filter="url(#filter0_d_374_54332)">
<path d="M-41.2752 87.089C-42.3265 77.6038 -40.9675 68.7037 -36.4894 60.2428C-34.6387 56.7461 -32.0667 53.8414 -28.9805 51.3696C-25.528 48.6045 -21.8515 47.6648 -17.5602 46.7498C-11.4631 45.4499 -4.6874 46.2167 1.06041 48.7064C3.30193 49.6773 6.00087 50.9295 7.48737 52.9604C9.22075 55.3287 9.91267 59.1621 10.6754 61.938" stroke="#535353" stroke-width="1.09863" stroke-linecap="round"/>
</g>
<g filter="url(#filter1_dd_374_54332)">
<path fill-rule="evenodd" clip-rule="evenodd" d="M14.326 29.9009L-5.59416 67.5038L27.2705 94.5354L14.326 29.9009ZM9.43098 54.4107C7.49741 54.7979 6.24386 56.6793 6.6311 58.6129L9.11212 71.0012C9.49937 72.9347 11.3808 74.1883 13.3143 73.801C15.2479 73.4138 16.5014 71.5324 16.1142 69.5988L13.6332 57.2106C13.2459 55.277 11.3645 54.0234 9.43098 54.4107Z" fill="#DDA45F"/>
<path d="M14.3262 29.9009L121.89 8.35885C126.65 7.40564 131.281 10.4913 132.234 15.2509L141.726 62.6495C142.68 67.4091 139.594 72.0402 134.834 72.9934L27.2707 94.5354L14.3262 29.9009Z" fill="#DDA45F"/>
<rect x="24.5483" y="36.186" width="100.911" height="49.5781" rx="2.19727" transform="rotate(-11.3249 24.5483 36.186)" fill="#F7F1EA"/>
<path d="M48.0214 48.9494C48.0273 48.9789 48.0353 49.0189 48.0455 49.0694C48.0589 49.1148 48.0686 49.1632 48.0745 49.2145C48.0838 49.2608 48.0884 49.3059 48.0885 49.3496C48.0918 49.3883 48.0868 49.4178 48.0733 49.438C48.043 49.4835 48.0081 49.5167 47.9686 49.5378C47.9282 49.5546 47.8853 49.5698 47.8398 49.5832C47.7977 49.5917 47.7544 49.6047 47.7098 49.6224C47.6685 49.6351 47.6294 49.6582 47.5924 49.6919C47.6092 49.7323 47.6337 49.7558 47.6656 49.7626C47.701 49.7642 47.7363 49.7659 47.7717 49.7676C47.8104 49.7642 47.8445 49.7705 47.8739 49.7865C47.9068 49.7974 47.9287 49.8302 47.9396 49.8849C47.9573 49.9733 47.9573 50.0499 47.9397 50.1147C47.9254 50.1745 47.9039 50.2313 47.8753 50.2852C47.8459 50.3348 47.8169 50.3866 47.7883 50.4405C47.7597 50.4943 47.742 50.5592 47.7353 50.6349C47.7252 50.7157 47.7046 50.7767 47.6735 50.818C47.6424 50.8592 47.6058 50.895 47.5637 50.9253C47.525 50.9506 47.4846 50.9784 47.4425 51.0087C47.4004 51.039 47.3638 51.0857 47.3327 51.1488C47.2965 51.2086 47.2637 51.2414 47.2343 51.2473C47.2216 51.2499 47.2065 51.2507 47.1888 51.2499C47.1711 51.249 47.1497 51.2511 47.1244 51.2562C47.1034 51.2604 47.084 51.273 47.0664 51.2941C47.0521 51.3101 47.047 51.3286 47.0512 51.3496C47.0529 51.358 47.058 51.3614 47.0664 51.3597C47.0748 51.358 47.0773 51.3597 47.074 51.3648C47.0327 51.4212 46.9532 51.494 46.8354 51.5832C46.7168 51.6683 46.5788 51.755 46.4214 51.8434C46.2632 51.9276 46.0953 52.0072 45.9177 52.0822C45.7435 52.1521 45.5744 52.2034 45.4103 52.2363C45.1241 52.2936 44.8384 52.3421 44.5531 52.3817C44.2728 52.4247 43.9875 52.4753 43.6972 52.5334L42.8577 52.7016C42.8451 52.7041 42.8287 52.7205 42.8085 52.7508C42.7925 52.7803 42.7698 52.798 42.7403 52.8039C42.694 52.8131 42.6317 52.819 42.5535 52.8216C42.4794 52.8233 42.4037 52.8166 42.3262 52.8014C42.2488 52.7863 42.1785 52.7632 42.1154 52.7321C42.0556 52.6959 42.0198 52.6483 42.008 52.5894C42.0038 52.5684 42.0025 52.5511 42.0042 52.5377C42.0051 52.52 42.0055 52.5002 42.0055 52.4783C42.0198 52.3529 42.0547 52.254 42.1102 52.1816C42.1649 52.105 42.2259 52.0381 42.2932 51.9808C42.3639 51.9185 42.4346 51.8562 42.5052 51.7939C42.5801 51.7308 42.6407 51.6508 42.687 51.554C42.7374 51.4564 42.7694 51.3318 42.7828 51.1803C42.7962 51.0288 42.7789 50.8331 42.7309 50.5933C42.6871 50.3745 42.6289 50.1607 42.5565 49.952C42.4883 49.7425 42.4323 49.5283 42.3884 49.3095C42.3117 48.9046 42.2401 48.5032 42.1735 48.1051C42.1111 47.7062 42.0416 47.3043 41.9649 46.8995L41.7727 45.9073C41.7517 45.8021 41.723 45.6809 41.6868 45.5437C41.6548 45.4057 41.6072 45.2774 41.544 45.1587C41.4842 45.035 41.4055 44.937 41.3079 44.8646C41.2136 44.7872 41.0936 44.7565 40.948 44.7726C40.8757 44.7827 40.7898 44.7802 40.6905 44.765C40.5912 44.7499 40.494 44.7234 40.3989 44.6856C40.3071 44.6427 40.2246 44.5914 40.1514 44.5316C40.0781 44.4719 40.0331 44.3999 40.0162 44.3158C40.0019 44.2443 40.0111 44.1811 40.044 44.1264C40.0759 44.0675 40.1184 44.0174 40.1714 43.9761C40.2236 43.9307 40.2821 43.8949 40.3469 43.8688C40.415 43.8376 40.4786 43.8162 40.5375 43.8044C40.6721 43.7774 40.8076 43.7656 40.944 43.7689C41.0795 43.768 41.2167 43.7537 41.3555 43.7259C41.5281 43.6913 41.6989 43.6483 41.8681 43.597C42.0414 43.5447 42.2123 43.4908 42.3806 43.4352C42.5481 43.3754 42.7164 43.3198 42.8855 43.2685C43.0589 43.2162 43.2339 43.1724 43.4107 43.137C43.558 43.1075 43.7065 43.0843 43.8563 43.0675C44.0053 43.0464 44.1542 43.0253 44.3032 43.0042C44.3352 43.0328 44.3849 43.0513 44.4522 43.0597C44.5195 43.0681 44.5906 43.0736 44.6655 43.0761C44.7447 43.0778 44.8212 43.0777 44.8953 43.076C44.9685 43.0701 45.0249 43.0676 45.0645 43.0684C45.1697 43.0692 45.2606 43.0751 45.3372 43.086C45.4171 43.0919 45.4866 43.1108 45.5455 43.1428C45.6078 43.1697 45.6642 43.2109 45.7147 43.2665C45.7694 43.3211 45.8237 43.3956 45.8776 43.4899C45.8843 43.5016 45.9071 43.5168 45.9458 43.5353C45.9887 43.553 46.0359 43.5698 46.0872 43.5858C46.1386 43.6017 46.1878 43.6181 46.2349 43.635C46.2821 43.6518 46.3157 43.6669 46.3359 43.6804C46.4016 43.7241 46.4732 43.7973 46.5506 43.9C46.6314 43.9976 46.7076 44.1049 46.7792 44.2219C46.8508 44.3388 46.9135 44.4554 46.9674 44.5715C47.0213 44.6876 47.0558 44.7836 47.071 44.8593C47.1022 45.015 47.1102 45.1753 47.0951 45.3403C47.0842 45.5044 47.0704 45.6648 47.0536 45.8213C47.0418 45.9156 47.0145 46.0086 46.9716 46.1003C46.9329 46.1913 46.8946 46.2843 46.8568 46.3794C46.8181 46.4703 46.7861 46.562 46.7609 46.6546C46.7399 46.7464 46.7386 46.8385 46.7572 46.9311C46.7833 47.0615 46.8368 47.1865 46.9176 47.306C46.9984 47.4255 47.0856 47.5328 47.179 47.6279C47.2186 47.6725 47.262 47.7141 47.3091 47.7528C47.3604 47.7907 47.4097 47.829 47.4568 47.8677C47.5073 47.9013 47.5545 47.94 47.5983 47.9838C47.6412 48.0233 47.6812 48.07 47.7182 48.1239C47.7999 48.2476 47.8639 48.3814 47.9102 48.5253C47.9557 48.665 47.9928 48.8064 48.0214 48.9494ZM46.0561 45.3317C46.0468 45.2855 46.0296 45.232 46.0043 45.1714C45.979 45.1108 45.9517 45.0507 45.9222 44.9909C45.8919 44.927 45.862 44.8651 45.8325 44.8054C45.8022 44.7414 45.7778 44.685 45.7592 44.6362C45.734 44.5756 45.7049 44.5289 45.6721 44.4961C45.6384 44.4591 45.6022 44.4313 45.5635 44.4128C45.5239 44.3901 45.4806 44.3703 45.4335 44.3535C45.3855 44.3325 45.3367 44.3072 45.287 44.2778C45.1632 44.2063 45.0475 44.1529 44.9398 44.1176C44.832 44.0822 44.7226 44.0604 44.6115 44.052C44.5004 44.0436 44.3851 44.047 44.2656 44.0622C44.1453 44.0732 44.0135 44.093 43.8705 44.1216C43.7779 44.1402 43.6815 44.1616 43.5814 44.1861C43.4854 44.2097 43.3996 44.24 43.3239 44.277C43.3087 44.2888 43.3003 44.3015 43.2986 44.3149C43.2969 44.3284 43.289 44.3431 43.2746 44.3591C43.2646 44.3743 43.2418 44.392 43.2065 44.4122C43.1703 44.4282 43.1122 44.4442 43.0323 44.4602C42.9103 44.4846 42.8126 44.5217 42.7394 44.5714C42.6704 44.6202 42.6191 44.6808 42.5854 44.7532C42.5552 44.8205 42.5405 44.9001 42.5413 44.9918C42.5413 45.0793 42.5502 45.1782 42.5679 45.2885C42.5915 45.4282 42.616 45.5721 42.6413 45.7202C42.6707 45.8675 42.6939 46.016 42.7108 46.1658C42.7268 46.3114 42.7319 46.457 42.7261 46.6027C42.7244 46.7474 42.703 46.8918 42.6618 47.0357C42.9092 47.0474 43.1584 47.0457 43.4092 47.0304C43.66 47.0152 43.9032 46.984 44.1388 46.9368C44.303 46.904 44.4658 46.8648 44.6274 46.8193C44.7932 46.773 44.9531 46.7191 45.1071 46.6576C45.1635 46.6332 45.2367 46.5944 45.3267 46.5414C45.421 46.4875 45.5093 46.426 45.5918 46.357C45.6785 46.2871 45.7512 46.2134 45.8101 46.136C45.8732 46.0577 45.9023 45.9841 45.8972 45.915C45.8955 45.8629 45.903 45.8132 45.9199 45.7661C45.9409 45.7181 45.9623 45.6722 45.9842 45.6284C46.0095 45.5796 46.0305 45.5316 46.0473 45.4845C46.0641 45.4374 46.0671 45.3865 46.0561 45.3317ZM47.1088 49.5064C47.0869 49.397 47.0503 49.2906 46.9989 49.1871C46.9517 49.0827 46.9088 48.9775 46.8701 48.8715C46.8372 48.773 46.8086 48.6956 46.7841 48.6392C46.7639 48.582 46.737 48.5349 46.7033 48.4978C46.673 48.4558 46.6326 48.4179 46.5821 48.3842C46.5316 48.3506 46.4596 48.3081 46.3662 48.2568C46.3266 48.1684 46.2925 48.1184 46.2639 48.1066C46.2395 48.094 46.2146 48.0902 46.1894 48.0952C46.1683 48.0995 46.1456 48.1062 46.1212 48.1155C46.1002 48.1197 46.0791 48.1239 46.0581 48.1281L45.9343 47.9691C45.8434 47.9304 45.7635 47.9026 45.6944 47.8858C45.6296 47.8681 45.548 47.8648 45.4495 47.8758C45.3637 47.8842 45.2761 47.8842 45.1869 47.8758C45.1019 47.8666 45.0152 47.8708 44.9269 47.8885C44.889 47.8961 44.8625 47.9167 44.8474 47.9504C44.8322 47.9841 44.8183 48.0022 44.8057 48.0047C44.7805 48.0098 44.7502 48.0114 44.7148 48.0098C44.6786 48.0039 44.6407 48.0005 44.6012 47.9997C44.5608 47.9947 44.5187 47.9922 44.4749 47.9922C44.4345 47.9871 44.3975 47.988 44.3638 47.9947C44.1745 48.0326 43.9935 48.0908 43.821 48.1691C43.6519 48.2423 43.4815 48.3202 43.3098 48.4028C43.2938 48.4979 43.2795 48.6014 43.267 48.7133C43.2586 48.8244 43.2527 48.9372 43.2494 49.0517C43.246 49.1662 43.2469 49.2798 43.252 49.3926C43.2562 49.5011 43.2676 49.6017 43.2861 49.6943C43.2954 49.7406 43.3072 49.7776 43.3215 49.8054C43.335 49.8289 43.3502 49.85 43.367 49.8685C43.3838 49.887 43.3986 49.9059 43.4112 49.9253C43.4238 49.9446 43.4331 49.969 43.439 49.9985C43.4727 50.1668 43.487 50.3368 43.482 50.5085C43.4804 50.6752 43.4964 50.8426 43.5301 51.011C43.5521 51.1204 43.5879 51.2226 43.6375 51.3177C43.6872 51.4128 43.7563 51.4953 43.8446 51.5651C43.9288 51.5482 44.0121 51.5491 44.0946 51.5675C44.1763 51.5818 44.2592 51.5806 44.3433 51.5637C44.4022 51.5519 44.4561 51.5258 44.5049 51.4854C44.5579 51.4441 44.6012 51.4201 44.6349 51.4134C44.6686 51.4066 44.6968 51.4163 44.7195 51.4424C44.7464 51.4676 44.783 51.4756 44.8293 51.4664L44.8546 51.4613C44.863 51.4377 44.8828 51.4163 44.9139 51.3969C44.9442 51.3733 44.98 51.3552 45.0212 51.3426C45.0658 51.3249 45.1133 51.311 45.1638 51.3009C45.2135 51.2866 45.2615 51.2748 45.3078 51.2655C45.3961 51.2478 45.4639 51.2364 45.511 51.2314C45.5623 51.2255 45.6196 51.2162 45.6827 51.2035C45.8518 51.1303 46.0109 51.0503 46.1598 50.9636C46.2852 50.8903 46.4102 50.804 46.5347 50.7047C46.6635 50.6045 46.7581 50.498 46.8187 50.3852C46.8523 50.3347 46.8881 50.2728 46.9259 50.1996C46.968 50.1255 47.0033 50.0506 47.0319 49.9748C47.0639 49.894 47.0874 49.8149 47.1026 49.7375C47.1211 49.655 47.1231 49.578 47.1088 49.5064ZM55.5624 45.3646C55.5793 45.4488 55.5768 45.5237 55.5549 45.5893C55.533 45.655 55.5066 45.7194 55.4754 45.7825C55.4477 45.8406 55.4182 45.9012 55.3871 45.9643C55.3602 46.0266 55.348 46.0969 55.3505 46.1752C55.3093 46.1659 55.2672 46.1634 55.2243 46.1676C55.1856 46.171 55.1452 46.1769 55.1031 46.1853C55.0021 46.2056 54.9028 46.2342 54.8052 46.2713C54.7109 46.3033 54.6154 46.329 54.5186 46.3483C54.405 46.3711 54.3036 46.3564 54.2144 46.3042C54.1285 46.247 54.0523 46.1726 53.9858 46.0808C53.9235 45.9883 53.8726 45.8869 53.833 45.7766C53.7925 45.6622 53.7631 45.5587 53.7445 45.4661C53.7209 45.3483 53.7158 45.2245 53.7293 45.0949C53.6931 45.089 53.6624 45.0886 53.6371 45.0937C53.5824 45.1046 53.5458 45.1295 53.5273 45.1682C53.513 45.2061 53.4848 45.2292 53.4427 45.2377C53.4049 45.2452 53.3687 45.2394 53.3342 45.22C53.2988 45.1965 53.2601 45.1889 53.218 45.1973C53.1549 45.21 53.0791 45.247 52.9908 45.3085C52.9058 45.3649 52.8254 45.4335 52.7497 45.5143C52.674 45.5951 52.61 45.6802 52.5579 45.7694C52.5091 45.8536 52.4914 45.9293 52.5049 45.9966C52.4182 46.0228 52.3391 46.0649 52.2676 46.1229C52.1995 46.176 52.1342 46.2328 52.072 46.2934C52.024 46.3381 51.9883 46.3999 51.9647 46.479C51.9412 46.5582 51.921 46.6432 51.9042 46.7341C51.8907 46.8199 51.8756 46.9083 51.8588 46.9992C51.8462 47.0893 51.8243 47.1659 51.7932 47.229C51.7402 47.3359 51.6961 47.4432 51.6607 47.5509C51.6288 47.6536 51.6246 47.7639 51.6482 47.8817C51.6777 48.029 51.7308 48.1737 51.8074 48.316C51.884 48.4582 51.9379 48.6071 51.9691 48.7628C51.9893 48.8638 52.0011 48.9665 52.0045 49.0709C52.0121 49.1744 52.0256 49.2745 52.045 49.3713C52.0686 49.4891 52.1086 49.5796 52.165 49.6427C52.2214 49.7058 52.2896 49.7513 52.3696 49.779C52.4487 49.8025 52.5358 49.8114 52.6309 49.8054C52.726 49.7995 52.8219 49.7869 52.9187 49.7675C53.0239 49.7464 53.1245 49.7241 53.2204 49.7005C53.3197 49.6719 53.4115 49.6491 53.4956 49.6323C53.5318 49.66 53.555 49.6882 53.5651 49.7168C53.5752 49.7454 53.5794 49.7774 53.5777 49.8128C53.5794 49.8431 53.5773 49.8763 53.5715 49.9125C53.5689 49.9437 53.5719 49.9803 53.5803 50.0223C53.5837 50.0392 53.5921 50.0594 53.6056 50.0829C53.6687 50.0703 53.7205 50.0446 53.7609 50.0059C53.8012 49.9672 53.8256 49.9141 53.834 49.8468C53.8652 49.8493 53.893 49.8569 53.9174 49.8695C53.946 49.8813 53.9637 49.904 53.9704 49.9377C53.9755 49.9629 53.9742 49.9894 53.9666 50.0172C53.9582 50.0408 53.9477 50.0647 53.9351 50.0892C53.9225 50.1136 53.9124 50.1397 53.9048 50.1674C53.8964 50.191 53.8951 50.2175 53.901 50.247C53.9044 50.2638 53.9103 50.2823 53.9187 50.3025C53.9263 50.3185 53.9356 50.332 53.9465 50.3429C53.9322 50.3808 53.9074 50.4098 53.8721 50.43C53.8367 50.4502 53.8001 50.4641 53.7622 50.4717C53.6949 50.4852 53.636 50.4861 53.5855 50.4743C53.5392 50.4617 53.4946 50.4466 53.4517 50.4289C53.4129 50.4104 53.3767 50.3936 53.3431 50.3784C53.3094 50.3633 53.2715 50.3599 53.2295 50.3683C53.2126 50.3717 53.1882 50.381 53.1562 50.3961C53.1243 50.4113 53.0927 50.4286 53.0616 50.4479C53.0304 50.4673 53.0043 50.49 52.9833 50.5161C52.9614 50.538 52.9522 50.5574 52.9556 50.5742C52.9623 50.6079 52.9787 50.6352 53.0048 50.6562C53.0351 50.6764 53.0536 50.7034 53.0604 50.737C53.0663 50.7665 53.0604 50.7917 53.0427 50.8128C53.0251 50.8338 53.0019 50.8494 52.9733 50.8595C52.9455 50.8738 52.9148 50.8844 52.8811 50.8911C52.8525 50.9012 52.8277 50.9084 52.8067 50.9126C52.6426 50.9454 52.4747 50.9594 52.303 50.9544C52.1363 50.9527 51.9709 50.9683 51.8068 51.0012C51.7311 51.0164 51.6587 51.0484 51.5897 51.0972C51.5207 51.146 51.4441 51.1789 51.36 51.1957C51.3137 51.205 51.2758 51.2017 51.2463 51.1857C51.2219 51.1731 51.1988 51.1558 51.1769 51.1339C51.155 51.1121 51.1314 51.0927 51.1062 51.0759C51.0818 51.0633 51.0485 51.0612 51.0064 51.0696C50.9265 51.0856 50.8482 51.11 50.7716 51.1429C50.6993 51.1749 50.6248 51.2073 50.5482 51.2401C50.4767 51.2764 50.4022 51.3088 50.3248 51.3374C50.2524 51.3694 50.1763 51.3934 50.0963 51.4094C50.0542 51.4179 50.0025 51.4217 49.941 51.4208C49.8804 51.4242 49.8202 51.4188 49.7605 51.4045C49.7007 51.3902 49.6481 51.3679 49.6027 51.3376C49.5572 51.3073 49.529 51.2648 49.518 51.2101C49.5113 51.1765 49.5214 51.1285 49.5483 51.0662C49.5794 51.0031 49.6152 50.9412 49.6556 50.8806C49.6951 50.8158 49.7363 50.7594 49.7792 50.7114C49.8222 50.6634 49.8562 50.6369 49.8815 50.6318C49.9488 50.6183 50.0145 50.6074 50.0784 50.5989C50.1466 50.5897 50.2164 50.5779 50.288 50.5635C50.4016 50.5408 50.5118 50.5012 50.6187 50.4448C50.7289 50.3833 50.8236 50.3096 50.9027 50.2238C50.986 50.1371 51.047 50.0373 51.0857 49.9245C51.1244 49.8117 51.1311 49.6922 51.1058 49.566C51.0948 49.5113 51.0801 49.4595 51.0616 49.4107C51.0422 49.3577 51.027 49.3038 51.0161 49.2491C50.9942 49.1397 50.9849 49.0278 50.9882 48.9133C50.9915 48.7989 50.9823 48.6869 50.9603 48.5775C50.9308 48.4302 50.8841 48.2842 50.8201 48.1395C50.7595 47.9897 50.7135 47.8369 50.6824 47.6812C50.6546 47.5424 50.6293 47.4052 50.6065 47.2697C50.5871 47.1291 50.5635 46.9894 50.5357 46.8506C50.5231 46.7875 50.5024 46.6953 50.4738 46.5741C50.4451 46.4529 50.406 46.3338 50.3563 46.2169C50.3108 46.0991 50.2535 45.9989 50.1845 45.9164C50.1197 45.8331 50.0452 45.7999 49.961 45.8168C49.8684 45.8353 49.778 45.8644 49.6896 45.904C49.6012 45.9435 49.5087 45.973 49.4119 45.9924C49.3404 46.0067 49.2554 46.0194 49.1569 46.0303C49.0576 46.0371 48.9608 46.0346 48.8665 46.0228C48.7714 46.0069 48.6864 45.9758 48.6115 45.9295C48.5366 45.8832 48.4894 45.8117 48.47 45.7149C48.449 45.6097 48.4468 45.5226 48.4636 45.4536C48.4796 45.3804 48.5074 45.3223 48.5469 45.2793C48.5907 45.2356 48.6428 45.201 48.7034 45.1758C48.7682 45.1497 48.8385 45.129 48.9143 45.1139C48.9816 45.1004 49.0514 45.0886 49.1238 45.0785C49.1962 45.0683 49.266 45.0565 49.3334 45.0431C49.468 45.0161 49.5993 44.9832 49.7272 44.9445C49.8585 44.9007 49.9915 44.8653 50.1261 44.8383C50.2187 44.8198 50.3121 44.8055 50.4064 44.7953C50.5007 44.7852 50.5949 44.786 50.6892 44.7978C50.7742 44.807 50.8428 44.8436 50.895 44.9076C50.9464 44.9673 50.9939 45.03 51.0377 45.0956C51.0857 45.1604 51.1366 45.2181 51.1905 45.2685C51.2435 45.3148 51.3163 45.3287 51.4089 45.3101C51.451 45.3017 51.4868 45.2836 51.5162 45.2558C51.549 45.223 51.5793 45.1885 51.6071 45.1523C51.6349 45.1161 51.663 45.082 51.6916 45.05C51.7203 45.018 51.7569 44.9932 51.8015 44.9755C51.8915 44.9443 51.9698 44.898 52.0362 44.8366C52.1069 44.7743 52.1755 44.7124 52.242 44.6509C52.3084 44.5895 52.3758 44.5322 52.4439 44.4792C52.5163 44.4253 52.5988 44.3891 52.6913 44.3705C52.746 44.3596 52.8121 44.3398 52.8895 44.3112C52.9712 44.2817 53.0498 44.2484 53.1256 44.2114C53.2047 44.1693 53.2766 44.1242 53.3414 44.0762C53.4104 44.0274 53.4618 43.9777 53.4954 43.9272C53.6107 43.9129 53.7487 43.9137 53.9095 43.9296C54.0745 43.9447 54.2344 43.9784 54.3893 44.0305C54.5475 44.0776 54.6898 44.1432 54.816 44.2273C54.9423 44.3115 55.0269 44.4171 55.0699 44.5441C55.0985 44.6216 55.1368 44.6927 55.1848 44.7575C55.2328 44.8223 55.2808 44.8871 55.3288 44.9518C55.3801 45.0116 55.4281 45.0764 55.4727 45.1462C55.5165 45.2119 55.5464 45.2847 55.5624 45.3646ZM63.6869 47.3812C63.7012 47.4527 63.7021 47.5225 63.6895 47.5907C63.6769 47.6589 63.6668 47.7288 63.6592 47.8003C63.6542 47.8626 63.6513 47.9135 63.6504 47.9531C63.6538 47.9918 63.6521 48.0271 63.6454 48.0591C63.6378 48.0869 63.6218 48.1163 63.5974 48.1475C63.5764 48.1736 63.5394 48.2073 63.4864 48.2485C63.3736 48.3411 63.2529 48.4375 63.1241 48.5377C62.9988 48.6329 62.8645 48.6948 62.7215 48.7234C62.5994 48.7478 62.4782 48.7437 62.3579 48.7109C62.2409 48.673 62.1293 48.6297 62.0233 48.5809C61.9206 48.5271 61.8255 48.4783 61.7379 48.4346C61.6546 48.39 61.5877 48.3727 61.5372 48.3829C61.4825 48.3938 61.437 48.4182 61.4009 48.4561C61.3689 48.4931 61.3352 48.5327 61.2999 48.5748C61.2688 48.6161 61.2309 48.6565 61.1863 48.696C61.1459 48.7348 61.0899 48.7613 61.0184 48.7756C60.9595 48.7874 60.9006 48.8101 60.8417 48.8438C60.7828 48.8775 60.7247 48.9154 60.6675 48.9575C60.6094 48.9954 60.5497 49.0358 60.4883 49.0787C60.4302 49.1166 60.3755 49.1495 60.3242 49.1773C60.1449 49.2657 59.9594 49.3335 59.7675 49.3807C59.5798 49.427 59.3892 49.4695 59.1956 49.5083C59.1451 49.5184 59.0668 49.5319 58.9608 49.5488C58.8556 49.5698 58.7462 49.5808 58.6326 49.5817C58.524 49.5859 58.4234 49.5754 58.3308 49.5502C58.2425 49.5241 58.1907 49.4732 58.1755 49.3975C58.1721 49.3807 58.1713 49.3655 58.173 49.352C58.1503 49.3916 58.1221 49.4257 58.0884 49.4543C58.0548 49.4829 58.0148 49.5019 57.9685 49.5112C57.9012 49.5246 57.8098 49.4948 57.6945 49.4216C57.5792 49.3484 57.4651 49.2596 57.3523 49.1553C57.2395 49.051 57.1398 48.9462 57.053 48.841C56.9655 48.7316 56.9158 48.6475 56.904 48.5886C56.8947 48.5423 56.8989 48.4977 56.9166 48.4548C56.9385 48.411 56.9448 48.366 56.9355 48.3197C56.9237 48.2608 56.9043 48.2077 56.8774 48.1606C56.8538 48.1084 56.8361 48.0529 56.8243 47.994C56.8091 47.9182 56.8079 47.8353 56.8205 47.7453C56.8322 47.651 56.8507 47.5576 56.8759 47.465C56.9003 47.3682 56.9276 47.2752 56.9579 47.186C56.9874 47.0925 57.0138 47.0063 57.0374 46.9271C57.0626 46.8346 57.108 46.7554 57.1737 46.6898C57.2393 46.6241 57.3104 46.5639 57.387 46.5092C57.4636 46.4545 57.5401 46.3997 57.6167 46.345C57.6933 46.2903 57.7568 46.225 57.8073 46.1493C57.8847 46.2082 57.974 46.2275 58.0749 46.2073C58.1801 46.1862 58.2803 46.1508 58.3754 46.1012C58.4696 46.0473 58.5694 46.0098 58.6746 45.9887C58.7587 45.9719 58.8404 45.9643 58.9195 45.9659C59.0028 45.9667 59.0865 45.9587 59.1707 45.9419C59.2633 45.9233 59.3285 45.8993 59.3664 45.8699C59.4076 45.8353 59.456 45.7819 59.5115 45.7095C59.567 45.6371 59.6423 45.5761 59.7374 45.5264C59.8359 45.4716 59.9381 45.4249 60.0442 45.3862C60.1536 45.3424 60.2609 45.299 60.3661 45.256C60.4755 45.2123 60.5706 45.1626 60.6513 45.107C60.7313 45.0472 60.7919 44.9782 60.8331 44.8999C60.8735 44.8174 60.8814 44.7152 60.857 44.5931C60.83 44.4585 60.7618 44.3255 60.6524 44.1942C60.5463 44.0579 60.42 43.941 60.2735 43.8434C60.1262 43.7416 59.9709 43.6654 59.8076 43.615C59.6443 43.5645 59.4954 43.5528 59.3607 43.5798C59.3439 43.5831 59.3275 43.5886 59.3115 43.5962C59.2955 43.6038 59.2812 43.6088 59.2686 43.6113C59.1709 43.6484 59.0598 43.6838 58.9353 43.7175C58.8099 43.747 58.6959 43.7895 58.5932 43.8451C58.4897 43.8964 58.4076 43.9676 58.3471 44.0585C58.2857 44.1452 58.2693 44.2601 58.2979 44.4032C58.3148 44.4873 58.3379 44.5702 58.3674 44.6519C58.4003 44.7284 58.4251 44.8088 58.442 44.893C58.4673 45.0192 58.4568 45.1307 58.4105 45.2275C58.3684 45.3235 58.3041 45.4064 58.2174 45.4763C58.1349 45.5453 58.039 45.6017 57.9296 45.6455C57.8194 45.6851 57.7116 45.7154 57.6064 45.7365C57.4802 45.7618 57.3674 45.7669 57.2681 45.7517C57.1688 45.7366 57.0775 45.6739 56.9941 45.5637C56.9301 45.4846 56.8607 45.4 56.7857 45.31C56.7142 45.2149 56.6679 45.1148 56.6468 45.0096C56.624 44.896 56.6219 44.787 56.6404 44.6826C56.6622 44.5732 56.6892 44.4671 56.7211 44.3644C56.7522 44.2575 56.7816 44.1532 56.8094 44.0513C56.8405 43.9444 56.8556 43.8342 56.8548 43.7206C56.8808 43.6978 56.9174 43.673 56.9646 43.646C57.0159 43.6182 57.0693 43.59 57.1249 43.5614C57.1846 43.5319 57.2406 43.5054 57.2928 43.4818C57.3483 43.4532 57.3938 43.4288 57.4291 43.4086C57.5242 43.3589 57.6142 43.3058 57.6992 43.2494C57.7876 43.188 57.8768 43.1307 57.9668 43.0777C58.0611 43.0238 58.1541 42.9745 58.2458 42.9299C58.3417 42.8844 58.4419 42.849 58.5462 42.8238L58.7406 42.7783C58.9216 42.742 59.1101 42.7218 59.3062 42.7175C59.5015 42.709 59.6963 42.7204 59.8907 42.7515C60.0851 42.7825 60.2724 42.8326 60.4526 42.9015C60.636 42.9655 60.8044 43.0521 60.9576 43.1615C61.0704 43.2439 61.1702 43.3487 61.2569 43.4757C61.347 43.5978 61.424 43.7311 61.488 43.8759C61.5562 44.0198 61.6122 44.1683 61.656 44.3215C61.7032 44.4696 61.7399 44.6089 61.766 44.7393C61.8014 44.9161 61.83 45.092 61.852 45.267C61.8773 45.437 61.9076 45.6104 61.943 45.7871C61.9767 45.9554 62.0188 46.1221 62.0694 46.287C62.1233 46.4469 62.1797 46.6085 62.2387 46.7718C62.2968 46.9308 62.3511 47.0928 62.4017 47.2578C62.4556 47.4177 62.499 47.5797 62.5318 47.7438C62.5605 47.8431 62.5857 47.9037 62.6076 47.9256C62.6329 47.9424 62.656 47.9487 62.6771 47.9445C62.7696 47.9259 62.8378 47.8838 62.8815 47.8182C62.9287 47.7475 62.9686 47.6738 63.0014 47.5972C63.0334 47.5164 63.0708 47.4411 63.1137 47.3712C63.1566 47.3013 63.2202 47.258 63.3043 47.2411C63.3422 47.2335 63.3805 47.2281 63.4192 47.2247C63.4621 47.2205 63.5021 47.2234 63.5391 47.2335C63.5753 47.2394 63.6069 47.2549 63.6338 47.2802C63.6599 47.3012 63.6776 47.3349 63.6869 47.3812ZM61.2955 46.2254C61.2904 46.2001 61.2795 46.1564 61.2626 46.0941C61.25 46.031 61.2331 45.9687 61.2121 45.9073C61.1902 45.8416 61.1637 45.7856 61.1325 45.7394C61.1056 45.6922 61.0731 45.6725 61.0353 45.6801C61.0269 45.6817 61.0172 45.6881 61.0062 45.699C60.9945 45.7057 60.9844 45.7099 60.9759 45.7116C60.8337 45.832 60.7117 45.9331 60.6099 46.0147C60.5073 46.0922 60.4029 46.1612 60.2969 46.2218C60.1942 46.2774 60.081 46.3242 59.9573 46.3621C59.8336 46.4 59.6771 46.4379 59.4877 46.4758C59.4625 46.4809 59.3951 46.5053 59.2857 46.5491C59.1763 46.5929 59.0573 46.643 58.9285 46.6994C58.7989 46.7516 58.6781 46.8043 58.5662 46.8573C58.4534 46.9062 58.3832 46.9377 58.3554 46.9521C58.3049 46.984 58.2692 47.0131 58.2481 47.0392C58.2313 47.0644 58.2191 47.091 58.2115 47.1187C58.204 47.1465 58.1968 47.1764 58.1901 47.2084C58.1825 47.2362 58.1649 47.2681 58.1371 47.3043C58.1018 47.3464 58.0609 47.3831 58.0147 47.4142C57.9726 47.4445 57.9347 47.4849 57.9011 47.5354C57.8506 47.6112 57.8085 47.7071 57.7749 47.8233C57.7404 47.9353 57.7325 48.0375 57.751 48.1301C57.7737 48.2437 57.8234 48.3388 57.9 48.4154C57.9766 48.4919 58.0697 48.5521 58.1791 48.5958C58.2885 48.6396 58.4089 48.6724 58.5402 48.6942C58.6715 48.716 58.8007 48.7274 58.9278 48.7282C59.0591 48.7282 59.1828 48.7231 59.2989 48.7129C59.4193 48.702 59.5215 48.6881 59.6057 48.6712C59.7067 48.651 59.8253 48.6206 59.9617 48.5802C60.0972 48.5356 60.2314 48.4846 60.3644 48.4273C60.4965 48.3659 60.6181 48.2956 60.7292 48.2164C60.8402 48.1373 60.9231 48.0485 60.9778 47.95C61.0005 47.9104 61.0156 47.8767 61.0232 47.849C61.0299 47.817 61.0371 47.7871 61.0447 47.7593C61.0556 47.7265 61.0665 47.6937 61.0775 47.6608C61.0926 47.6272 61.1178 47.5893 61.1532 47.5472C61.2339 47.4479 61.2899 47.3448 61.321 47.2379C61.3563 47.1301 61.3761 47.0211 61.3802 46.9109C61.3844 46.8006 61.3772 46.6883 61.3587 46.5738C61.3402 46.4593 61.3191 46.3432 61.2955 46.2254ZM69.7954 45.2978C69.8063 45.3525 69.8068 45.4093 69.7967 45.4682C69.79 45.5221 69.7795 45.5789 69.7652 45.6386C69.75 45.6942 69.7349 45.7497 69.7198 45.8053C69.7088 45.86 69.7046 45.9156 69.7072 45.9719C69.7089 46.0898 69.6854 46.2017 69.6366 46.3078C69.5912 46.4088 69.5344 46.5077 69.4662 46.6045C69.3981 46.7013 69.3253 46.7968 69.2479 46.8911C69.1696 46.9812 69.1023 47.0713 69.046 47.1614C68.9955 47.2371 68.9345 47.2822 68.8629 47.2965C68.8209 47.3049 68.78 47.3087 68.7405 47.3079C68.7009 47.307 68.6601 47.3108 68.618 47.3193C68.5591 47.3311 68.5128 47.3513 68.4792 47.3799C68.4497 47.4077 68.4207 47.4376 68.3921 47.4696C68.3669 47.4965 68.3332 47.5251 68.2911 47.5554C68.2533 47.5849 68.1964 47.6072 68.1207 47.6224C68.066 47.6333 68.0164 47.6586 67.9718 47.6982C67.9272 47.7377 67.8796 47.7626 67.8291 47.7727C67.7576 47.787 67.6692 47.7828 67.564 47.7601C67.463 47.7366 67.3557 47.7362 67.2421 47.759C67.1705 47.7733 67.0998 47.7918 67.03 47.8146C66.9593 47.8331 66.8882 47.8495 66.8166 47.8639C66.7535 47.8765 66.6887 47.8807 66.6222 47.8765C66.5591 47.8673 66.496 47.8581 66.4329 47.8488C66.3731 47.8345 66.3121 47.8249 66.2498 47.8198C66.1867 47.8106 66.1235 47.8123 66.0604 47.8249C65.9342 47.8502 65.8332 47.9033 65.7575 47.9841C65.6817 48.0649 65.6157 48.1503 65.5593 48.2404C65.508 48.3338 65.4529 48.4193 65.394 48.4967C65.3393 48.5733 65.2678 48.6205 65.1794 48.6382C65.0995 48.6542 65.0418 48.6504 65.0065 48.6269C64.9762 48.6067 64.953 48.5785 64.937 48.5423C64.9252 48.5053 64.9126 48.464 64.8991 48.4186C64.8865 48.3773 64.86 48.3433 64.8196 48.3163C64.743 48.2617 64.6887 48.2091 64.6567 48.1586C64.6238 48.1039 64.5981 48.0302 64.5796 47.9377C64.5391 47.7357 64.5168 47.5366 64.5125 47.3405C64.5116 47.1394 64.491 46.9378 64.4505 46.7358C64.4362 46.6643 64.4139 46.5966 64.3835 46.5326C64.3532 46.4686 64.32 46.4118 64.2838 46.3622C64.2518 46.3117 64.2236 46.2692 64.1991 46.2347C64.1747 46.2002 64.1608 46.1745 64.1575 46.1577C64.1499 46.1198 64.1524 46.0778 64.165 46.0315C64.1776 45.9852 64.1932 45.9427 64.2117 45.9039C64.2336 45.8602 64.2571 45.8248 64.2824 45.7979C64.311 45.7659 64.3358 45.7478 64.3568 45.7436C64.3989 45.7351 64.4368 45.7385 64.4704 45.7536C64.5083 45.7679 64.5445 45.7848 64.579 45.8041C64.6169 45.8184 64.6527 45.8331 64.6864 45.8483C64.7242 45.8626 64.7663 45.8651 64.8126 45.8558C64.821 45.8541 64.8273 45.8529 64.8315 45.852C64.8349 45.847 64.8408 45.8436 64.8492 45.8419C64.9275 45.9269 64.9949 46.0228 65.0513 46.1297C65.1069 46.2324 65.1624 46.335 65.218 46.4377C65.2769 46.5353 65.3418 46.6296 65.4125 46.7204C65.4866 46.8063 65.5796 46.8774 65.6916 46.9337C65.721 46.9497 65.7551 46.967 65.7938 46.9855C65.8325 47.004 65.8713 47.0225 65.91 47.041C65.9529 47.0586 65.9929 47.0725 66.0299 47.0826C66.0712 47.0919 66.1065 47.0935 66.136 47.0876C66.1823 47.0784 66.2256 47.0653 66.266 47.0485C66.3106 47.0308 66.356 47.0173 66.4023 47.008C66.4655 46.9954 66.5012 47.0101 66.5097 47.0522C66.5113 47.0606 66.5105 47.0783 66.5071 47.1052L66.5829 47.09L66.6271 47.0812C66.787 47.0492 66.9431 46.9982 67.0954 46.9283C67.2477 46.8584 67.4059 46.807 67.5701 46.7742C67.6458 46.759 67.7232 46.7522 67.8023 46.7539C67.8848 46.7505 67.9623 46.7656 68.0346 46.7993C68.107 46.7454 68.1646 46.6835 68.2076 46.6137C68.2505 46.5438 68.2938 46.476 68.3375 46.4104C68.3804 46.3405 68.4313 46.2778 68.4902 46.2222C68.5483 46.1625 68.6295 46.1199 68.7339 46.0947C68.7498 46.0652 68.7545 46.0336 68.7477 46C68.7452 45.9655 68.741 45.9335 68.7351 45.904C68.7283 45.8704 68.7241 45.8384 68.7224 45.8081C68.7249 45.7769 68.7363 45.7462 68.7565 45.7159C68.791 45.6696 68.815 45.6254 68.8284 45.5833C68.8452 45.5362 68.8477 45.4832 68.8359 45.4243C68.8132 45.3106 68.7606 45.2118 68.6781 45.1276C68.5947 45.0393 68.4945 44.9652 68.3775 44.9055C68.2639 44.8407 68.1355 44.7898 67.9924 44.7529C67.8527 44.7108 67.7109 44.6801 67.567 44.6608C67.4273 44.6406 67.2943 44.6323 67.168 44.6357C67.0409 44.6349 66.9311 44.6437 66.8385 44.6623C66.7333 44.6833 66.6302 44.7149 66.5293 44.757C66.4316 44.7941 66.3391 44.8454 66.2516 44.9111C66.233 44.8185 66.1998 44.7617 66.1518 44.7407C66.1038 44.7197 66.0491 44.7088 65.9876 44.7079C65.9262 44.7071 65.8618 44.7025 65.7945 44.6941C65.7305 44.6806 65.6737 44.6373 65.624 44.5641C65.571 44.671 65.494 44.7565 65.3931 44.8204C65.2963 44.8836 65.1932 44.9261 65.0838 44.948C64.9744 44.9699 64.8692 44.9691 64.7682 44.9456C64.6672 44.9221 64.5716 44.8821 64.4816 44.8257C64.3957 44.7685 64.3204 44.6983 64.2555 44.615C64.1949 44.5308 64.152 44.4366 64.1267 44.3322C64.1082 44.2615 64.0808 44.2013 64.0446 44.1517C64.0084 44.102 63.9705 44.0549 63.9309 44.0103C63.8914 43.9657 63.8535 43.9186 63.8173 43.869C63.7853 43.8185 63.7617 43.7554 63.7465 43.6796C63.7086 43.4903 63.6875 43.3413 63.6833 43.2327C63.6824 43.1191 63.6912 43.032 63.7097 42.9714C63.7274 42.9066 63.7509 42.8603 63.7804 42.8325C63.8132 42.7997 63.8464 42.7689 63.8801 42.7403C63.9129 42.7075 63.9419 42.6666 63.9672 42.6178C63.9924 42.569 64.0063 42.4962 64.0088 42.3994C64.0088 42.3338 64.0193 42.2879 64.0403 42.2618C64.0613 42.2357 64.1026 42.2121 64.164 42.1911C64.217 42.1717 64.2503 42.1519 64.2637 42.1317C64.2772 42.1115 64.2839 42.0905 64.2839 42.0686C64.2881 42.0458 64.2923 42.0231 64.2965 42.0004C64.2999 41.9735 64.3163 41.9461 64.3457 41.9183C64.4223 41.8417 64.5014 41.7887 64.583 41.7592C64.668 41.7247 64.7568 41.6981 64.8494 41.6796C64.9041 41.6686 64.9571 41.6602 65.0084 41.6543C65.0589 41.6442 65.1136 41.6332 65.1726 41.6214C65.3493 41.586 65.5201 41.5431 65.6851 41.4925C65.85 41.442 66.0209 41.399 66.1976 41.3636C66.3323 41.3367 66.4572 41.3269 66.5725 41.3345C66.6912 41.337 66.796 41.3466 66.8869 41.3634C66.9778 41.3802 67.0557 41.3975 67.1205 41.4151C67.1887 41.4277 67.2417 41.4303 67.2795 41.4227C67.3511 41.4083 67.4159 41.3822 67.4739 41.3443C67.5354 41.3014 67.6014 41.2707 67.6721 41.2521C67.7117 41.2749 67.755 41.2946 67.8022 41.3114C67.8527 41.3232 67.9011 41.3245 67.9474 41.3152C67.981 41.3084 68.0042 41.2929 68.0168 41.2685C68.0294 41.244 68.0344 41.2146 68.0319 41.1801C68.0942 41.1851 68.1569 41.2032 68.22 41.2343C68.2832 41.2654 68.3417 41.3062 68.3955 41.3567C68.4528 41.4022 68.5008 41.456 68.5395 41.5183C68.5774 41.5764 68.6022 41.6348 68.614 41.6938C68.6452 41.8494 68.6638 42.0077 68.6697 42.1684C68.679 42.3241 68.6992 42.4798 68.7304 42.6355C68.7625 42.7954 68.8134 42.9406 68.8833 43.071C68.8337 43.1291 68.7769 43.1843 68.7129 43.2365C68.6523 43.2836 68.6052 43.3434 68.5716 43.4158L68.564 43.4107C68.5295 43.3914 68.4853 43.3674 68.4314 43.3388C68.3809 43.3051 68.3266 43.2744 68.2685 43.2467C68.2147 43.2181 68.162 43.1958 68.1107 43.1798C68.0585 43.1596 68.0135 43.1533 67.9756 43.1609L67.963 43.1634C67.9394 43.155 67.9175 43.1441 67.8973 43.1306C67.8813 43.1163 67.8708 43.0965 67.8658 43.0713C67.8573 43.0292 67.8624 42.9888 67.8809 42.9501C67.8994 42.9114 67.9044 42.871 67.896 42.8289C67.8935 42.8163 67.8686 42.7906 67.8215 42.7519C67.7743 42.7132 67.7209 42.6758 67.6611 42.6396C67.6047 42.5984 67.5496 42.5634 67.4957 42.5348C67.441 42.502 67.4027 42.4856 67.3808 42.4856C67.3371 42.4856 67.2899 42.4798 67.2394 42.468C67.1889 42.4562 67.1384 42.4445 67.0879 42.4327C67.0374 42.4209 66.9894 42.4108 66.944 42.4024C66.9027 42.3932 66.8695 42.3911 66.8443 42.3961C66.7895 42.4071 66.7365 42.4265 66.6852 42.4543C66.633 42.4778 66.5779 42.4976 66.5198 42.5136L66.5261 42.5124L66.2358 42.5377C66.0936 42.5487 65.95 42.5424 65.8053 42.5189C65.6605 42.4953 65.5166 42.4979 65.3735 42.5266C65.2473 42.5518 65.1606 42.5998 65.1135 42.6705C65.0664 42.7413 65.0315 42.8183 65.0088 42.9016C64.9852 42.9807 64.9604 43.0535 64.9343 43.12C64.9083 43.1865 64.851 43.2286 64.7627 43.2463C64.7374 43.2514 64.7181 43.2531 64.7046 43.2514C64.7737 43.3776 64.8343 43.4836 64.8865 43.5695C64.9429 43.6545 65.0039 43.7298 65.0696 43.7954C65.1344 43.8568 65.2114 43.9136 65.3007 43.9658C65.3891 44.0137 65.4997 44.0638 65.6327 44.1159C65.6471 44.1218 65.6668 44.1332 65.6921 44.15C65.7215 44.166 65.7514 44.1841 65.7817 44.2043C65.8112 44.2202 65.8381 44.2345 65.8625 44.2472C65.8912 44.2589 65.9118 44.2636 65.9244 44.261C65.9959 44.2467 66.0599 44.2164 66.1163 44.1701C66.1769 44.1229 66.2429 44.0922 66.3145 44.0779C66.365 44.0678 66.4138 44.0711 66.4609 44.0879C66.5114 44.0997 66.5619 44.1005 66.6124 44.0904C66.6629 44.0803 66.7096 44.0622 66.7525 44.0361C66.7946 44.0058 66.843 43.9852 66.8977 43.9742C66.9187 43.97 66.9402 43.9679 66.9621 43.9679C66.9882 43.967 67.0122 43.9666 67.034 43.9666C67.167 43.975 67.2966 43.9665 67.4229 43.9412C67.5483 43.9118 67.6766 43.886 67.8079 43.8641C67.9005 43.8456 67.9964 43.8439 68.0957 43.859C68.1993 43.8733 68.3007 43.8989 68.4 43.9359C68.4985 43.9687 68.5923 44.0112 68.6816 44.0634C68.7708 44.1155 68.8499 44.1719 68.919 44.2325C68.9728 44.283 69.0297 44.3263 69.0894 44.3625C69.1492 44.3986 69.2073 44.4373 69.2637 44.4786C69.3234 44.5147 69.3777 44.5564 69.4266 44.6035C69.4754 44.6506 69.5154 44.7083 69.5465 44.7764C69.5844 44.8564 69.6303 44.9435 69.6842 45.0377C69.7423 45.1311 69.7794 45.2178 69.7954 45.2978ZM73.3802 38.3495C73.4046 38.4715 73.4089 38.602 73.3929 38.7409C73.3803 38.8747 73.3471 39.0039 73.2933 39.1285C73.2386 39.2488 73.1638 39.3557 73.0687 39.4492C72.977 39.5376 72.8659 39.5949 72.7354 39.621C72.6471 39.6387 72.5351 39.648 72.3996 39.6488C72.2633 39.6455 72.129 39.6308 71.9969 39.6048C71.8681 39.5737 71.7511 39.5249 71.6459 39.4584C71.5449 39.3911 71.483 39.3006 71.4602 39.187C71.44 39.086 71.4299 38.9808 71.4298 38.8714C71.4332 38.757 71.426 38.6446 71.4083 38.5343C71.4462 38.5049 71.4807 38.4586 71.5118 38.3955C71.5429 38.3323 71.5719 38.2696 71.5988 38.2073C71.6291 38.14 71.6586 38.0794 71.6872 38.0255C71.72 37.9708 71.757 37.9371 71.7982 37.9245L71.7692 37.9434C71.8231 37.9064 71.8799 37.8731 71.9396 37.8436C72.0036 37.8133 72.0692 37.7914 72.1365 37.7779C72.2249 37.7602 72.3347 37.7623 72.466 37.7842C72.6007 37.801 72.732 37.8338 72.86 37.8825C72.9879 37.9313 73.1015 37.9961 73.2009 38.0769C73.3002 38.1576 73.36 38.2485 73.3802 38.3495ZM77.9736 45.4193C77.988 45.4909 77.9867 45.5612 77.9699 45.6302C77.9573 45.6984 77.9304 45.7606 77.8891 45.817C77.853 45.8768 77.8063 45.9277 77.7491 45.9698C77.6918 46.0119 77.6253 46.0406 77.5496 46.0557C77.5201 46.0616 77.5004 46.0612 77.4903 46.0545C77.4802 46.0478 77.4625 46.036 77.4372 46.0192C77.3657 45.9678 77.2866 45.9443 77.1999 45.9485C77.114 45.957 77.0236 45.9641 76.9285 45.9701C76.8384 45.9793 76.7475 45.9735 76.6558 45.9524C76.5691 45.9348 76.4895 45.8763 76.4171 45.777C76.3691 45.7122 76.3241 45.6731 76.282 45.6597C76.2399 45.6462 76.1789 45.6475 76.0989 45.6635C75.9138 45.7006 75.7429 45.7654 75.5864 45.858C75.4299 45.9507 75.2772 46.0513 75.1282 46.1599C74.9785 46.2643 74.8232 46.3632 74.6625 46.4567C74.5059 46.5493 74.3372 46.6137 74.1563 46.65C74.0553 46.6702 73.9522 46.6799 73.847 46.6791C73.7468 46.6816 73.6462 46.6712 73.5452 46.6476C73.5284 46.6729 73.5061 46.6927 73.4783 46.707C73.4548 46.7204 73.4262 46.7305 73.3925 46.7373C73.363 46.7432 73.3332 46.747 73.3029 46.7487C73.2768 46.7495 73.2532 46.7521 73.2322 46.7563C73.228 46.7571 73.2061 46.7681 73.1665 46.7891C73.1278 46.8144 73.1047 46.8299 73.0971 46.8358L73.1476 46.8914C73.13 46.9343 73.0803 46.9814 72.9987 47.0328C72.9179 47.0884 72.8274 47.1393 72.7273 47.1856C72.6314 47.2311 72.5367 47.272 72.4433 47.3082C72.3499 47.3444 72.2779 47.3675 72.2274 47.3777C72.0928 47.4046 71.9766 47.4038 71.879 47.3752C71.7864 47.35 71.6871 47.2911 71.581 47.1986C71.5431 47.1624 71.4968 47.1279 71.4421 47.0951C71.3916 47.0614 71.3411 47.0278 71.2906 46.9941C71.2434 46.9554 71.2001 46.9138 71.1605 46.8692C71.1251 46.8237 71.102 46.7737 71.091 46.719C71.0784 46.6558 71.1015 46.5965 71.1604 46.5409C71.2193 46.4854 71.2925 46.4357 71.3801 46.3919C71.4667 46.3439 71.5555 46.3064 71.6464 46.2795C71.7365 46.2483 71.8067 46.2277 71.8572 46.2176C71.9582 46.1973 72.0621 46.1918 72.169 46.2011C72.2751 46.2061 72.3786 46.1985 72.4796 46.1783C72.5722 46.1597 72.658 46.1294 72.7371 46.0873C72.8162 46.0452 72.9021 46.0149 72.9946 45.9963C73.0746 45.9803 73.1537 45.971 73.232 45.9685C73.3136 45.9609 73.3944 45.9491 73.4744 45.9331C73.5753 45.9129 73.6688 45.8766 73.7546 45.8244C73.8438 45.7672 73.9246 45.7007 73.9969 45.6249C73.9893 45.412 73.9712 45.2011 73.9425 44.9924C73.918 44.7829 73.8847 44.5729 73.8426 44.3625C73.8013 44.1563 73.7432 43.9535 73.6682 43.754C73.5932 43.5546 73.5355 43.3539 73.4951 43.1519C73.4917 43.135 73.4942 43.1258 73.5027 43.1241C73.5102 43.1182 73.5182 43.1144 73.5266 43.1127C73.5384 43.106 73.5481 43.0997 73.5557 43.0938C73.5624 43.0837 73.5632 43.066 73.5582 43.0408C73.5405 42.9524 73.5106 42.8687 73.4685 42.7896C73.4264 42.7105 73.3965 42.6267 73.3788 42.5384C73.3569 42.4289 73.3501 42.3187 73.3585 42.2076C73.3669 42.0965 73.3601 41.9862 73.3382 41.8768C73.323 41.8011 73.291 41.7287 73.2422 41.6597C73.1934 41.5907 73.1357 41.5322 73.0692 41.4843C73.0027 41.4363 72.9303 41.4027 72.852 41.3833C72.7729 41.3598 72.6934 41.356 72.6134 41.372C72.5251 41.3897 72.4388 41.418 72.3546 41.4567C72.2747 41.4946 72.1914 41.5375 72.1047 41.5855C72.0172 41.6293 71.9271 41.6714 71.8346 41.7118C71.7462 41.7514 71.6494 41.7818 71.5442 41.8028C71.4222 41.8273 71.3006 41.8429 71.1794 41.8496C71.0582 41.8564 70.9345 41.8615 70.8082 41.8649C70.7476 41.8683 70.6786 41.8733 70.6012 41.8801C70.528 41.886 70.4556 41.8852 70.3841 41.8776C70.3125 41.8701 70.2494 41.8499 70.1947 41.8171C70.14 41.7843 70.1046 41.7279 70.0886 41.6479C70.0591 41.5006 70.062 41.3841 70.0973 41.2982C70.136 41.2073 70.1894 41.1353 70.2576 41.0823C70.33 41.0284 70.4137 40.9876 70.5088 40.9598C70.6039 40.932 70.6948 40.905 70.7815 40.8789C70.9388 40.8343 71.0945 40.7921 71.2485 40.7525C71.4059 40.7079 71.5646 40.6695 71.7245 40.6375C71.9222 40.5979 72.1183 40.5718 72.3127 40.5591C72.5105 40.5414 72.7083 40.5127 72.9061 40.4731C73.0449 40.4453 73.1817 40.4398 73.3164 40.4566C73.451 40.4734 73.5735 40.5167 73.6838 40.5865C73.7974 40.6513 73.8947 40.7434 73.9755 40.8629C74.0563 40.9824 74.114 41.1284 74.1486 41.3009C74.1713 41.4146 74.1684 41.5311 74.1398 41.6506C74.1146 41.7651 74.0725 41.872 74.0136 41.9713C74.0541 42.0201 74.0911 42.0521 74.1248 42.0673C74.1576 42.0782 74.1883 42.0895 74.2169 42.1013C74.2447 42.1089 74.2695 42.1236 74.2914 42.1455C74.3125 42.1632 74.3293 42.2036 74.342 42.2667C74.3487 42.3003 74.3609 42.3395 74.3786 42.3841C74.3997 42.4236 74.4338 42.4409 74.4809 42.4358C74.5264 42.663 74.5694 42.8886 74.6098 43.1125C74.6494 43.3321 74.6916 43.5534 74.7362 43.7765C74.7742 43.9658 74.8121 44.1552 74.85 44.3445C74.8921 44.5331 74.9469 44.7191 75.0143 44.9025C75.0547 45.017 75.1065 45.1007 75.1696 45.1537C75.2328 45.2067 75.3296 45.2201 75.46 45.194C75.6494 45.1561 75.8328 45.0997 76.0104 45.0247C76.1871 44.9456 76.3702 44.887 76.5595 44.8491C76.6689 44.8272 76.7775 44.8339 76.8852 44.8692C76.9972 44.9037 77.1037 44.9436 77.2047 44.989C77.3099 45.0336 77.4101 45.0748 77.5052 45.1127C77.6003 45.1505 77.6857 45.1619 77.7615 45.1467C77.7951 45.14 77.825 45.1471 77.8511 45.1681C77.8764 45.185 77.8966 45.2094 77.9117 45.2414C77.9302 45.2683 77.9429 45.2986 77.9496 45.3322C77.9606 45.3651 77.9686 45.3941 77.9736 45.4193ZM84.918 43.9367C84.9475 44.0839 84.9202 44.2098 84.8361 44.3142C84.757 44.4219 84.6522 44.5107 84.5218 44.5806C84.3922 44.6547 84.2529 44.7133 84.104 44.7562C83.9592 44.7983 83.8342 44.8299 83.729 44.851C83.5902 44.8788 83.4719 44.8894 83.3743 44.8827C83.2809 44.8751 83.1975 44.8633 83.1243 44.8474C83.0519 44.8356 82.988 44.8222 82.9324 44.807C82.8769 44.7919 82.8217 44.7898 82.767 44.8008C82.6955 44.8151 82.6265 44.842 82.56 44.8816C82.4977 44.9203 82.4308 44.9469 82.3593 44.9612C82.3088 44.9713 82.265 44.9713 82.228 44.9612C82.1952 44.9503 82.1657 44.9343 82.1396 44.9133C82.1144 44.8964 82.0895 44.8817 82.0651 44.8691C82.0449 44.8556 82.0222 44.8514 81.9969 44.8565C81.9675 44.8624 81.9464 44.8776 81.9338 44.902C81.922 44.9306 81.9086 44.9617 81.8935 44.9954C81.8783 45.0291 81.8518 45.0606 81.8139 45.0901C81.7811 45.1229 81.7268 45.1469 81.6511 45.1621C81.5627 45.1798 81.4744 45.1866 81.386 45.1824C81.2985 45.1824 81.2105 45.1913 81.1221 45.209C81.0338 45.2267 80.9484 45.2591 80.8659 45.3062C80.7885 45.3567 80.7119 45.3896 80.6361 45.4048C80.6025 45.4115 80.5747 45.4039 80.5528 45.3821C80.5318 45.3644 80.5107 45.3577 80.4897 45.3619C80.4182 45.3762 80.3458 45.4082 80.2726 45.4579C80.2036 45.5067 80.1291 45.5391 80.0491 45.5551C80.0071 45.5636 79.9637 45.5657 79.9191 45.5615C79.8796 45.5607 79.8387 45.5645 79.7967 45.5729C79.7251 45.5872 79.657 45.6184 79.5922 45.6664C79.5274 45.7144 79.4424 45.7489 79.3372 45.77C79.2993 45.7775 79.2139 45.7881 79.0809 45.8016C78.953 45.8184 78.8196 45.8298 78.6807 45.8358C78.5418 45.8417 78.4143 45.8388 78.2982 45.827C78.1871 45.8186 78.1277 45.7955 78.1202 45.7576C78.0982 45.6482 78.0953 45.535 78.1112 45.418C78.1314 45.3002 78.1314 45.1908 78.1111 45.0898L78.1086 45.0772C78.0539 45.0881 78.0165 45.065 77.9962 45.0078C78.0013 44.9893 78.0114 44.9741 78.0265 44.9623C78.045 44.9455 78.0644 44.9329 78.0846 44.9244C78.1039 44.9118 78.1208 44.8975 78.1351 44.8815C78.1494 44.8655 78.154 44.8449 78.1489 44.8196L78.1439 44.7944C78.3156 44.7775 78.4818 44.7552 78.6425 44.7273C78.8075 44.6987 78.9783 44.6667 79.1551 44.6313C79.3192 44.5984 79.4993 44.558 79.6954 44.5099C79.8948 44.4569 80.0737 44.3882 80.2319 44.304C80.3943 44.219 80.5222 44.1146 80.6156 43.9908C80.7123 43.862 80.7422 43.705 80.7051 43.5199L80.6962 43.4757L80.676 43.3747C80.5623 42.9161 80.4481 42.4662 80.3335 42.0252C80.2223 41.5792 80.1204 41.1247 80.0277 40.6619C80.0032 40.5398 79.9691 40.4241 79.9253 40.3147C79.8849 40.2003 79.8529 40.0841 79.8293 39.9663C79.7998 39.819 79.7955 39.6667 79.8165 39.5093C79.8417 39.3511 79.901 39.2101 79.9944 39.0863C79.9852 39.0619 79.9713 39.0472 79.9528 39.0421C79.9334 39.0329 79.9107 39.0287 79.8846 39.0295C79.8585 39.0304 79.8324 39.0312 79.8063 39.0321C79.7844 39.0321 79.7642 39.0296 79.7457 39.0245C79.7179 39.017 79.6952 38.9909 79.6775 38.9463C79.6598 38.9017 79.6413 38.8529 79.6219 38.7998C79.6068 38.746 79.5899 38.6946 79.5714 38.6458C79.5562 38.592 79.5352 38.5524 79.5082 38.5272C79.4964 38.4026 79.4934 38.2785 79.4993 38.1548C79.5052 38.031 79.4959 37.9082 79.4714 37.7861C79.4537 37.6978 79.4272 37.6309 79.3918 37.5854C79.3607 37.5391 79.327 37.5021 79.2908 37.4743C79.2546 37.4466 79.2214 37.4226 79.1911 37.4024C79.1641 37.3772 79.1464 37.3435 79.138 37.3014C79.1313 37.2678 79.1355 37.2341 79.1506 37.2004L79.0989 37.2042C79.0568 37.2127 79.0273 37.2295 79.0105 37.2548C78.9937 37.28 78.9773 37.3074 78.9613 37.3368C78.9495 37.3654 78.9352 37.3924 78.9184 37.4176C78.9015 37.4429 78.8742 37.4593 78.8363 37.4669C78.8069 37.4728 78.7719 37.4732 78.7315 37.4682C78.6642 37.5035 78.599 37.5275 78.5359 37.5402C78.3886 37.5697 78.2375 37.5802 78.0827 37.5719C77.9312 37.5584 77.7818 37.5665 77.6345 37.596C77.5545 37.612 77.4775 37.6318 77.4035 37.6554C77.3286 37.6747 77.2533 37.692 77.1775 37.7072C77.0681 37.7291 76.9562 37.7384 76.8417 37.7351C76.7272 37.7317 76.6195 37.6964 76.5185 37.6291L76.5033 37.5533C76.4587 37.3303 76.4986 37.1473 76.6231 37.0041C76.7518 36.8602 76.9235 36.7667 77.1381 36.7237C77.2854 36.6942 77.4344 36.6841 77.585 36.6933C77.7357 36.7025 77.8847 36.6924 78.0319 36.6629C78.1119 36.6469 78.1944 36.6216 78.2794 36.5871C78.3644 36.5526 78.451 36.5155 78.5394 36.4759C78.6278 36.4364 78.7165 36.3989 78.8057 36.3635C78.8992 36.3273 78.9921 36.2999 79.0847 36.2814C79.2278 36.2527 79.3688 36.2573 79.5077 36.2952C79.6457 36.3288 79.7833 36.3603 79.9205 36.3897L79.9243 36.4415C79.9319 36.4794 79.9475 36.5134 79.971 36.5437C79.998 36.569 80.0274 36.5959 80.0594 36.6245C80.0906 36.6489 80.1179 36.6763 80.1415 36.7065C80.1685 36.7318 80.1857 36.7633 80.1933 36.8012C80.2009 36.8391 80.2022 36.8782 80.1971 36.9186C80.1954 36.954 80.1984 36.9906 80.206 37.0285C80.2245 37.121 80.2591 37.206 80.3096 37.2834C80.3643 37.36 80.4014 37.4467 80.4207 37.5435C80.441 37.6445 80.4481 37.7459 80.4423 37.8477C80.4406 37.9487 80.4499 38.0497 80.4701 38.1507C80.4946 38.2727 80.5337 38.3918 80.5876 38.508C80.6415 38.6241 80.6807 38.7432 80.7051 38.8652C80.7254 38.9662 80.7283 39.0685 80.7141 39.172C80.704 39.2747 80.7086 39.3744 80.728 39.4712C80.7423 39.5427 80.7651 39.6126 80.7962 39.6807C80.8308 39.7438 80.8674 39.8065 80.9061 39.8688C80.9449 39.9311 80.9798 39.9963 81.011 40.0645C81.0455 40.1276 81.0703 40.197 81.0855 40.2727L81.1108 40.399C81.1243 40.4663 81.131 40.5328 81.131 40.5985C81.1344 40.659 81.1184 40.7213 81.0831 40.7853C81.1202 40.861 81.1585 40.9431 81.1981 41.0315C81.2418 41.119 81.2722 41.2048 81.289 41.289C81.2975 41.3311 81.3025 41.3782 81.3042 41.4304C81.3093 41.4775 81.3084 41.528 81.3017 41.5819C81.2984 41.6307 81.2883 41.6787 81.2715 41.7258C81.2538 41.7687 81.2307 41.8062 81.2021 41.8382C81.2888 41.9871 81.357 42.142 81.4067 42.3027C81.4564 42.4634 81.5019 42.625 81.5432 42.7874C81.5575 42.8371 81.579 42.9006 81.6076 42.9781C81.6362 43.0555 81.6649 43.1329 81.6935 43.2103C81.7213 43.2835 81.7462 43.353 81.7681 43.4186C81.7933 43.4792 81.8085 43.5221 81.8135 43.5474C81.8279 43.6189 81.8291 43.6909 81.8174 43.7633C81.8056 43.8356 81.8069 43.9076 81.8212 43.9791C81.8322 44.0338 81.8566 44.0902 81.8945 44.1483C81.9315 44.2021 81.9837 44.2223 82.0511 44.2088C82.1015 44.1987 82.1415 44.1798 82.171 44.152C82.2038 44.1192 82.2387 44.0859 82.2757 44.0522C82.3119 44.0144 82.3552 43.9794 82.4057 43.9474C82.4596 43.9104 82.5349 43.8822 82.6317 43.8628C82.7411 43.8409 82.8471 43.8349 82.9498 43.845C83.0525 43.8551 83.1586 43.8492 83.268 43.8273C83.3479 43.8113 83.4266 43.7889 83.504 43.7603C83.5848 43.7266 83.6614 43.6938 83.7338 43.6618C83.8095 43.6247 83.8857 43.5898 83.9622 43.5569C84.0388 43.5241 84.1192 43.4992 84.2034 43.4824C84.3717 43.4487 84.5223 43.4688 84.6553 43.5428C84.7925 43.616 84.8801 43.7473 84.918 43.9367ZM79.7211 36.8039C79.7009 36.7904 79.6765 36.7778 79.6479 36.766C79.6235 36.7534 79.5966 36.75 79.5671 36.7559C79.5461 36.7601 79.5292 36.7745 79.5166 36.7989C79.5074 36.8182 79.5048 36.8384 79.5091 36.8595L79.5558 36.9289C79.5743 36.9339 79.5878 36.9356 79.5962 36.9339C79.6299 36.9272 79.6551 36.9112 79.6719 36.8859C79.6921 36.8556 79.7085 36.8283 79.7211 36.8039ZM80.4513 38.4827C80.4445 38.4491 80.4273 38.4175 80.3995 38.3881C80.3751 38.3536 80.3418 38.3405 80.2998 38.349C80.2871 38.3515 80.2728 38.3565 80.2568 38.3641C80.245 38.3709 80.2354 38.3772 80.2278 38.3831L80.2822 38.6545C80.3192 38.6646 80.3461 38.6679 80.363 38.6646C80.405 38.6561 80.4311 38.6334 80.4412 38.5964C80.4547 38.5543 80.458 38.5164 80.4513 38.4827Z" fill="#535353"/>
<line opacity="0.3" x1="42.6639" y1="59.5057" x2="117.192" y2="44.5797" stroke="#535353" stroke-width="0.732422"/>
<path d="M45.8526 69.4391L45.7186 68.7701L47.5953 68.3942C48.0526 68.3026 48.3808 68.1421 48.5799 67.9125C48.779 67.683 48.8438 67.3943 48.7741 67.0464L48.7724 67.038C48.7258 66.8052 48.632 66.6212 48.4912 66.486C48.3503 66.3508 48.1626 66.2658 47.928 66.2311C47.6963 66.1958 47.4191 66.2105 47.0965 66.2751L45.2913 66.6366L45.1607 65.9844L46.7513 65.6658C47.2113 65.5737 47.5401 65.4232 47.7376 65.2144C47.9378 65.0051 48.0059 64.7405 47.9419 64.4207L47.9402 64.4123C47.8784 64.1037 47.7254 63.8863 47.4813 63.7602C47.2395 63.6306 46.9306 63.6035 46.5547 63.6788L44.7705 64.0361L44.6365 63.367L46.5806 62.9777C46.9537 62.9029 47.2858 62.9006 47.5771 62.9707C47.8711 63.0402 48.1124 63.1742 48.301 63.3728C48.4918 63.568 48.6181 63.8199 48.6799 64.1285L48.6816 64.1369C48.7237 64.3473 48.7157 64.5546 48.6574 64.7589C48.6019 64.9626 48.5082 65.1433 48.3764 65.301C48.2446 65.4587 48.0841 65.5754 47.8951 65.6512L47.9085 65.7185C48.193 65.6966 48.4494 65.7313 48.6778 65.8227C48.9062 65.9141 49.0962 66.054 49.2477 66.2425C49.4015 66.4277 49.5051 66.6535 49.5585 66.92L49.5602 66.9284C49.6309 67.2819 49.6092 67.6028 49.4948 67.8912C49.3826 68.1763 49.1874 68.4182 48.9092 68.6169C48.6304 68.8128 48.2749 68.954 47.8429 69.0405L45.8526 69.4391ZM45.4738 69.515L44.2578 63.4429L45.0152 63.2912L46.2313 69.3633L45.4738 69.515ZM51.1378 68.3806L49.9217 62.3085L52.2403 61.8442C52.6302 61.7661 52.9848 61.7739 53.3041 61.8675C53.6257 61.9577 53.8933 62.1215 54.1072 62.3588C54.321 62.5961 54.4645 62.8971 54.5375 63.2617L54.5392 63.2702C54.6235 63.691 54.5885 64.0773 54.4343 64.4291C54.2801 64.781 54.0243 65.0554 53.6669 65.2525L55.5772 67.4916L54.6893 67.6694L52.9078 65.527C52.9022 65.5281 52.8952 65.5296 52.8868 65.5312C52.8784 65.5329 52.8714 65.5343 52.8658 65.5355L51.414 65.8262L51.8952 68.229L51.1378 68.3806ZM51.2792 65.1529L52.773 64.8537C53.1629 64.7757 53.4432 64.616 53.6137 64.3746C53.7864 64.13 53.8357 63.8225 53.7616 63.4522L53.7599 63.4437C53.6874 63.0819 53.5198 62.8207 53.2572 62.6603C52.9946 62.4999 52.6669 62.459 52.2741 62.5377L50.814 62.8301L51.2792 65.1529ZM56.2841 67.35L57.3067 60.8295L57.8874 60.7132L58.0838 61.6937L57.8439 61.7417L57.0794 67.1907L56.2841 67.35ZM56.9502 65.409L57.0569 64.718L59.8005 64.1685L60.1651 64.7651L56.9502 65.409ZM60.7151 66.4626L57.9112 61.7282L57.7149 60.7478L58.0557 60.6795L61.5104 66.3033L60.7151 66.4626Z" fill="#535353" fill-opacity="0.7"/>
<line opacity="0.3" x1="45.4129" y1="73.2327" x2="119.941" y2="58.3068" stroke="#535353" stroke-width="0.732422"/>
</g>
<g filter="url(#filter2_d_374_54332)">
<path d="M10.6754 61.9383C13.3941 71.8327 10.2731 81.7777 1.48899 87.2942C-3.46497 90.4054 -8.73685 92.8891 -13.9911 95.4385C-19.1336 97.9337 -24.783 100.031 -29.089 103.927C-34.0701 108.435 -33.9344 114.912 -33.2562 121.03" stroke="#535353" stroke-width="1.09863" stroke-linecap="round"/>
</g>
<defs>
<filter id="filter0_d_374_54332" x="-42.8936" y="45.5762" width="54.8511" height="44.2593" filterUnits="userSpaceOnUse" color-interpolation-filters="sRGB">
<feFlood flood-opacity="0" result="BackgroundImageFix"/>
<feColorMatrix in="SourceAlpha" type="matrix" values="0 0 0 0 0 0 0 0 0 0 0 0 0 0 0 0 0 0 127 0" result="hardAlpha"/>
<feOffset dy="1.46484"/>
<feGaussianBlur stdDeviation="0.366211"/>
<feComposite in2="hardAlpha" operator="out"/>
<feColorMatrix type="matrix" values="0 0 0 0 0 0 0 0 0 0 0 0 0 0 0 0 0 0 0.16 0"/>
<feBlend mode="normal" in2="BackgroundImageFix" result="effect1_dropShadow_374_54332"/>
<feBlend mode="normal" in="SourceGraphic" in2="effect1_dropShadow_374_54332" result="shape"/>
</filter>
<filter id="filter1_dd_374_54332" x="-17.9258" y="0.773434" width="167.238" height="104.907" filterUnits="userSpaceOnUse" color-interpolation-filters="sRGB">
<feFlood flood-opacity="0" result="BackgroundImageFix"/>
<feColorMatrix in="SourceAlpha" type="matrix" values="0 0 0 0 0 0 0 0 0 0 0 0 0 0 0 0 0 0 127 0" result="hardAlpha"/>
<feOffset dy="1.46484"/>
<feGaussianBlur stdDeviation="0.732422"/>
<feComposite in2="hardAlpha" operator="out"/>
<feColorMatrix type="matrix" values="0 0 0 0 0 0 0 0 0 0 0 0 0 0 0 0 0 0 0.16 0"/>
<feBlend mode="normal" in2="BackgroundImageFix" result="effect1_dropShadow_374_54332"/>
<feColorMatrix in="SourceAlpha" type="matrix" values="0 0 0 0 0 0 0 0 0 0 0 0 0 0 0 0 0 0 127 0" result="hardAlpha"/>
<feOffset/>
<feGaussianBlur stdDeviation="2.92969"/>
<feComposite in2="hardAlpha" operator="out"/>
<feColorMatrix type="matrix" values="0 0 0 0 0 0 0 0 0 0 0 0 0 0 0 0 0 0 0.16 0"/>
<feBlend mode="normal" in2="effect1_dropShadow_374_54332" result="effect2_dropShadow_374_54332"/>
<feBlend mode="normal" in="SourceGraphic" in2="effect2_dropShadow_374_54332" result="shape"/>
</filter>
<filter id="filter2_d_374_54332" x="-34.8804" y="61.3887" width="47.7886" height="62.3882" filterUnits="userSpaceOnUse" color-interpolation-filters="sRGB">
<feFlood flood-opacity="0" result="BackgroundImageFix"/>
<feColorMatrix in="SourceAlpha" type="matrix" values="0 0 0 0 0 0 0 0 0 0 0 0 0 0 0 0 0 0 127 0" result="hardAlpha"/>
<feOffset dy="1.46484"/>
<feGaussianBlur stdDeviation="0.366211"/>
<feComposite in2="hardAlpha" operator="out"/>
<feColorMatrix type="matrix" values="0 0 0 0 0 0 0 0 0 0 0 0 0 0 0 0 0 0 0.16 0"/>
<feBlend mode="normal" in2="BackgroundImageFix" result="effect1_dropShadow_374_54332"/>
<feBlend mode="normal" in="SourceGraphic" in2="effect1_dropShadow_374_54332" result="shape"/>
</filter>
</defs>
</svg>
