<svg width="150" height="124" viewBox="0 0 150 124" fill="none" xmlns="http://www.w3.org/2000/svg">
<g filter="url(#filter0_d_253_127138)">
<path d="M-41.0154 87.089C-42.0667 77.6038 -40.7077 68.7037 -36.2296 60.2428C-34.3789 56.7461 -31.807 53.8414 -28.7208 51.3696C-25.2682 48.6045 -21.5917 47.6648 -17.3005 46.7498C-11.2033 45.4499 -4.42764 46.2167 1.32018 48.7064C3.5617 49.6773 6.26063 50.9295 7.74713 52.9604C9.48051 55.3287 10.1724 59.1621 10.9352 61.938" stroke="#535353" stroke-width="1.09863" stroke-linecap="round"/>
</g>
<g filter="url(#filter1_dd_253_127138)">
<path fill-rule="evenodd" clip-rule="evenodd" d="M14.5858 29.9009L-5.3344 67.5038L27.5303 94.5354L14.5858 29.9009ZM9.69074 54.4107C7.75717 54.7979 6.50362 56.6793 6.89086 58.6129L9.37189 71.0012C9.75913 72.9347 11.6405 74.1883 13.5741 73.801C15.5077 73.4138 16.7612 71.5324 16.374 69.5988L13.8929 57.2106C13.5057 55.277 11.6243 54.0234 9.69074 54.4107Z" fill="#492F1A"/>
<path d="M14.5859 29.9009L122.15 8.35885C126.909 7.40564 131.54 10.4913 132.494 15.2509L141.986 62.6495C142.939 67.4091 139.854 72.0402 135.094 72.9934L27.5304 94.5354L14.5859 29.9009Z" fill="#492F1A"/>
<rect x="24.8081" y="36.186" width="100.911" height="49.5781" rx="2.19727" transform="rotate(-11.3249 24.8081 36.186)" fill="#554236"/>
<path d="M48.2812 48.9494C48.2871 48.9789 48.2951 49.0189 48.3052 49.0694C48.3187 49.1148 48.3284 49.1632 48.3343 49.2145C48.3436 49.2608 48.3482 49.3059 48.3482 49.3496C48.3516 49.3883 48.3466 49.4178 48.3331 49.438C48.3028 49.4835 48.2679 49.5167 48.2283 49.5378C48.1879 49.5546 48.145 49.5698 48.0996 49.5832C48.0575 49.5917 48.0142 49.6047 47.9695 49.6224C47.9283 49.6351 47.8892 49.6582 47.8522 49.6919C47.869 49.7323 47.8934 49.7558 47.9254 49.7626C47.9607 49.7642 47.9961 49.7659 48.0314 49.7676C48.0702 49.7642 48.1043 49.7705 48.1337 49.7865C48.1665 49.7974 48.1884 49.8302 48.1994 49.8849C48.2171 49.9733 48.2171 50.0499 48.1994 50.1147C48.1852 50.1745 48.1637 50.2313 48.1351 50.2852C48.1057 50.3348 48.0766 50.3866 48.048 50.4405C48.0194 50.4943 48.0018 50.5592 47.9951 50.6349C47.985 50.7157 47.9644 50.7767 47.9333 50.818C47.9021 50.8592 47.8655 50.895 47.8234 50.9253C47.7847 50.9506 47.7443 50.9784 47.7023 51.0087C47.6602 51.039 47.6236 51.0857 47.5925 51.1488C47.5563 51.2086 47.5235 51.2414 47.494 51.2473C47.4814 51.2499 47.4663 51.2507 47.4486 51.2499C47.4309 51.249 47.4094 51.2511 47.3842 51.2562C47.3632 51.2604 47.3438 51.273 47.3261 51.2941C47.3118 51.3101 47.3068 51.3286 47.311 51.3496C47.3127 51.358 47.3177 51.3614 47.3261 51.3597C47.3346 51.358 47.3371 51.3597 47.3337 51.3648C47.2925 51.4212 47.213 51.494 47.0952 51.5832C46.9765 51.6683 46.8385 51.755 46.6812 51.8434C46.523 51.9276 46.3551 52.0072 46.1775 52.0822C46.0033 52.1521 45.8341 52.2034 45.67 52.2363C45.3839 52.2936 45.0982 52.3421 44.8129 52.3817C44.5326 52.4247 44.2473 52.4753 43.957 52.5334L43.1175 52.7016C43.1048 52.7041 43.0884 52.7205 43.0682 52.7508C43.0523 52.7803 43.0295 52.798 43.0001 52.8039C42.9538 52.8131 42.8915 52.819 42.8132 52.8216C42.7392 52.8233 42.6634 52.8166 42.586 52.8014C42.5086 52.7863 42.4383 52.7632 42.3751 52.7321C42.3154 52.6959 42.2796 52.6483 42.2678 52.5894C42.2636 52.5684 42.2623 52.5511 42.264 52.5377C42.2648 52.52 42.2652 52.5002 42.2652 52.4783C42.2795 52.3529 42.3144 52.254 42.3699 52.1816C42.4246 52.105 42.4856 52.0381 42.553 51.9808C42.6236 51.9185 42.6943 51.8562 42.765 51.7939C42.8399 51.7308 42.9005 51.6508 42.9467 51.554C42.9972 51.4564 43.0292 51.3318 43.0426 51.1803C43.056 51.0288 43.0387 50.8331 42.9907 50.5933C42.9468 50.3745 42.8887 50.1607 42.8163 49.952C42.748 49.7425 42.692 49.5283 42.6482 49.3095C42.5715 48.9046 42.4999 48.5032 42.4333 48.1051C42.3709 47.7062 42.3013 47.3043 42.2246 46.8995L42.0325 45.9073C42.0114 45.8021 41.9828 45.6809 41.9466 45.5437C41.9145 45.4057 41.8669 45.2774 41.8038 45.1587C41.744 45.035 41.6653 44.937 41.5676 44.8646C41.4734 44.7872 41.3534 44.7565 41.2078 44.7726C41.1354 44.7827 41.0496 44.7802 40.9503 44.765C40.8509 44.7499 40.7537 44.7234 40.6586 44.6856C40.5669 44.6427 40.4844 44.5914 40.4111 44.5316C40.3379 44.4719 40.2929 44.3999 40.276 44.3158C40.2617 44.2443 40.2709 44.1811 40.3037 44.1264C40.3357 44.0675 40.3782 44.0174 40.4312 43.9761C40.4834 43.9307 40.5418 43.8949 40.6066 43.8688C40.6748 43.8376 40.7383 43.8162 40.7973 43.8044C40.9319 43.7774 41.0674 43.7656 41.2038 43.7689C41.3393 43.768 41.4764 43.7537 41.6153 43.7259C41.7878 43.6913 41.9587 43.6483 42.1278 43.597C42.3012 43.5447 42.472 43.4908 42.6404 43.4352C42.8078 43.3754 42.9761 43.3198 43.1453 43.2685C43.3187 43.2162 43.4937 43.1724 43.6704 43.137C43.8177 43.1075 43.9663 43.0843 44.1161 43.0675C44.265 43.0464 44.414 43.0253 44.563 43.0042C44.595 43.0328 44.6446 43.0513 44.7119 43.0597C44.7793 43.0681 44.8504 43.0736 44.9253 43.0761C45.0044 43.0778 45.081 43.0777 45.1551 43.076C45.2283 43.0701 45.2847 43.0676 45.3242 43.0684C45.4295 43.0692 45.5203 43.0751 45.5969 43.086C45.6769 43.0919 45.7463 43.1108 45.8053 43.1428C45.8675 43.1697 45.924 43.2109 45.9745 43.2665C46.0292 43.3211 46.0835 43.3956 46.1374 43.4899C46.1441 43.5016 46.1668 43.5168 46.2056 43.5353C46.2485 43.553 46.2956 43.5698 46.347 43.5858C46.3983 43.6017 46.4476 43.6181 46.4947 43.635C46.5418 43.6518 46.5755 43.6669 46.5957 43.6804C46.6614 43.7241 46.7329 43.7973 46.8104 43.9C46.8912 43.9976 46.9674 44.1049 47.039 44.2219C47.1105 44.3388 47.1733 44.4554 47.2272 44.5715C47.2811 44.6876 47.3156 44.7836 47.3308 44.8593C47.3619 45.015 47.37 45.1753 47.3549 45.3403C47.344 45.5044 47.3301 45.6648 47.3133 45.8213C47.3016 45.9156 47.2743 46.0086 47.2314 46.1003C47.1927 46.1913 47.1544 46.2843 47.1165 46.3794C47.0778 46.4703 47.0459 46.562 47.0207 46.6546C46.9996 46.7464 46.9984 46.8385 47.017 46.9311C47.0431 47.0615 47.0966 47.1865 47.1774 47.306C47.2582 47.4255 47.3453 47.5328 47.4388 47.6279C47.4784 47.6725 47.5217 47.7141 47.5689 47.7528C47.6202 47.7907 47.6695 47.829 47.7166 47.8677C47.7671 47.9013 47.8142 47.94 47.858 47.9838C47.901 48.0233 47.9409 48.07 47.978 48.1239C48.0597 48.2476 48.1237 48.3814 48.17 48.5253C48.2155 48.665 48.2525 48.8064 48.2812 48.9494ZM46.3159 45.3317C46.3066 45.2855 46.2893 45.232 46.2641 45.1714C46.2388 45.1108 46.2114 45.0507 46.182 44.9909C46.1516 44.927 46.1217 44.8651 46.0923 44.8054C46.062 44.7414 46.0375 44.685 46.019 44.6362C45.9937 44.5756 45.9647 44.5289 45.9319 44.4961C45.8982 44.4591 45.862 44.4313 45.8233 44.4128C45.7837 44.3901 45.7404 44.3703 45.6932 44.3535C45.6452 44.3325 45.5964 44.3072 45.5468 44.2778C45.423 44.2063 45.3073 44.1529 45.1995 44.1176C45.0918 44.0822 44.9824 44.0604 44.8713 44.052C44.7602 44.0436 44.6449 44.047 44.5254 44.0622C44.405 44.0732 44.2733 44.093 44.1302 44.1216C44.0377 44.1402 43.9413 44.1616 43.8411 44.1861C43.7452 44.2097 43.6594 44.24 43.5836 44.277C43.5685 44.2888 43.5601 44.3015 43.5584 44.3149C43.5567 44.3284 43.5487 44.3431 43.5344 44.3591C43.5243 44.3743 43.5016 44.392 43.4663 44.4122C43.4301 44.4282 43.372 44.4442 43.292 44.4602C43.17 44.4846 43.0724 44.5217 42.9992 44.5714C42.9302 44.6202 42.8789 44.6808 42.8452 44.7532C42.8149 44.8205 42.8002 44.9001 42.8011 44.9918C42.8011 45.0793 42.81 45.1782 42.8277 45.2885C42.8513 45.4282 42.8757 45.5721 42.901 45.7202C42.9305 45.8675 42.9537 46.016 42.9706 46.1658C42.9866 46.3114 42.9917 46.457 42.9858 46.6027C42.9842 46.7474 42.9628 46.8918 42.9216 47.0357C43.169 47.0474 43.4181 47.0457 43.6689 47.0304C43.9197 47.0152 44.163 46.984 44.3986 46.9368C44.5627 46.904 44.7256 46.8648 44.8872 46.8193C45.0529 46.773 45.2128 46.7191 45.3668 46.6576C45.4232 46.6332 45.4964 46.5944 45.5865 46.5414C45.6807 46.4875 45.7691 46.426 45.8516 46.357C45.9382 46.2871 46.011 46.2134 46.0699 46.136C46.133 46.0577 46.162 45.9841 46.157 45.915C46.1553 45.8629 46.1628 45.8132 46.1796 45.7661C46.2007 45.7181 46.2221 45.6722 46.244 45.6284C46.2692 45.5796 46.2902 45.5316 46.3071 45.4845C46.3239 45.4374 46.3268 45.3865 46.3159 45.3317ZM47.3686 49.5064C47.3467 49.397 47.31 49.2906 47.2587 49.1871C47.2115 49.0827 47.1686 48.9775 47.1298 48.8715C47.097 48.773 47.0683 48.6956 47.0439 48.6392C47.0237 48.582 46.9968 48.5349 46.9631 48.4978C46.9328 48.4558 46.8924 48.4179 46.8418 48.3842C46.7913 48.3506 46.7194 48.3081 46.6259 48.2568C46.5864 48.1684 46.5523 48.1184 46.5236 48.1066C46.4992 48.094 46.4744 48.0902 46.4491 48.0952C46.4281 48.0995 46.4054 48.1062 46.381 48.1155C46.3599 48.1197 46.3389 48.1239 46.3179 48.1281L46.1941 47.9691C46.1032 47.9304 46.0232 47.9026 45.9542 47.8858C45.8894 47.8681 45.8078 47.8648 45.7093 47.8758C45.6234 47.8842 45.5359 47.8842 45.4467 47.8758C45.3617 47.8666 45.275 47.8708 45.1866 47.8885C45.1488 47.8961 45.1223 47.9167 45.1071 47.9504C45.092 47.9841 45.0781 48.0022 45.0655 48.0047C45.0402 48.0098 45.0099 48.0114 44.9746 48.0098C44.9384 48.0039 44.9005 48.0005 44.8609 47.9997C44.8205 47.9947 44.7785 47.9922 44.7347 47.9922C44.6943 47.9871 44.6573 47.988 44.6236 47.9947C44.4342 48.0326 44.2533 48.0908 44.0808 48.1691C43.9116 48.2423 43.7412 48.3202 43.5696 48.4028C43.5536 48.4979 43.5393 48.6014 43.5267 48.7133C43.5183 48.8244 43.5125 48.9372 43.5091 49.0517C43.5058 49.1662 43.5067 49.2798 43.5117 49.3926C43.516 49.5011 43.5274 49.6017 43.5459 49.6943C43.5552 49.7406 43.567 49.7776 43.5813 49.8054C43.5948 49.8289 43.6099 49.85 43.6268 49.8685C43.6436 49.887 43.6583 49.9059 43.671 49.9253C43.6836 49.9446 43.6928 49.969 43.6987 49.9985C43.7325 50.1668 43.7468 50.3368 43.7418 50.5085C43.7402 50.6752 43.7562 50.8426 43.7899 51.011C43.8118 51.1204 43.8476 51.2226 43.8973 51.3177C43.947 51.4128 44.016 51.4953 44.1044 51.5651C44.1886 51.5482 44.2719 51.5491 44.3544 51.5675C44.436 51.5818 44.5189 51.5806 44.6031 51.5637C44.662 51.5519 44.7158 51.5258 44.7647 51.4854C44.8177 51.4441 44.861 51.4201 44.8947 51.4134C44.9283 51.4066 44.9565 51.4163 44.9793 51.4424C45.0062 51.4676 45.0428 51.4756 45.0891 51.4664L45.1143 51.4613C45.1228 51.4377 45.1425 51.4163 45.1737 51.3969C45.204 51.3733 45.2397 51.3552 45.281 51.3426C45.3256 51.3249 45.3731 51.311 45.4236 51.3009C45.4733 51.2866 45.5212 51.2748 45.5675 51.2655C45.6559 51.2478 45.7236 51.2364 45.7708 51.2314C45.8221 51.2255 45.8793 51.2162 45.9425 51.2035C46.1116 51.1303 46.2707 51.0503 46.4196 50.9636C46.545 50.8903 46.6699 50.804 46.7945 50.7047C46.9232 50.6045 47.0179 50.498 47.0785 50.3852C47.1121 50.3347 47.1479 50.2728 47.1857 50.1996C47.2278 50.1255 47.2631 50.0506 47.2917 49.9748C47.3237 49.894 47.3472 49.8149 47.3623 49.7375C47.3808 49.655 47.3829 49.578 47.3686 49.5064ZM55.8222 45.3646C55.8391 45.4488 55.8365 45.5237 55.8147 45.5893C55.7928 45.655 55.7663 45.7194 55.7352 45.7825C55.7074 45.8406 55.678 45.9012 55.6469 45.9643C55.62 46.0266 55.6078 46.0969 55.6103 46.1752C55.5691 46.1659 55.527 46.1634 55.4841 46.1676C55.4454 46.171 55.405 46.1769 55.3629 46.1853C55.2619 46.2056 55.1626 46.2342 55.065 46.2713C54.9707 46.3033 54.8752 46.329 54.7784 46.3483C54.6648 46.3711 54.5634 46.3564 54.4741 46.3042C54.3883 46.247 54.3121 46.1726 54.2456 46.0808C54.1833 45.9883 54.1323 45.8869 54.0927 45.7766C54.0523 45.6622 54.0228 45.5587 54.0043 45.4661C53.9807 45.3483 53.9756 45.2245 53.989 45.0949C53.9528 45.089 53.9221 45.0886 53.8969 45.0937C53.8422 45.1046 53.8056 45.1295 53.7871 45.1682C53.7728 45.2061 53.7446 45.2292 53.7025 45.2377C53.6646 45.2452 53.6284 45.2394 53.5939 45.22C53.5586 45.1965 53.5198 45.1889 53.4778 45.1973C53.4146 45.21 53.3389 45.247 53.2506 45.3085C53.1656 45.3649 53.0852 45.4335 53.0095 45.5143C52.9337 45.5951 52.8698 45.6802 52.8176 45.7694C52.7689 45.8536 52.7512 45.9293 52.7647 45.9966C52.678 46.0228 52.5989 46.0649 52.5274 46.1229C52.4592 46.176 52.394 46.2328 52.3317 46.2934C52.2838 46.3381 52.248 46.3999 52.2245 46.479C52.2009 46.5582 52.1808 46.6432 52.1639 46.7341C52.1505 46.8199 52.1354 46.9083 52.1186 46.9992C52.106 47.0893 52.0841 47.1659 52.053 47.229C52 47.3359 51.9558 47.4432 51.9205 47.5509C51.8885 47.6536 51.8844 47.7639 51.908 47.8817C51.9375 48.029 51.9905 48.1737 52.0672 48.316C52.1438 48.4582 52.1977 48.6071 52.2289 48.7628C52.2491 48.8638 52.2609 48.9665 52.2643 49.0709C52.2719 49.1744 52.2854 49.2745 52.3048 49.3713C52.3284 49.4891 52.3684 49.5796 52.4248 49.6427C52.4812 49.7058 52.5494 49.7513 52.6293 49.779C52.7084 49.8025 52.7956 49.8114 52.8907 49.8054C52.9858 49.7995 53.0817 49.7869 53.1785 49.7675C53.2837 49.7464 53.3843 49.7241 53.4802 49.7005C53.5795 49.6719 53.6712 49.6491 53.7554 49.6323C53.7916 49.66 53.8148 49.6882 53.8249 49.7168C53.835 49.7454 53.8392 49.7774 53.8375 49.8128C53.8392 49.8431 53.8371 49.8763 53.8312 49.9125C53.8287 49.9437 53.8317 49.9803 53.8401 50.0223C53.8435 50.0392 53.8519 50.0594 53.8654 50.0829C53.9285 50.0703 53.9802 50.0446 54.0206 50.0059C54.061 49.9672 54.0854 49.9141 54.0938 49.8468C54.1249 49.8493 54.1527 49.8569 54.1771 49.8695C54.2057 49.8813 54.2234 49.904 54.2302 49.9377C54.2352 49.9629 54.234 49.9894 54.2264 50.0172C54.218 50.0408 54.2075 50.0647 54.1949 50.0892C54.1822 50.1136 54.1721 50.1397 54.1646 50.1674C54.1562 50.191 54.1549 50.2175 54.1608 50.247C54.1642 50.2638 54.1701 50.2823 54.1785 50.3025C54.1861 50.3185 54.1953 50.332 54.2063 50.3429C54.192 50.3808 54.1672 50.4098 54.1318 50.43C54.0965 50.4502 54.0599 50.4641 54.022 50.4717C53.9547 50.4852 53.8958 50.4861 53.8453 50.4743C53.799 50.4617 53.7544 50.4466 53.7114 50.4289C53.6727 50.4104 53.6365 50.3936 53.6028 50.3784C53.5692 50.3633 53.5313 50.3599 53.4892 50.3683C53.4724 50.3717 53.448 50.381 53.416 50.3961C53.384 50.4113 53.3525 50.4286 53.3213 50.4479C53.2902 50.4673 53.2641 50.49 53.2431 50.5161C53.2212 50.538 53.2119 50.5574 53.2153 50.5742C53.2221 50.6079 53.2385 50.6352 53.2646 50.6562C53.2949 50.6764 53.3134 50.7034 53.3201 50.737C53.326 50.7665 53.3202 50.7917 53.3025 50.8128C53.2848 50.8338 53.2617 50.8494 53.2331 50.8595C53.2053 50.8738 53.1746 50.8844 53.1409 50.8911C53.1123 50.9012 53.0875 50.9084 53.0664 50.9126C52.9023 50.9454 52.7344 50.9594 52.5627 50.9544C52.3961 50.9527 52.2307 50.9683 52.0666 51.0012C51.9908 51.0164 51.9185 51.0484 51.8495 51.0972C51.7805 51.146 51.7039 51.1789 51.6197 51.1957C51.5734 51.205 51.5356 51.2017 51.5061 51.1857C51.4817 51.1731 51.4585 51.1558 51.4367 51.1339C51.4148 51.1121 51.3912 51.0927 51.3659 51.0759C51.3415 51.0633 51.3083 51.0612 51.2662 51.0696C51.1863 51.0856 51.108 51.11 51.0314 51.1429C50.959 51.1749 50.8846 51.2073 50.808 51.2401C50.7365 51.2764 50.662 51.3088 50.5846 51.3374C50.5122 51.3694 50.436 51.3934 50.3561 51.4094C50.314 51.4179 50.2622 51.4217 50.2008 51.4208C50.1402 51.4242 50.08 51.4188 50.0202 51.4045C49.9605 51.3902 49.9079 51.3679 49.8624 51.3376C49.817 51.3073 49.7888 51.2648 49.7778 51.2101C49.7711 51.1765 49.7812 51.1285 49.8081 51.0662C49.8392 51.0031 49.8749 50.9412 49.9153 50.8806C49.9549 50.8158 49.9961 50.7594 50.039 50.7114C50.0819 50.6634 50.116 50.6369 50.1412 50.6318C50.2086 50.6183 50.2742 50.6074 50.3382 50.5989C50.4063 50.5897 50.4762 50.5779 50.5477 50.5635C50.6614 50.5408 50.7716 50.5012 50.8785 50.4448C50.9887 50.3833 51.0834 50.3096 51.1625 50.2238C51.2458 50.1371 51.3068 50.0373 51.3454 49.9245C51.3841 49.8117 51.3908 49.6922 51.3656 49.566C51.3546 49.5113 51.3399 49.4595 51.3213 49.4107C51.302 49.3577 51.2868 49.3038 51.2758 49.2491C51.2539 49.1397 51.2446 49.0278 51.248 48.9133C51.2513 48.7989 51.242 48.6869 51.2201 48.5775C51.1906 48.4302 51.1439 48.2842 51.0799 48.1395C51.0192 47.9897 50.9733 47.8369 50.9421 47.6812C50.9143 47.5424 50.889 47.4052 50.8663 47.2697C50.8469 47.1291 50.8233 46.9894 50.7955 46.8506C50.7828 46.7875 50.7622 46.6953 50.7335 46.5741C50.7049 46.4529 50.6657 46.3338 50.616 46.2169C50.5706 46.0991 50.5133 45.9989 50.4443 45.9164C50.3794 45.8331 50.3049 45.7999 50.2208 45.8168C50.1282 45.8353 50.0377 45.8644 49.9494 45.904C49.861 45.9435 49.7684 45.973 49.6717 45.9924C49.6001 46.0067 49.5151 46.0194 49.4167 46.0303C49.3173 46.0371 49.2205 46.0346 49.1263 46.0228C49.0312 46.0069 48.9462 45.9758 48.8712 45.9295C48.7963 45.8832 48.7492 45.8117 48.7298 45.7149C48.7087 45.6097 48.7066 45.5226 48.7234 45.4536C48.7394 45.3804 48.7671 45.3223 48.8067 45.2793C48.8504 45.2356 48.9026 45.201 48.9632 45.1758C49.028 45.1497 49.0983 45.129 49.174 45.1139C49.2413 45.1004 49.3112 45.0886 49.3836 45.0785C49.456 45.0683 49.5258 45.0565 49.5931 45.0431C49.7278 45.0161 49.8591 44.9832 49.987 44.9445C50.1183 44.9007 50.2513 44.8653 50.3859 44.8383C50.4785 44.8198 50.5719 44.8055 50.6662 44.7953C50.7604 44.7852 50.8547 44.786 50.949 44.7978C51.034 44.807 51.1026 44.8436 51.1548 44.9076C51.2061 44.9673 51.2537 45.03 51.2975 45.0956C51.3455 45.1604 51.3964 45.2181 51.4503 45.2685C51.5033 45.3148 51.5761 45.3287 51.6687 45.3101C51.7108 45.3017 51.7465 45.2836 51.776 45.2558C51.8088 45.223 51.8391 45.1885 51.8669 45.1523C51.8946 45.1161 51.9228 45.082 51.9514 45.05C51.98 45.018 52.0166 44.9932 52.0612 44.9755C52.1513 44.9443 52.2295 44.898 52.296 44.8366C52.3667 44.7743 52.4353 44.7124 52.5017 44.6509C52.5682 44.5895 52.6355 44.5322 52.7037 44.4792C52.7761 44.4253 52.8585 44.3891 52.9511 44.3705C53.0058 44.3596 53.0719 44.3398 53.1493 44.3112C53.2309 44.2817 53.3096 44.2484 53.3853 44.2114C53.4645 44.1693 53.5364 44.1242 53.6012 44.0762C53.6702 44.0274 53.7215 43.9777 53.7552 43.9272C53.8705 43.9129 54.0085 43.9137 54.1693 43.9296C54.3342 43.9447 54.4941 43.9784 54.649 44.0305C54.8073 44.0776 54.9495 44.1432 55.0758 44.2273C55.2021 44.3115 55.2867 44.4171 55.3296 44.5441C55.3583 44.6216 55.3966 44.6927 55.4446 44.7575C55.4926 44.8223 55.5405 44.8871 55.5885 44.9518C55.6399 45.0116 55.6879 45.0764 55.7325 45.1462C55.7763 45.2119 55.8062 45.2847 55.8222 45.3646ZM63.9466 47.3812C63.961 47.4527 63.9618 47.5225 63.9492 47.5907C63.9366 47.6589 63.9265 47.7288 63.919 47.8003C63.914 47.8626 63.911 47.9135 63.9102 47.9531C63.9136 47.9918 63.9119 48.0271 63.9052 48.0591C63.8976 48.0869 63.8816 48.1163 63.8572 48.1475C63.8362 48.1736 63.7992 48.2073 63.7461 48.2485C63.6334 48.3411 63.5126 48.4375 63.3839 48.5377C63.2585 48.6329 63.1243 48.6948 62.9812 48.7234C62.8592 48.7478 62.738 48.7437 62.6176 48.7109C62.5006 48.673 62.3891 48.6297 62.283 48.5809C62.1803 48.5271 62.0852 48.4783 61.9977 48.4346C61.9144 48.39 61.8474 48.3727 61.7969 48.3829C61.7422 48.3938 61.6968 48.4182 61.6606 48.4561C61.6286 48.4931 61.595 48.5327 61.5597 48.5748C61.5285 48.6161 61.4907 48.6565 61.4461 48.696C61.4057 48.7348 61.3497 48.7613 61.2782 48.7756C61.2193 48.7874 61.1604 48.8101 61.1014 48.8438C61.0425 48.8775 60.9845 48.9154 60.9273 48.9575C60.8692 48.9954 60.8094 49.0358 60.748 49.0787C60.69 49.1166 60.6353 49.1495 60.5839 49.1773C60.4047 49.2657 60.2191 49.3335 60.0272 49.3807C59.8396 49.427 59.6489 49.4695 59.4554 49.5083C59.4049 49.5184 59.3266 49.5319 59.2206 49.5488C59.1154 49.5698 59.006 49.5808 58.8923 49.5817C58.7838 49.5859 58.6832 49.5754 58.5906 49.5502C58.5022 49.5241 58.4504 49.4732 58.4353 49.3975C58.4319 49.3807 58.4311 49.3655 58.4327 49.352C58.41 49.3916 58.3818 49.4257 58.3482 49.4543C58.3145 49.4829 58.2746 49.5019 58.2283 49.5112C58.1609 49.5246 58.0696 49.4948 57.9543 49.4216C57.839 49.3484 57.7249 49.2596 57.6121 49.1553C57.4993 49.051 57.3995 48.9462 57.3128 48.841C57.2252 48.7316 57.1756 48.6475 57.1638 48.5886C57.1545 48.5423 57.1587 48.4977 57.1764 48.4548C57.1982 48.411 57.2045 48.366 57.1953 48.3197C57.1835 48.2608 57.1641 48.2077 57.1371 48.1606C57.1136 48.1084 57.0959 48.0529 57.0841 47.994C57.0689 47.9182 57.0676 47.8353 57.0802 47.7453C57.092 47.651 57.1105 47.5576 57.1357 47.465C57.1601 47.3682 57.1874 47.2752 57.2177 47.186C57.2471 47.0925 57.2736 47.0063 57.2972 46.9271C57.3224 46.8346 57.3678 46.7554 57.4334 46.6898C57.4991 46.6241 57.5702 46.5639 57.6467 46.5092C57.7233 46.4545 57.7999 46.3997 57.8765 46.345C57.953 46.2903 58.0166 46.225 58.0671 46.1493C58.1445 46.2082 58.2337 46.2275 58.3347 46.2073C58.4399 46.1862 58.5401 46.1508 58.6351 46.1012C58.7294 46.0473 58.8291 46.0098 58.9343 45.9887C59.0185 45.9719 59.1001 45.9643 59.1792 45.9659C59.2626 45.9667 59.3463 45.9587 59.4305 45.9419C59.523 45.9233 59.5883 45.8993 59.6261 45.8699C59.6673 45.8353 59.7157 45.7819 59.7713 45.7095C59.8268 45.6371 59.9021 45.5761 59.9972 45.5264C60.0956 45.4716 60.1979 45.4249 60.3039 45.3862C60.4133 45.3424 60.5206 45.299 60.6258 45.256C60.7352 45.2123 60.8303 45.1626 60.9111 45.107C60.991 45.0472 61.0516 44.9782 61.0928 44.8999C61.1332 44.8174 61.1412 44.7152 61.1167 44.5931C61.0898 44.4585 61.0216 44.3255 60.9121 44.1942C60.806 44.0579 60.6798 43.941 60.5333 43.8434C60.386 43.7416 60.2307 43.6654 60.0674 43.615C59.9041 43.5645 59.7551 43.5528 59.6205 43.5798C59.6036 43.5831 59.5872 43.5886 59.5712 43.5962C59.5552 43.6038 59.5409 43.6088 59.5283 43.6113C59.4307 43.6484 59.3196 43.6838 59.1951 43.7175C59.0697 43.747 58.9556 43.7895 58.853 43.8451C58.7495 43.8964 58.6674 43.9676 58.6068 44.0585C58.5454 44.1452 58.529 44.2601 58.5577 44.4032C58.5745 44.4873 58.5977 44.5702 58.6272 44.6519C58.66 44.7284 58.6849 44.8088 58.7017 44.893C58.727 45.0192 58.7165 45.1307 58.6703 45.2275C58.6282 45.3235 58.5638 45.4064 58.4772 45.4763C58.3947 45.5453 58.2988 45.6017 58.1894 45.6455C58.0791 45.6851 57.9714 45.7154 57.8662 45.7365C57.74 45.7618 57.6272 45.7669 57.5279 45.7517C57.4286 45.7366 57.3372 45.6739 57.2539 45.5637C57.1899 45.4846 57.1204 45.4 57.0455 45.31C56.9739 45.2149 56.9276 45.1148 56.9066 45.0096C56.8838 44.896 56.8817 44.787 56.9002 44.6826C56.922 44.5732 56.9489 44.4671 56.9809 44.3644C57.012 44.2575 57.0414 44.1532 57.0692 44.0513C57.1003 43.9444 57.1154 43.8342 57.1145 43.7206C57.1406 43.6978 57.1772 43.673 57.2243 43.646C57.2757 43.6182 57.3291 43.59 57.3846 43.5614C57.4444 43.5319 57.5004 43.5054 57.5525 43.4818C57.6081 43.4532 57.6535 43.4288 57.6889 43.4086C57.784 43.3589 57.874 43.3058 57.959 43.2494C58.0473 43.188 58.1365 43.1307 58.2266 43.0777C58.3208 43.0238 58.4138 42.9745 58.5055 42.9299C58.6015 42.8844 58.7016 42.849 58.806 42.8238L59.0004 42.7783C59.1813 42.742 59.3699 42.7218 59.566 42.7175C59.7612 42.709 59.9561 42.7204 60.1505 42.7515C60.3449 42.7825 60.5322 42.8326 60.7123 42.9015C60.8958 42.9655 61.0642 43.0521 61.2174 43.1615C61.3302 43.2439 61.4299 43.3487 61.5167 43.4757C61.6067 43.5978 61.6838 43.7311 61.7478 43.8759C61.816 44.0198 61.872 44.1683 61.9158 44.3215C61.963 44.4696 61.9996 44.6089 62.0258 44.7393C62.0612 44.9161 62.0898 45.092 62.1117 45.267C62.137 45.437 62.1674 45.6104 62.2028 45.7871C62.2365 45.9554 62.2786 46.1221 62.3292 46.287C62.3831 46.4469 62.4395 46.6085 62.4984 46.7718C62.5566 46.9308 62.6109 47.0928 62.6614 47.2578C62.7153 47.4177 62.7587 47.5797 62.7916 47.7438C62.8202 47.8431 62.8455 47.9037 62.8674 47.9256C62.8926 47.9424 62.9158 47.9487 62.9368 47.9445C63.0294 47.9259 63.0976 47.8838 63.1413 47.8182C63.1884 47.7475 63.2284 47.6738 63.2612 47.5972C63.2932 47.5164 63.3306 47.4411 63.3735 47.3712C63.4164 47.3013 63.4799 47.258 63.5641 47.2411C63.602 47.2335 63.6403 47.2281 63.679 47.2247C63.7219 47.2205 63.7619 47.2234 63.7989 47.2335C63.8351 47.2394 63.8667 47.2549 63.8936 47.2802C63.9197 47.3012 63.9374 47.3349 63.9466 47.3812ZM61.5552 46.2254C61.5502 46.2001 61.5392 46.1564 61.5224 46.0941C61.5097 46.031 61.4929 45.9687 61.4718 45.9073C61.4499 45.8416 61.4234 45.7856 61.3923 45.7394C61.3653 45.6922 61.3329 45.6725 61.295 45.6801C61.2866 45.6817 61.2769 45.6881 61.266 45.699C61.2542 45.7057 61.2441 45.7099 61.2357 45.7116C61.0935 45.832 60.9715 45.9331 60.8697 46.0147C60.767 46.0922 60.6627 46.1612 60.5566 46.2218C60.454 46.2774 60.3408 46.3242 60.2171 46.3621C60.0934 46.4 59.9368 46.4379 59.7475 46.4758C59.7222 46.4809 59.6549 46.5053 59.5455 46.5491C59.4361 46.5929 59.317 46.643 59.1883 46.6994C59.0587 46.7516 58.9379 46.8043 58.826 46.8573C58.7132 46.9062 58.6429 46.9377 58.6152 46.9521C58.5647 46.984 58.5289 47.0131 58.5079 47.0392C58.4911 47.0644 58.4789 47.091 58.4713 47.1187C58.4637 47.1465 58.4566 47.1764 58.4499 47.2084C58.4423 47.2362 58.4246 47.2681 58.3969 47.3043C58.3615 47.3464 58.3207 47.3831 58.2744 47.4142C58.2324 47.4445 58.1945 47.4849 58.1608 47.5354C58.1104 47.6112 58.0683 47.7071 58.0347 47.8233C58.0002 47.9353 57.9922 48.0375 58.0108 48.1301C58.0335 48.2437 58.0832 48.3388 58.1598 48.4154C58.2364 48.4919 58.3294 48.5521 58.4389 48.5958C58.5483 48.6396 58.6686 48.6724 58.7999 48.6942C58.9312 48.716 59.0604 48.7274 59.1875 48.7282C59.3188 48.7282 59.4425 48.7231 59.5587 48.7129C59.679 48.702 59.7813 48.6881 59.8655 48.6712C59.9664 48.651 60.0851 48.6206 60.2214 48.5802C60.3569 48.5356 60.4912 48.4846 60.6241 48.4273C60.7563 48.3659 60.8778 48.2956 60.9889 48.2164C61.1 48.1373 61.1829 48.0485 61.2376 47.95C61.2603 47.9104 61.2754 47.8767 61.283 47.849C61.2897 47.817 61.2969 47.7871 61.3044 47.7593C61.3154 47.7265 61.3263 47.6937 61.3372 47.6608C61.3524 47.6272 61.3776 47.5893 61.4129 47.5472C61.4937 47.4479 61.5497 47.3448 61.5808 47.2379C61.6161 47.1301 61.6358 47.0211 61.64 46.9109C61.6442 46.8006 61.637 46.6883 61.6185 46.5738C61.5999 46.4593 61.5788 46.3432 61.5552 46.2254ZM70.0551 45.2978C70.0661 45.3525 70.0665 45.4093 70.0565 45.4682C70.0497 45.5221 70.0392 45.5789 70.0249 45.6386C70.0098 45.6942 69.9947 45.7497 69.9795 45.8053C69.9686 45.86 69.9644 45.9156 69.9669 45.9719C69.9687 46.0898 69.9451 46.2017 69.8963 46.3078C69.8509 46.4088 69.7941 46.5077 69.726 46.6045C69.6578 46.7013 69.5851 46.7968 69.5077 46.8911C69.4294 46.9812 69.3621 47.0713 69.3057 47.1614C69.2553 47.2371 69.1942 47.2822 69.1227 47.2965C69.0806 47.3049 69.0398 47.3087 69.0003 47.3079C68.9607 47.307 68.9199 47.3108 68.8778 47.3193C68.8189 47.3311 68.7726 47.3513 68.7389 47.3799C68.7095 47.4077 68.6805 47.4376 68.6519 47.4696C68.6266 47.4965 68.593 47.5251 68.5509 47.5554C68.513 47.5849 68.4562 47.6072 68.3805 47.6224C68.3258 47.6333 68.2761 47.6586 68.2315 47.6982C68.1869 47.7377 68.1394 47.7626 68.0889 47.7727C68.0173 47.787 67.929 47.7828 67.8238 47.7601C67.7228 47.7366 67.6154 47.7362 67.5018 47.759C67.4303 47.7733 67.3596 47.7918 67.2898 47.8146C67.2191 47.8331 67.1479 47.8495 67.0764 47.8639C67.0133 47.8765 66.9485 47.8807 66.882 47.8765C66.8189 47.8673 66.7557 47.8581 66.6926 47.8488C66.6329 47.8345 66.5718 47.8249 66.5096 47.8198C66.4464 47.8106 66.3833 47.8123 66.3202 47.8249C66.1939 47.8502 66.093 47.9033 66.0172 47.9841C65.9415 48.0649 65.8755 48.1503 65.8191 48.2404C65.7678 48.3338 65.7127 48.4193 65.6538 48.4967C65.5991 48.5733 65.5276 48.6205 65.4392 48.6382C65.3593 48.6542 65.3016 48.6504 65.2662 48.6269C65.2359 48.6067 65.2128 48.5785 65.1968 48.5423C65.185 48.5053 65.1724 48.464 65.1589 48.4186C65.1462 48.3773 65.1197 48.3433 65.0793 48.3163C65.0027 48.2617 64.9484 48.2091 64.9164 48.1586C64.8836 48.1039 64.8579 48.0302 64.8394 47.9377C64.7989 47.7357 64.7765 47.5366 64.7723 47.3405C64.7714 47.1394 64.7507 46.9378 64.7103 46.7358C64.6959 46.6643 64.6736 46.5966 64.6433 46.5326C64.613 46.4686 64.5797 46.4118 64.5435 46.3622C64.5115 46.3117 64.4833 46.2692 64.4589 46.2347C64.4345 46.2002 64.4206 46.1745 64.4172 46.1577C64.4096 46.1198 64.4122 46.0778 64.4248 46.0315C64.4374 45.9852 64.4529 45.9427 64.4714 45.9039C64.4933 45.8602 64.5169 45.8248 64.5421 45.7979C64.5707 45.7659 64.5955 45.7478 64.6166 45.7436C64.6587 45.7351 64.6965 45.7385 64.7302 45.7536C64.7681 45.7679 64.8043 45.7848 64.8388 45.8041C64.8767 45.8184 64.9124 45.8331 64.9461 45.8483C64.984 45.8626 65.0261 45.8651 65.0724 45.8558C65.0808 45.8541 65.0871 45.8529 65.0913 45.852C65.0947 45.847 65.1006 45.8436 65.109 45.8419C65.1873 45.9269 65.2546 46.0228 65.311 46.1297C65.3666 46.2324 65.4222 46.335 65.4778 46.4377C65.5367 46.5353 65.6015 46.6296 65.6723 46.7204C65.7463 46.8063 65.8394 46.8774 65.9513 46.9337C65.9808 46.9497 66.0149 46.967 66.0536 46.9855C66.0923 47.004 66.131 47.0225 66.1698 47.041C66.2127 47.0586 66.2527 47.0725 66.2897 47.0826C66.3309 47.0919 66.3663 47.0935 66.3957 47.0876C66.442 47.0784 66.4854 47.0653 66.5258 47.0485C66.5704 47.0308 66.6158 47.0173 66.6621 47.008C66.7252 46.9954 66.761 47.0101 66.7694 47.0522C66.7711 47.0606 66.7703 47.0783 66.7669 47.1052L66.8427 47.09L66.8868 47.0812C67.0467 47.0492 67.2029 46.9982 67.3552 46.9283C67.5075 46.8584 67.6657 46.807 67.8298 46.7742C67.9056 46.759 67.983 46.7522 68.0621 46.7539C68.1446 46.7505 68.222 46.7656 68.2944 46.7993C68.3668 46.7454 68.4244 46.6835 68.4673 46.6137C68.5102 46.5438 68.5535 46.476 68.5973 46.4104C68.6402 46.3405 68.6911 46.2778 68.75 46.2222C68.8081 46.1625 68.8893 46.1199 68.9936 46.0947C69.0096 46.0652 69.0142 46.0336 69.0075 46C69.005 45.9655 69.0007 45.9335 68.9948 45.904C68.9881 45.8704 68.9839 45.8384 68.9822 45.8081C68.9847 45.7769 68.9961 45.7462 69.0163 45.7159C69.0507 45.6696 69.0747 45.6254 69.0882 45.5833C69.105 45.5362 69.1075 45.4832 69.0957 45.4243C69.073 45.3106 69.0203 45.2118 68.9378 45.1276C68.8545 45.0393 68.7543 44.9652 68.6373 44.9055C68.5237 44.8407 68.3953 44.7898 68.2522 44.7529C68.1125 44.7108 67.9707 44.6801 67.8267 44.6608C67.687 44.6406 67.554 44.6323 67.4278 44.6357C67.3007 44.6349 67.1909 44.6437 67.0983 44.6623C66.9931 44.6833 66.89 44.7149 66.789 44.757C66.6914 44.7941 66.5988 44.8454 66.5113 44.9111C66.4928 44.8185 66.4595 44.7617 66.4115 44.7407C66.3636 44.7197 66.3089 44.7088 66.2474 44.7079C66.186 44.7071 66.1216 44.7025 66.0543 44.6941C65.9903 44.6806 65.9335 44.6373 65.8838 44.5641C65.8308 44.671 65.7538 44.7565 65.6528 44.8204C65.5561 44.8836 65.453 44.9261 65.3436 44.948C65.2341 44.9699 65.1289 44.9691 65.0279 44.9456C64.9269 44.9221 64.8314 44.8821 64.7413 44.8257C64.6555 44.7685 64.5801 44.6983 64.5153 44.615C64.4547 44.5308 64.4117 44.4366 64.3865 44.3322C64.3679 44.2615 64.3405 44.2013 64.3043 44.1517C64.2681 44.102 64.2303 44.0549 64.1907 44.0103C64.1511 43.9657 64.1132 43.9186 64.077 43.869C64.045 43.8185 64.0214 43.7554 64.0063 43.6796C63.9684 43.4903 63.9473 43.3413 63.943 43.2327C63.9422 43.1191 63.951 43.032 63.9695 42.9714C63.9871 42.9066 64.0107 42.8603 64.0401 42.8325C64.073 42.7997 64.1062 42.7689 64.1399 42.7403C64.1727 42.7075 64.2017 42.6666 64.2269 42.6178C64.2522 42.569 64.266 42.4962 64.2685 42.3994C64.2685 42.3338 64.279 42.2879 64.3001 42.2618C64.3211 42.2357 64.3623 42.2121 64.4238 42.1911C64.4768 42.1717 64.51 42.1519 64.5235 42.1317C64.5369 42.1115 64.5437 42.0905 64.5437 42.0686C64.5479 42.0458 64.5521 42.0231 64.5563 42.0004C64.5596 41.9735 64.576 41.9461 64.6055 41.9183C64.6821 41.8417 64.7612 41.7887 64.8428 41.7592C64.9278 41.7247 65.0166 41.6981 65.1091 41.6796C65.1638 41.6686 65.2169 41.6602 65.2682 41.6543C65.3187 41.6442 65.3734 41.6332 65.4323 41.6214C65.6091 41.586 65.7799 41.5431 65.9448 41.4925C66.1098 41.442 66.2806 41.399 66.4574 41.3636C66.592 41.3367 66.717 41.3269 66.8323 41.3345C66.951 41.337 67.0558 41.3466 67.1467 41.3634C67.2376 41.3802 67.3154 41.3975 67.3802 41.4151C67.4484 41.4277 67.5014 41.4303 67.5393 41.4227C67.6108 41.4083 67.6756 41.3822 67.7337 41.3443C67.7951 41.3014 67.8612 41.2707 67.9319 41.2521C67.9715 41.2749 68.0148 41.2946 68.0619 41.3114C68.1124 41.3232 68.1608 41.3245 68.2071 41.3152C68.2408 41.3084 68.2639 41.2929 68.2765 41.2685C68.2892 41.244 68.2942 41.2146 68.2917 41.1801C68.354 41.1851 68.4167 41.2032 68.4798 41.2343C68.5429 41.2654 68.6014 41.3062 68.6553 41.3567C68.7126 41.4022 68.7605 41.456 68.7993 41.5183C68.8372 41.5764 68.862 41.6348 68.8738 41.6938C68.905 41.8494 68.9235 42.0077 68.9295 42.1684C68.9388 42.3241 68.959 42.4798 68.9902 42.6355C69.0222 42.7954 69.0732 42.9406 69.1431 43.071C69.0934 43.1291 69.0366 43.1843 68.9727 43.2365C68.9121 43.2836 68.865 43.3434 68.8313 43.4158L68.8238 43.4107C68.7892 43.3914 68.745 43.3674 68.6912 43.3388C68.6407 43.3051 68.5864 43.2744 68.5283 43.2467C68.4744 43.2181 68.4218 43.1958 68.3705 43.1798C68.3183 43.1596 68.2733 43.1533 68.2354 43.1609L68.2228 43.1634C68.1992 43.155 68.1773 43.1441 68.1571 43.1306C68.1411 43.1163 68.1306 43.0965 68.1255 43.0713C68.1171 43.0292 68.1221 42.9888 68.1406 42.9501C68.1591 42.9114 68.1642 42.871 68.1558 42.8289C68.1532 42.8163 68.1284 42.7906 68.0813 42.7519C68.0341 42.7132 67.9807 42.6758 67.9209 42.6396C67.8645 42.5984 67.8094 42.5634 67.7555 42.5348C67.7008 42.502 67.6625 42.4856 67.6406 42.4856C67.5968 42.4856 67.5497 42.4798 67.4992 42.468C67.4487 42.4562 67.3982 42.4445 67.3477 42.4327C67.2972 42.4209 67.2492 42.4108 67.2038 42.4024C67.1625 42.3932 67.1293 42.3911 67.104 42.3961C67.0493 42.4071 66.9963 42.4265 66.945 42.4543C66.8928 42.4778 66.8377 42.4976 66.7796 42.5136L66.7859 42.5124L66.4956 42.5377C66.3533 42.5487 66.2098 42.5424 66.065 42.5189C65.9203 42.4953 65.7764 42.4979 65.6333 42.5266C65.507 42.5518 65.4204 42.5998 65.3733 42.6705C65.3261 42.7413 65.2912 42.8183 65.2685 42.9016C65.245 42.9807 65.2202 43.0535 65.1941 43.12C65.168 43.1865 65.1108 43.2286 65.0224 43.2463C64.9972 43.2514 64.9778 43.2531 64.9644 43.2514C65.0334 43.3776 65.094 43.4836 65.1463 43.5695C65.2027 43.6545 65.2637 43.7298 65.3294 43.7954C65.3942 43.8568 65.4712 43.9136 65.5604 43.9658C65.6488 44.0137 65.7595 44.0638 65.8925 44.1159C65.9068 44.1218 65.9266 44.1332 65.9519 44.15C65.9813 44.166 66.0112 44.1841 66.0415 44.2043C66.071 44.2202 66.0979 44.2345 66.1223 44.2472C66.1509 44.2589 66.1715 44.2636 66.1842 44.261C66.2557 44.2467 66.3197 44.2164 66.376 44.1701C66.4366 44.1229 66.5027 44.0922 66.5742 44.0779C66.6247 44.0678 66.6735 44.0711 66.7207 44.0879C66.7712 44.0997 66.8217 44.1005 66.8722 44.0904C66.9227 44.0803 66.9694 44.0622 67.0123 44.0361C67.0544 44.0058 67.1028 43.9852 67.1575 43.9742C67.1785 43.97 67.2 43.9679 67.2218 43.9679C67.2479 43.967 67.2719 43.9666 67.2938 43.9666C67.4268 43.975 67.5564 43.9665 67.6826 43.9412C67.808 43.9118 67.9364 43.886 68.0677 43.8641C68.1602 43.8456 68.2562 43.8439 68.3555 43.859C68.459 43.8733 68.5604 43.8989 68.6598 43.9359C68.7583 43.9687 68.8521 44.0112 68.9413 44.0634C69.0306 44.1155 69.1097 44.1719 69.1787 44.2325C69.2326 44.283 69.2894 44.3263 69.3492 44.3625C69.409 44.3986 69.467 44.4373 69.5234 44.4786C69.5832 44.5147 69.6375 44.5564 69.6863 44.6035C69.7352 44.6506 69.7751 44.7083 69.8063 44.7764C69.8442 44.8564 69.8901 44.9435 69.944 45.0377C70.0021 45.1311 70.0391 45.2178 70.0551 45.2978ZM73.64 38.3495C73.6644 38.4715 73.6687 38.602 73.6527 38.7409C73.6401 38.8747 73.6069 39.0039 73.5531 39.1285C73.4984 39.2488 73.4235 39.3557 73.3284 39.4492C73.2367 39.5376 73.1256 39.5949 72.9952 39.621C72.9068 39.6387 72.7949 39.648 72.6594 39.6488C72.523 39.6455 72.3888 39.6308 72.2566 39.6048C72.1279 39.5737 72.0109 39.5249 71.9056 39.4584C71.8046 39.3911 71.7427 39.3006 71.72 39.187C71.6998 39.086 71.6896 38.9808 71.6896 38.8714C71.6929 38.757 71.6858 38.6446 71.6681 38.5343C71.7059 38.5049 71.7404 38.4586 71.7715 38.3955C71.8027 38.3323 71.8317 38.2696 71.8586 38.2073C71.8889 38.14 71.9183 38.0794 71.9469 38.0255C71.9797 37.9708 72.0168 37.9371 72.058 37.9245L72.029 37.9434C72.0828 37.9064 72.1396 37.8731 72.1994 37.8436C72.2633 37.8133 72.329 37.7914 72.3963 37.7779C72.4847 37.7602 72.5945 37.7623 72.7258 37.7842C72.8605 37.801 72.9918 37.8338 73.1197 37.8825C73.2477 37.9313 73.3613 37.9961 73.4606 38.0769C73.56 38.1576 73.6198 38.2485 73.64 38.3495ZM78.2334 45.4193C78.2477 45.4909 78.2465 45.5612 78.2297 45.6302C78.2171 45.6984 78.1901 45.7606 78.1489 45.817C78.1127 45.8768 78.066 45.9277 78.0088 45.9698C77.9516 46.0119 77.8851 46.0406 77.8094 46.0557C77.7799 46.0616 77.7601 46.0612 77.75 46.0545C77.7399 46.0478 77.7223 46.036 77.697 46.0192C77.6254 45.9678 77.5463 45.9443 77.4596 45.9485C77.3738 45.957 77.2833 45.9641 77.1882 45.9701C77.0982 45.9793 77.0073 45.9735 76.9155 45.9524C76.8288 45.9348 76.7493 45.8763 76.6769 45.777C76.6289 45.7122 76.5838 45.6731 76.5418 45.6597C76.4997 45.6462 76.4387 45.6475 76.3587 45.6635C76.1736 45.7006 76.0027 45.7654 75.8462 45.858C75.6897 45.9507 75.5369 46.0513 75.388 46.1599C75.2382 46.2643 75.083 46.3632 74.9222 46.4567C74.7657 46.5493 74.597 46.6137 74.416 46.65C74.315 46.6702 74.2119 46.6799 74.1067 46.6791C74.0066 46.6816 73.906 46.6712 73.805 46.6476C73.7882 46.6729 73.7659 46.6927 73.7381 46.707C73.7145 46.7204 73.6859 46.7305 73.6523 46.7373C73.6228 46.7432 73.5929 46.747 73.5626 46.7487C73.5365 46.7495 73.513 46.7521 73.4919 46.7563C73.4877 46.7571 73.4659 46.7681 73.4263 46.7891C73.3876 46.8144 73.3645 46.8299 73.3569 46.8358L73.4074 46.8914C73.3897 46.9343 73.3401 46.9814 73.2585 47.0328C73.1777 47.0884 73.0872 47.1393 72.9871 47.1856C72.8911 47.2311 72.7965 47.272 72.703 47.3082C72.6096 47.3444 72.5377 47.3675 72.4872 47.3777C72.3525 47.4046 72.2364 47.4038 72.1387 47.3752C72.0462 47.35 71.9468 47.2911 71.8408 47.1986C71.8029 47.1624 71.7566 47.1279 71.7019 47.0951C71.6514 47.0614 71.6008 47.0278 71.5503 46.9941C71.5032 46.9554 71.4598 46.9138 71.4203 46.8692C71.3849 46.8237 71.3618 46.7737 71.3508 46.719C71.3382 46.6558 71.3613 46.5965 71.4202 46.5409C71.4791 46.4854 71.5523 46.4357 71.6398 46.3919C71.7265 46.3439 71.8153 46.3064 71.9062 46.2795C71.9962 46.2483 72.0665 46.2277 72.117 46.2176C72.218 46.1973 72.3219 46.1918 72.4288 46.2011C72.5349 46.2061 72.6384 46.1985 72.7394 46.1783C72.8319 46.1597 72.9178 46.1294 72.9969 46.0873C73.076 46.0452 73.1618 46.0149 73.2544 45.9963C73.3344 45.9803 73.4135 45.971 73.4917 45.9685C73.5734 45.9609 73.6542 45.9491 73.7341 45.9331C73.8351 45.9129 73.9285 45.8766 74.0144 45.8244C74.1036 45.7672 74.1843 45.7007 74.2567 45.6249C74.2491 45.412 74.2309 45.2011 74.2022 44.9924C74.1778 44.7829 74.1445 44.5729 74.1023 44.3625C74.0611 44.1563 74.0029 43.9535 73.928 43.754C73.853 43.5546 73.7953 43.3539 73.7549 43.1519C73.7515 43.135 73.754 43.1258 73.7624 43.1241C73.77 43.1182 73.778 43.1144 73.7864 43.1127C73.7982 43.106 73.8079 43.0997 73.8154 43.0938C73.8222 43.0837 73.823 43.066 73.8179 43.0408C73.8002 42.9524 73.7703 42.8687 73.7282 42.7896C73.6861 42.7105 73.6562 42.6267 73.6385 42.5384C73.6166 42.4289 73.6099 42.3187 73.6183 42.2076C73.6266 42.0965 73.6199 41.9862 73.598 41.8768C73.5828 41.8011 73.5508 41.7287 73.502 41.6597C73.4531 41.5907 73.3955 41.5322 73.329 41.4843C73.2625 41.4363 73.1901 41.4027 73.1118 41.3833C73.0327 41.3598 72.9531 41.356 72.8732 41.372C72.7848 41.3897 72.6986 41.418 72.6144 41.4567C72.5345 41.4946 72.4512 41.5375 72.3645 41.5855C72.277 41.6293 72.1869 41.6714 72.0943 41.7118C72.006 41.7514 71.9092 41.7818 71.804 41.8028C71.682 41.8273 71.5604 41.8429 71.4392 41.8496C71.318 41.8564 71.1942 41.8615 71.068 41.8649C71.0074 41.8683 70.9384 41.8733 70.861 41.8801C70.7877 41.886 70.7154 41.8852 70.6438 41.8776C70.5723 41.8701 70.5092 41.8499 70.4544 41.8171C70.3997 41.7843 70.3644 41.7279 70.3483 41.6479C70.3188 41.5006 70.3218 41.3841 70.3571 41.2982C70.3958 41.2073 70.4492 41.1353 70.5174 41.0823C70.5897 41.0284 70.6735 40.9876 70.7686 40.9598C70.8637 40.932 70.9546 40.905 71.0412 40.8789C71.1986 40.8343 71.3543 40.7921 71.5083 40.7525C71.6657 40.7079 71.8243 40.6695 71.9842 40.6375C72.182 40.5979 72.3781 40.5718 72.5725 40.5591C72.7703 40.5414 72.9681 40.5127 73.1658 40.4731C73.3047 40.4453 73.4415 40.4398 73.5761 40.4566C73.7108 40.4734 73.8333 40.5167 73.9436 40.5865C74.0572 40.6513 74.1544 40.7434 74.2353 40.8629C74.3161 40.9824 74.3738 41.1284 74.4083 41.3009C74.4311 41.4146 74.4282 41.5311 74.3996 41.6506C74.3744 41.7651 74.3323 41.872 74.2734 41.9713C74.3138 42.0201 74.3509 42.0521 74.3845 42.0673C74.4174 42.0782 74.4481 42.0895 74.4767 42.1013C74.5045 42.1089 74.5293 42.1236 74.5512 42.1455C74.5722 42.1632 74.5891 42.2036 74.6017 42.2667C74.6085 42.3003 74.6207 42.3395 74.6384 42.3841C74.6594 42.4236 74.6935 42.4409 74.7406 42.4358C74.7862 42.663 74.8291 42.8886 74.8696 43.1125C74.9092 43.3321 74.9513 43.5534 74.996 43.7765C75.0339 43.9658 75.0719 44.1552 75.1098 44.3445C75.1519 44.5331 75.2067 44.7191 75.274 44.9025C75.3145 45.017 75.3663 45.1007 75.4294 45.1537C75.4925 45.2067 75.5893 45.2201 75.7198 45.194C75.9091 45.1561 76.0926 45.0997 76.2702 45.0247C76.4469 44.9456 76.6299 44.887 76.8193 44.8491C76.9287 44.8272 77.0373 44.8339 77.145 44.8692C77.257 44.9037 77.3634 44.9436 77.4644 44.989C77.5697 45.0336 77.6698 45.0748 77.7649 45.1127C77.8601 45.1505 77.9455 45.1619 78.0212 45.1467C78.0549 45.14 78.0848 45.1471 78.1109 45.1681C78.1361 45.185 78.1563 45.2094 78.1715 45.2414C78.19 45.2683 78.2026 45.2986 78.2094 45.3322C78.2203 45.3651 78.2283 45.3941 78.2334 45.4193ZM85.1778 43.9367C85.2073 44.0839 85.18 44.2098 85.0958 44.3142C85.0167 44.4219 84.912 44.5107 84.7815 44.5806C84.652 44.6547 84.5127 44.7133 84.3637 44.7562C84.219 44.7983 84.094 44.8299 83.9888 44.851C83.8499 44.8788 83.7317 44.8894 83.6341 44.8827C83.5406 44.8751 83.4573 44.8633 83.3841 44.8474C83.3117 44.8356 83.2477 44.8222 83.1922 44.807C83.1366 44.7919 83.0815 44.7898 83.0268 44.8008C82.9553 44.8151 82.8862 44.842 82.8198 44.8816C82.7575 44.9203 82.6906 44.9469 82.6191 44.9612C82.5686 44.9713 82.5248 44.9713 82.4878 44.9612C82.4549 44.9503 82.4255 44.9343 82.3994 44.9133C82.3741 44.8964 82.3493 44.8817 82.3249 44.8691C82.3047 44.8556 82.2819 44.8514 82.2567 44.8565C82.2272 44.8624 82.2062 44.8776 82.1936 44.902C82.1818 44.9306 82.1684 44.9617 82.1532 44.9954C82.1381 45.0291 82.1116 45.0606 82.0737 45.0901C82.0409 45.1229 81.9866 45.1469 81.9109 45.1621C81.8225 45.1798 81.7341 45.1866 81.6458 45.1824C81.5582 45.1824 81.4703 45.1913 81.3819 45.209C81.2935 45.2267 81.2081 45.2591 81.1257 45.3062C81.0482 45.3567 80.9717 45.3896 80.8959 45.4048C80.8622 45.4115 80.8345 45.4039 80.8126 45.3821C80.7915 45.3644 80.7705 45.3577 80.7495 45.3619C80.6779 45.3762 80.6055 45.4082 80.5323 45.4579C80.4633 45.5067 80.3889 45.5391 80.3089 45.5551C80.2668 45.5636 80.2235 45.5657 80.1789 45.5615C80.1393 45.5607 80.0985 45.5645 80.0564 45.5729C79.9849 45.5872 79.9167 45.6184 79.8519 45.6664C79.7871 45.7144 79.7021 45.7489 79.5969 45.77C79.5591 45.7775 79.4736 45.7881 79.3407 45.8016C79.2127 45.8184 79.0793 45.8298 78.9405 45.8358C78.8016 45.8417 78.6741 45.8388 78.5579 45.827C78.4469 45.8186 78.3875 45.7955 78.3799 45.7576C78.358 45.6482 78.355 45.535 78.371 45.418C78.3912 45.3002 78.3911 45.1908 78.3709 45.0898L78.3684 45.0772C78.3137 45.0881 78.2762 45.065 78.256 45.0078C78.2611 44.9893 78.2711 44.9741 78.2863 44.9623C78.3048 44.9455 78.3242 44.9329 78.3444 44.9244C78.3637 44.9118 78.3805 44.8975 78.3948 44.8815C78.4091 44.8655 78.4138 44.8449 78.4087 44.8196L78.4037 44.7944C78.5753 44.7775 78.7416 44.7552 78.9023 44.7273C79.0673 44.6987 79.2381 44.6667 79.4148 44.6313C79.579 44.5984 79.7591 44.558 79.9551 44.5099C80.1546 44.4569 80.3334 44.3882 80.4916 44.304C80.6541 44.219 80.782 44.1146 80.8753 43.9908C80.9721 43.862 81.0019 43.705 80.9649 43.5199L80.956 43.4757L80.9358 43.3747C80.822 42.9161 80.7079 42.4662 80.5933 42.0252C80.4821 41.5792 80.3801 41.1247 80.2874 40.6619C80.263 40.5398 80.2289 40.4241 80.1851 40.3147C80.1447 40.2003 80.1126 40.0841 80.089 39.9663C80.0595 39.819 80.0553 39.6667 80.0763 39.5093C80.1015 39.3511 80.1608 39.2101 80.2542 39.0863C80.2449 39.0619 80.231 39.0472 80.2125 39.0421C80.1932 39.0329 80.1704 39.0287 80.1443 39.0295C80.1183 39.0304 80.0922 39.0312 80.0661 39.0321C80.0442 39.0321 80.024 39.0296 80.0055 39.0245C79.9777 39.017 79.955 38.9909 79.9373 38.9463C79.9196 38.9017 79.9011 38.8529 79.8817 38.7998C79.8665 38.746 79.8497 38.6946 79.8312 38.6458C79.816 38.592 79.7949 38.5524 79.768 38.5272C79.7562 38.4026 79.7532 38.2785 79.7591 38.1548C79.7649 38.031 79.7556 37.9082 79.7312 37.7861C79.7135 37.6978 79.687 37.6309 79.6516 37.5854C79.6205 37.5391 79.5868 37.5021 79.5506 37.4743C79.5144 37.4466 79.4811 37.4226 79.4508 37.4024C79.4239 37.3772 79.4062 37.3435 79.3978 37.3014C79.391 37.2678 79.3952 37.2341 79.4104 37.2004L79.3586 37.2042C79.3165 37.2127 79.2871 37.2295 79.2703 37.2548C79.2534 37.28 79.237 37.3074 79.221 37.3368C79.2093 37.3654 79.195 37.3924 79.1781 37.4176C79.1613 37.4429 79.134 37.4593 79.0961 37.4669C79.0666 37.4728 79.0317 37.4732 78.9913 37.4682C78.924 37.5035 78.8588 37.5275 78.7956 37.5402C78.6484 37.5697 78.4973 37.5802 78.3424 37.5719C78.1909 37.5584 78.0415 37.5665 77.8943 37.596C77.8143 37.612 77.7373 37.6318 77.6633 37.6554C77.5884 37.6747 77.513 37.692 77.4373 37.7072C77.3279 37.7291 77.2159 37.7384 77.1015 37.7351C76.987 37.7317 76.8793 37.6964 76.7783 37.6291L76.7631 37.5533C76.7184 37.3303 76.7584 37.1473 76.8829 37.0041C77.0116 36.8602 77.1833 36.7667 77.3979 36.7237C77.5452 36.6942 77.6941 36.6841 77.8448 36.6933C77.9955 36.7025 78.1444 36.6924 78.2917 36.6629C78.3716 36.6469 78.4541 36.6216 78.5391 36.5871C78.6241 36.5526 78.7108 36.5155 78.7992 36.4759C78.8875 36.4364 78.9763 36.3989 79.0655 36.3635C79.1589 36.3273 79.2519 36.2999 79.3445 36.2814C79.4876 36.2527 79.6285 36.2573 79.7674 36.2952C79.9055 36.3288 80.0431 36.3603 80.1803 36.3897L80.1841 36.4415C80.1917 36.4794 80.2072 36.5134 80.2308 36.5437C80.2577 36.569 80.2872 36.5959 80.3192 36.6245C80.3503 36.6489 80.3777 36.6763 80.4013 36.7065C80.4282 36.7318 80.4455 36.7633 80.4531 36.8012C80.4606 36.8391 80.4619 36.8782 80.4569 36.9186C80.4552 36.954 80.4582 36.9906 80.4657 37.0285C80.4843 37.121 80.5188 37.206 80.5693 37.2834C80.6241 37.36 80.6611 37.4467 80.6805 37.5435C80.7007 37.6445 80.7079 37.7459 80.702 37.8477C80.7004 37.9487 80.7097 38.0497 80.7299 38.1507C80.7543 38.2727 80.7935 38.3918 80.8474 38.508C80.9013 38.6241 80.9405 38.7432 80.9649 38.8652C80.9851 38.9662 80.9881 39.0685 80.9738 39.172C80.9637 39.2747 80.9684 39.3744 80.9878 39.4712C81.0021 39.5427 81.0249 39.6126 81.056 39.6807C81.0905 39.7438 81.1272 39.8065 81.1659 39.8688C81.2046 39.9311 81.2396 39.9963 81.2707 40.0645C81.3053 40.1276 81.3301 40.197 81.3453 40.2727L81.3706 40.399C81.384 40.4663 81.3908 40.5328 81.3908 40.5985C81.3942 40.659 81.3782 40.7213 81.3429 40.7853C81.3799 40.861 81.4182 40.9431 81.4578 41.0315C81.5016 41.119 81.5319 41.2048 81.5488 41.289C81.5572 41.3311 81.5623 41.3782 81.564 41.4304C81.569 41.4775 81.5682 41.528 81.5615 41.5819C81.5581 41.6307 81.5481 41.6787 81.5312 41.7258C81.5136 41.7687 81.4904 41.8062 81.4618 41.8382C81.5486 41.9871 81.6168 42.142 81.6665 42.3027C81.7162 42.4634 81.7617 42.625 81.8029 42.7874C81.8173 42.8371 81.8387 42.9006 81.8674 42.9781C81.896 43.0555 81.9246 43.1329 81.9533 43.2103C81.9811 43.2835 82.0059 43.353 82.0278 43.4186C82.0531 43.4792 82.0682 43.5221 82.0733 43.5474C82.0876 43.6189 82.0889 43.6909 82.0771 43.7633C82.0654 43.8356 82.0667 43.9076 82.081 43.9791C82.0919 44.0338 82.1164 44.0902 82.1543 44.1483C82.1913 44.2021 82.2435 44.2223 82.3108 44.2088C82.3613 44.1987 82.4013 44.1798 82.4307 44.152C82.4636 44.1192 82.4985 44.0859 82.5355 44.0522C82.5717 44.0144 82.615 43.9794 82.6655 43.9474C82.7194 43.9104 82.7947 43.8822 82.8915 43.8628C83.0009 43.8409 83.1069 43.8349 83.2096 43.845C83.3123 43.8551 83.4183 43.8492 83.5277 43.8273C83.6077 43.8113 83.6864 43.7889 83.7638 43.7603C83.8446 43.7266 83.9212 43.6938 83.9935 43.6618C84.0693 43.6247 84.1454 43.5898 84.222 43.5569C84.2986 43.5241 84.379 43.4992 84.4631 43.4824C84.6314 43.4487 84.7821 43.4688 84.9151 43.5428C85.0523 43.616 85.1399 43.7473 85.1778 43.9367ZM79.9809 36.8039C79.9607 36.7904 79.9363 36.7778 79.9077 36.766C79.8833 36.7534 79.8563 36.75 79.8269 36.7559C79.8058 36.7601 79.789 36.7745 79.7764 36.7989C79.7671 36.8182 79.7646 36.8384 79.7688 36.8595L79.8156 36.9289C79.8341 36.9339 79.8475 36.9356 79.856 36.9339C79.8896 36.9272 79.9149 36.9112 79.9317 36.8859C79.9519 36.8556 79.9683 36.8283 79.9809 36.8039ZM80.711 38.4827C80.7043 38.4491 80.687 38.4175 80.6593 38.3881C80.6348 38.3536 80.6016 38.3405 80.5595 38.349C80.5469 38.3515 80.5326 38.3565 80.5166 38.3641C80.5048 38.3709 80.4951 38.3772 80.4876 38.3831L80.5419 38.6545C80.579 38.6646 80.6059 38.6679 80.6227 38.6646C80.6648 38.6561 80.6909 38.6334 80.701 38.5964C80.7144 38.5543 80.7178 38.5164 80.711 38.4827Z" fill="#EADFD7"/>
<line opacity="0.3" x1="42.9237" y1="59.5057" x2="117.452" y2="44.5797" stroke="#EADFD7" stroke-width="0.732422"/>
<path d="M46.1123 69.4391L45.9783 68.7701L47.8551 68.3942C48.3123 68.3026 48.6405 68.1421 48.8397 67.9125C49.0388 67.683 49.1035 67.3943 49.0339 67.0464L49.0322 67.038C48.9855 66.8052 48.8918 66.6212 48.7509 66.486C48.6101 66.3508 48.4223 66.2658 48.1878 66.2311C47.9561 66.1958 47.6789 66.2105 47.3563 66.2751L45.5511 66.6366L45.4204 65.9844L47.011 65.6658C47.4711 65.5737 47.7999 65.4232 47.9973 65.2144C48.1976 65.0051 48.2657 64.7405 48.2016 64.4207L48.2 64.4123C48.1382 64.1037 47.9852 63.8863 47.7411 63.7602C47.4992 63.6306 47.1903 63.6035 46.8144 63.6788L45.0302 64.0361L44.8962 63.367L46.8403 62.9777C47.2134 62.9029 47.5456 62.9006 47.8368 62.9707C48.1309 63.0402 48.3722 63.1742 48.5607 63.3728C48.7516 63.568 48.8779 63.8199 48.9397 64.1285L48.9414 64.1369C48.9835 64.3473 48.9754 64.5546 48.9171 64.7589C48.8616 64.9626 48.768 65.1433 48.6362 65.301C48.5043 65.4587 48.3439 65.5754 48.1548 65.6512L48.1683 65.7185C48.4528 65.6966 48.7092 65.7313 48.9376 65.8227C49.166 65.9141 49.356 66.054 49.5075 66.2425C49.6613 66.4277 49.7649 66.6535 49.8182 66.92L49.8199 66.9284C49.8907 67.2819 49.8689 67.6028 49.7545 67.8912C49.6424 68.1763 49.4472 68.4182 49.1689 68.6169C48.8901 68.8128 48.5347 68.954 48.1027 69.0405L46.1123 69.4391ZM45.7336 69.515L44.5175 63.4429L45.275 63.2912L46.491 69.3633L45.7336 69.515ZM51.3975 68.3806L50.1815 62.3085L52.5001 61.8442C52.89 61.7661 53.2446 61.7739 53.5639 61.8675C53.8854 61.9577 54.1531 62.1215 54.3669 62.3588C54.5808 62.5961 54.7242 62.8971 54.7973 63.2617L54.7989 63.2702C54.8832 63.691 54.8483 64.0773 54.694 64.4291C54.5398 64.781 54.2841 65.0554 53.9267 65.2525L55.837 67.4916L54.9491 67.6694L53.1676 65.527C53.162 65.5281 53.155 65.5296 53.1466 65.5312C53.1381 65.5329 53.1311 65.5343 53.1255 65.5355L51.6738 65.8262L52.155 68.229L51.3975 68.3806ZM51.5389 65.1529L53.0328 64.8537C53.4227 64.7757 53.7029 64.616 53.8734 64.3746C54.0462 64.13 54.0955 63.8225 54.0213 63.4522L54.0196 63.4437C53.9472 63.0819 53.7796 62.8207 53.517 62.6603C53.2543 62.4999 52.9266 62.459 52.5339 62.5377L51.0737 62.8301L51.5389 65.1529ZM56.5439 67.35L57.5665 60.8295L58.1472 60.7132L58.3435 61.6937L58.1037 61.7417L57.3392 67.1907L56.5439 67.35ZM57.21 65.409L57.3167 64.718L60.0603 64.1685L60.4249 64.7651L57.21 65.409ZM60.9749 66.4626L58.171 61.7282L57.9746 60.7478L58.3155 60.6795L61.7702 66.3033L60.9749 66.4626Z" fill="#EADFD7" fill-opacity="0.7"/>
<line opacity="0.3" x1="45.6727" y1="73.2327" x2="120.201" y2="58.3068" stroke="#EADFD7" stroke-width="0.732422"/>
</g>
<g filter="url(#filter2_d_253_127138)">
<path d="M10.9351 61.9383C13.6539 71.8327 10.5329 81.7777 1.74876 87.2942C-3.20521 90.4054 -8.47708 92.8891 -13.7313 95.4385C-18.8739 97.9337 -24.5233 100.031 -28.8292 103.927C-33.8104 108.435 -33.6746 114.912 -32.9965 121.03" stroke="#535353" stroke-width="1.09863" stroke-linecap="round"/>
</g>
<defs>
<filter id="filter0_d_253_127138" x="-42.6338" y="45.5762" width="54.8511" height="44.2593" filterUnits="userSpaceOnUse" color-interpolation-filters="sRGB">
<feFlood flood-opacity="0" result="BackgroundImageFix"/>
<feColorMatrix in="SourceAlpha" type="matrix" values="0 0 0 0 0 0 0 0 0 0 0 0 0 0 0 0 0 0 127 0" result="hardAlpha"/>
<feOffset dy="1.46484"/>
<feGaussianBlur stdDeviation="0.366211"/>
<feComposite in2="hardAlpha" operator="out"/>
<feColorMatrix type="matrix" values="0 0 0 0 0 0 0 0 0 0 0 0 0 0 0 0 0 0 0.16 0"/>
<feBlend mode="normal" in2="BackgroundImageFix" result="effect1_dropShadow_253_127138"/>
<feBlend mode="normal" in="SourceGraphic" in2="effect1_dropShadow_253_127138" result="shape"/>
</filter>
<filter id="filter1_dd_253_127138" x="-17.666" y="0.773434" width="167.238" height="104.907" filterUnits="userSpaceOnUse" color-interpolation-filters="sRGB">
<feFlood flood-opacity="0" result="BackgroundImageFix"/>
<feColorMatrix in="SourceAlpha" type="matrix" values="0 0 0 0 0 0 0 0 0 0 0 0 0 0 0 0 0 0 127 0" result="hardAlpha"/>
<feOffset dy="1.46484"/>
<feGaussianBlur stdDeviation="0.732422"/>
<feComposite in2="hardAlpha" operator="out"/>
<feColorMatrix type="matrix" values="0 0 0 0 0 0 0 0 0 0 0 0 0 0 0 0 0 0 0.16 0"/>
<feBlend mode="normal" in2="BackgroundImageFix" result="effect1_dropShadow_253_127138"/>
<feColorMatrix in="SourceAlpha" type="matrix" values="0 0 0 0 0 0 0 0 0 0 0 0 0 0 0 0 0 0 127 0" result="hardAlpha"/>
<feOffset/>
<feGaussianBlur stdDeviation="2.92969"/>
<feComposite in2="hardAlpha" operator="out"/>
<feColorMatrix type="matrix" values="0 0 0 0 0 0 0 0 0 0 0 0 0 0 0 0 0 0 0.16 0"/>
<feBlend mode="normal" in2="effect1_dropShadow_253_127138" result="effect2_dropShadow_253_127138"/>
<feBlend mode="normal" in="SourceGraphic" in2="effect2_dropShadow_253_127138" result="shape"/>
</filter>
<filter id="filter2_d_253_127138" x="-34.6206" y="61.3887" width="47.7886" height="62.3882" filterUnits="userSpaceOnUse" color-interpolation-filters="sRGB">
<feFlood flood-opacity="0" result="BackgroundImageFix"/>
<feColorMatrix in="SourceAlpha" type="matrix" values="0 0 0 0 0 0 0 0 0 0 0 0 0 0 0 0 0 0 127 0" result="hardAlpha"/>
<feOffset dy="1.46484"/>
<feGaussianBlur stdDeviation="0.366211"/>
<feComposite in2="hardAlpha" operator="out"/>
<feColorMatrix type="matrix" values="0 0 0 0 0 0 0 0 0 0 0 0 0 0 0 0 0 0 0.16 0"/>
<feBlend mode="normal" in2="BackgroundImageFix" result="effect1_dropShadow_253_127138"/>
<feBlend mode="normal" in="SourceGraphic" in2="effect1_dropShadow_253_127138" result="shape"/>
</filter>
</defs>
</svg>
