<svg width="213" height="198" viewBox="0 0 213 198" fill="none" xmlns="http://www.w3.org/2000/svg">
<path d="M82.6936 88.7406L78.7362 44.9378C78.432 41.5707 79.8496 38.2779 82.5046 36.1849L88.1265 31.7528C90.885 29.5781 94.5823 29.0102 97.8663 30.2567L137.699 45.3763L207.082 133.385L152.076 176.75L82.6936 88.7406Z" fill="#BD4B0A"/>
<circle cx="102.462" cy="54.657" r="7.85753" transform="rotate(-38.2508 102.462 54.657)" fill="#413939"/>
<path d="M100.283 61.7404C100.884 46.7647 65.6554 18.0993 47.9262 36.9868C39.1271 45.226 37.5104 53.3942 38.7861 60.8344" stroke="black" stroke-width="2"/>
<path d="M75.7947 82.5725C78.8561 100.428 66.8634 117.384 49.0081 120.446C31.1528 123.507 14.1965 111.514 11.135 93.6589C8.07359 75.8037 20.0664 58.8473 37.9216 55.7859C55.7769 52.7244 72.7332 64.7172 75.7947 82.5725Z" fill="#ABABAB"/>
<circle cx="41.3775" cy="75.9419" r="7.85753" transform="rotate(-38.2508 41.3775 75.9419)" fill="#413939"/>
<path d="M38.5008 54.9075C38.3177 60.535 39.2898 69.5525 43.9655 74.8001C45.7235 76.7732 47.7269 77.1888 48.9679 77.4187" stroke="black" stroke-width="2"/>
<path d="M46.5343 180.672L36.1788 120.275L61.0479 116.011L54.4537 122.993L51.2263 135.006L57.7431 142.178L54.0284 151.348L60.667 159.231L57.196 169.822L63.8346 177.705L55.89 189.795L46.5343 180.672Z" fill="#ABABAB"/>
<path d="M74.3004 77.2496C75.4765 76.7314 79.0927 76.4275 81.6117 75.9958" stroke="black" stroke-width="2"/>
<path d="M42.5599 121.105L51.9305 175.757" stroke="#F1EADC" stroke-width="0.5"/>
<path d="M36.0435 119.86C38.941 121.471 48.7513 123.026 60.9282 115.878" stroke="#EACB90" stroke-width="0.5"/>
</svg>
